{
.appVersion = "3141";
.formatVersion = 3;
DisplayStrings = (
"nn/Placeholder nono/Placeholder oo
acebcdefgḣifȷjklmnopqrstuaduvwxfyz
bdrpqg/g.ss04 hj
HH/Placeholder HOHO/Placeholder OO
HHHHHHOOOOOOO
ABCDEFGHIJKLM/M.ss01 NOPQRSsTUVWXYZ
012345269789
/one.osf/two.osf/six.osf/zero.osf/four.osf/five.osf/nine.osf/three.osf/seven.osf/eight.osf 
carbon-based life form
COLOUR MATCH
graceful
plague

"
);
axes = (
{
name = Weight;
tag = wght;
},
{
name = Width;
tag = wdth;
},
{
name = Italic;
tag = ital;
}
);
customParameters = (
{
name = "Use Typo Metrics";
value = 1;
}
);
date = "2021-12-08 07:04:36 +0000";
familyName = Rag;
featurePrefixes = (
{
automatic = 1;
code = "languagesystem DFLT dflt;
languagesystem DFLT MAH;

languagesystem latn dflt;
languagesystem latn AZE;
languagesystem latn CRT;
languagesystem latn KAZ;
languagesystem latn TAT;
languagesystem latn TRK;
languagesystem latn ROM;
languagesystem latn MOL;
languagesystem latn MAH;
languagesystem latn CAT;
languagesystem latn NLD;
";
name = Languagesystems;
}
);
features = (
{
automatic = 1;
code = "feature locl;
feature sups;
feature lnum;
feature onum;
feature case;
feature ss01;
feature ss02;
feature ss03;
feature ss04;
";
tag = aalt;
},
{
automatic = 1;
code = "lookup ccmp_Other_1 {
	@CombiningTopAccents = [acutecomb brevecomb breveinvertedcomb caroncomb circumflexcomb commaturnedabovecomb dblgravecomb dieresiscomb gravecomb hookabovecomb hungarumlautcomb macroncomb ringcomb tildecomb];
	@CombiningNonTopAccents = [brevebelowcomb cedillacomb dieresisbelowcomb dotbelowcomb macronbelowcomb ogonekcomb horncomb strokeshortcomb];
	sub [i j]' @CombiningTopAccents by [idotless jdotless];
	sub [i j]' @CombiningNonTopAccents @CombiningTopAccents by [idotless jdotless];
} ccmp_Other_1;

lookup ccmp_latn_1 {
	sub lj by l j;
	sub Lj by L j;
	sub LJ by L J;
	sub nj by n j;
	sub Nj by N j;
	sub NJ by N J;
	sub dzcaron by d zcaron;
	sub Dzcaron by D zcaron;
	sub DZcaron by D Zcaron;
} ccmp_latn_1;

lookup ccmp_latn_2 {

glyphs = (
{
glyphname = A;
kernLeft = A;
kernRight = A;
lastChange = "2022-08-03 02:37:12 +0000";
layers = (
{
anchors = (
{
name = bottom;
pos = (345,0);
},
{
name = ogonek;
pos = (677,0);
},
{
name = top;
pos = (345,710);
}
);
layerId = m01;
shapes = (
{
closed = 1;
nodes = (
(114,0,l),
(365,648,l),
(317,648,l),
(568,0,l),
(677,0,l),
(394,710,l),
(296,710,l),
(13,0,l)
);
},
{
closed = 1;
nodes = (
(548,195,l),
(522,283,l),
(151,283,l),
(125,195,l)
);
}
);
width = 690;
},
{
anchors = (
{
name = bottom;
pos = (374,0);
},
{
name = ogonek;
pos = (734,0);
},
{
name = top;
pos = (374,710);
}
);
layerId = m002;
shapes = (
{
closed = 1;
nodes = (
(165,0,l),
(406,648,l),
(328,648,l),
(569,0,l),
(734,0,l),
(461,710,l),
(287,710,l),
(14,0,l)
);
},
{
closed = 1;
nodes = (
(589,150,l),
(563,278,l),
(192,278,l),
(166,150,l)
);
}
);
width = 748;
},
{
anchors = (
{
name = bottom;
pos = (243,0);
},
{
name = ogonek;
pos = (602,0);
},
{
name = top;
pos = (447,710);
}
);
layerId = m003;
shapes = (
{
closed = 1;
nodes = (
(47,0,l),
(484,648,l),
(436,648,l),
(501,0,l),
(602,0,l),
(523,710,l),
(425,710,l),
(-62,0,l)
);
},
{
closed = 1;
nodes = (
(529,195,l),
(528,283,l),
(157,283,l),
(106,195,l)
);
}
);
width = 690;
},
{
anchors = (
{
name = bottom;
pos = (298,0);
},
{
name = ogonek;
pos = (658,0);
},
{
name = top;
pos = (498,710);
}
);
layerId = m004;
shapes = (
{
closed = 1;
nodes = (
(99,0,l),
(522,648,l),
(444,648,l),
(503,0,l),
(658,0,l),
(585,710,l),
(411,710,l),
(-62,0,l)
);
},
{
closed = 1;
nodes = (
(555,150,l),
(565,278,l),
(194,278,l),
(132,150,l)
);
}
);
width = 748;
},
{
anchors = (
{
name = bottom;
pos = (388,0);
},
{
name = ogonek;
pos = (748,0);
},
{
name = top;
pos = (388,710);
}
);
layerId = m005;
shapes = (
{
closed = 1;
nodes = (
(236,0,l),
(433,638,l),
(356,638,l),
(553,0,l),
(796,0,l),
(526,710,l),
(278,710,l),
(8,0,l)
);
},
{
closed = 1;
nodes = (
(625,114,l),
(598,278,l),
(213,278,l),
(186,114,l)
);
}
);
width = 804;
},
{
anchors = (
{
name = bottom;
pos = (342,0);
},
{
name = ogonek;
pos = (680,0);
},
{
name = top;
pos = (342,710);
}
);
layerId = "E9CDC47A-CC1A-45B5-BC95-53360E087AF1";
shapes = (
{
closed = 1;
nodes = (
(236,0,l),
(368,638,l),
(301,638,l),
(434,0,l),
(680,0,l),
(467,710,l),
(216,710,l),
(3,0,l)
);
},
{
closed = 1;
nodes = (
(526,114,l),
(504,278,l),
(189,278,l),
(166,114,l)
);
}
);
width = 683;
}
);
unicode = 65;
},
{
glyphname = B;
kernLeft = H;
kernRight = B;
lastChange = "2022-08-03 02:37:12 +0000";
layers = (
{
anchors = (
{
name = bottom;
pos = (369,0);
},
{
name = center;
pos = (369,355);
},
{
name = top;
pos = (369,710);
}
);
layerId = m01;
shapes = (
{
closed = 1;
nodes = (
(465,0,ls),
(595,0,o),
(688,78,o),
(688,203,cs),
(688,307,o),
(602,381,o),
(486,385,c),
(487,361,l),
(596,369,o),
(653,425,o),
(653,521,cs),
(653,631,o),
(567,710,o),
(438,710,cs),
(98,710,l),
(98,0,l)
);
},
{
closed = 1;
nodes = (
(198,671,l),
(153,629,l),
(438,629,ls),
(511,629,o),
(553,590,o),
(553,512,cs),
(553,438,o),
(512,399,o),
(438,399,cs),
(172,399,l),
(172,323,l),
(469,323,ls),
(542,323,o),
(588,286,o),
(588,203,cs),
(588,120,o),
(540,81,o),
(465,81,cs),
(153,81,l),
(198,39,l)
);
}
);
width = 738;
},
{
anchors = (
{
name = bottom;
pos = (379,0);
},
{
name = center;
pos = (379,355);
},
{
name = top;
pos = (379,710);
}
);
layerId = m002;
shapes = (
{
closed = 1;
nodes = (
(492,0,ls),
(618,0,o),
(708,78,o),
(708,203,cs),
(708,307,o),
(633,378,o),
(507,395,c),
(474,361,l),
(605,374,o),
(673,425,o),
(673,521,cs),
(673,631,o),
(590,710,o),
(465,710,cs),
(85,710,l),
(85,0,l)
);
},
{
closed = 1;
nodes = (
(249,671,l),
(140,587,l),
(430,587,ls),
(478,587,o),
(505,561,o),
(505,505,cs),
(505,449,o),
(478,422,o),
(430,422,cs),
(159,422,l),
(159,300,l),
(459,300,ls),
(507,300,o),
(538,275,o),
(538,212,cs),
(538,150,o),
(506,123,o),
(455,123,cs),
(140,123,l),
(249,39,l)
);
}
);
width = 758;
},
{
anchors = (
{
name = bottom;
pos = (295,4);
},
{
name = center;
pos = (395,358);
},
{
name = top;
pos = (494,711);
}
);
background = {
shapes = (
{
closed = 1;
nodes = (
(382,0,ls),
(512,0,o),
(628,78,o),
(663,203,cs),
(693,307,o),
(628,381,o),
(514,385,c),
(508,361,l),
(619,369,o),
(692,425,o),
(720,521,cs),
(751,631,o),
(688,710,o),
(559,710,cs),
(219,710,l),
(15,0,l)
);
},
{
closed = 1;
nodes = (
(308,671,l),
(251,629,l),
(536,629,ls),
(609,629,o),
(639,590,o),
(617,512,cs),
(596,438,o),
(544,399,o),
(470,399,cs),
(204,399,l),
(182,323,l),
(479,323,ls),
(552,323,o),
(587,286,o),
(563,203,cs),
(540,120,o),
(480,81,o),
(405,81,cs),
(93,81,l),
(126,39,l)
);
}
);
};
layerId = m003;
shapes = (
{
closed = 1;
nodes = (
(403,0,ls),
(543,0,o),
(671,92,o),
(671,229,cs),
(671,308,o),
(614,371,o),
(523,377,c),
(512,359,l),
(655,359,o),
(722,458,o),
(722,553,cs),
(722,642,o),
(646,710,o),
(539,710,cs),
(227,710,l),
(23,0,l)
);
},
{
closed = 1;
nodes = (
(316,671,l),
(259,629,l),
(528,629,ls),
(586,629,o),
(621,596,o),
(621,546,cs),
(621,474,o),
(575,399,o),
(473,399,cs),
(212,399,l),
(190,323,l),
(484,323,ls),
(541,323,o),
(573,292,o),
(573,238,cs),
(573,159,o),
(519,81,o),
(403,81,cs),
(101,81,l),
(134,39,l)
);
}
);
width = 736;
},
{
anchors = (
{
name = bottom;
pos = (407,0);
},
{
name = center;
pos = (407,355);
},
{
name = top;
pos = (407,710);
}
);
background = {
shapes = (
{
closed = 1;
nodes = (
(422,-3,ls),
(545,-20,o),
(654,44,o),
(689,168,cs),
(718,271,o),
(665,352,o),
(547,386,c),
(505,357,l),
(636,352,o),
(716,393,o),
(743,488,cs),
(774,597,o),
(715,687,o),
(594,704,cs),
(225,757,l),
(27,54,l)
);
},
{
closed = 1;
nodes = (
(373,695,l),
(244,627,l),
(526,587,ls),
(572,580,o),
(591,551,o),
(576,495,cs),
(560,440,o),
(526,417,o),
(480,424,cs),
(217,461,l),
(183,341,l),
(474,299,ls),
(521,292,o),
(544,263,o),
(526,201,cs),
(509,139,o),
(470,117,o),
(421,124,cs),
(115,168,l),
(197,70,l)
);
}
);
};
layerId = m004;
shapes = (
{
closed = 1;
nodes = (
(448,0,ls),
(594,0,o),
(701,114,o),
(701,221,cs),
(701,315,o),
(636,378,o),
(520,395,c),
(512,361,l),
(651,365,o),
(749,432,o),
(749,555,cs),
(749,648,o),
(669,710,o),
(533,710,cs),
(213,710,l),
(13,0,l)
);
},
{
closed = 1;
nodes = (
(366,671,l),
(233,587,l),
(508,587,ls),
(555,587,o),
(580,565,o),
(580,519,cs),
(580,479,o),
(554,422,o),
(485,422,cs),
(206,422,l),
(172,300,l),
(452,300,ls),
(502,300,o),
(532,279,o),
(532,229,cs),
(532,180,o),
(503,123,o),
(426,123,cs),
(103,123,l),
(188,39,l)
);
}
);
width = 770;
},
{
anchors = (
{
name = bottom;
pos = (424,0);
},
{
name = center;
pos = (424,355);
},
{
name = top;
pos = (424,710);
}
);
background = {
shapes = (
{
closed = 1;
nodes = (
(75,0,l),
(454,0,l),
(470,0,o),
(503,3,o),
(552,10,c),
(589,15,o),
(617,22,o),
(635,33,c),
(665,50,o),
(688,73,o),
(706,103,c),
(723,132,o),
(731,165,o),
(731,202,c),
(731,247,o),
(719,285,o),
(695,315,c),
(671,344,o),
(634,365,o),
(583,378,c),
(616,389,o),
(642,405,o),
(659,425,c),
(685,455,o),
(698,491,o),
(698,533,c),
(698,583,o),
(680,625,o),
(643,659,c),
(607,693,o),
(554,710,o),
(486,710,c),
(75,710,l)
);
},
{
closed = 1;
nodes = (
(296,566,l),
(393,566,l),
(426,566,o),
(450,560,o),
(463,549,c),
(477,537,o),
(483,521,o),
(483,500,c),
(483,478,o),
(477,461,o),
(463,449,c),
(450,437,o),
(426,432,o),
(392,432,c),
(296,432,l)
);
},
{
closed = 1;
nodes = (
(296,296,l),
(408,296,l),
(446,296,o),
(473,290,o),
(488,277,c),
(504,265,o),
(511,248,o),
(511,227,c),
(511,204,o),
(504,186,o),
(488,173,c),
(473,159,o),
(446,153,o),
(408,153,c),
(296,153,l)
);
}
);
};
layerId = m005;
shapes = (
{
closed = 1;
nodes = (
(490,0,ls),
(639,0,o),
(748,65,o),
(748,203,cs),
(748,321,o),
(659,378,o),
(537,385,c),
(504,364,l),
(638,376,o),
(708,430,o),
(708,531,cs),
(708,635,o),
(637,710,o),
(471,710,cs),
(70,710,l),
(70,0,l)
);
},
{
closed = 1;
nodes = (
(294,671,l),
(185,565,l),
(410,565,ls),
(458,565,o),
(485,545,o),
(485,500,cs),
(485,455,o),
(458,434,o),
(410,434,cs),
(204,434,l),
(204,300,l),
(439,300,ls),
(487,300,o),
(518,280,o),
(518,230,cs),
(518,180,o),
(486,159,o),
(435,159,cs),
(185,159,l),
(294,39,l)
);
}
);
width = 778;
},
{
anchors = (
{
name = bottom;
pos = (319,0);
},
{
name = center;
pos = (319,355);
},
{
name = top;
pos = (319,710);
}
);
background = {
shapes = (
{
closed = 1;
nodes = (
(75,0,l),
(454,0,l),
(470,0,o),
(503,3,o),
(552,10,c),
(589,15,o),
(617,22,o),
(635,33,c),
(665,50,o),
(688,73,o),
(706,103,c),
(723,132,o),
(731,165,o),
(731,202,c),
(731,247,o),
(719,285,o),
(695,315,c),
(671,344,o),
(634,365,o),
(583,378,c),
(616,389,o),
(642,405,o),
(659,425,c),
(685,455,o),
(698,491,o),
(698,533,c),
(698,583,o),
(680,625,o),
(643,659,c),
(607,693,o),
(554,710,o),
(486,710,c),
(75,710,l)
);
},
{
closed = 1;
nodes = (
(296,566,l),
(393,566,l),
(426,566,o),
(450,560,o),
(463,549,c),
(477,537,o),
(483,521,o),
(483,500,c),
(483,478,o),
(477,461,o),
(463,449,c),
(450,437,o),
(426,432,o),
(392,432,c),
(296,432,l)
);
},
{
closed = 1;
nodes = (
(296,296,l),
(408,296,l),
(446,296,o),
(473,290,o),
(488,277,c),
(504,265,o),
(511,248,o),
(511,227,c),
(511,204,o),
(504,186,o),
(488,173,c),
(473,159,o),
(446,153,o),
(408,153,c),
(296,153,l)
);
}
);
};
layerId = "E9CDC47A-CC1A-45B5-BC95-53360E087AF1";
shapes = (
{
closed = 1;
nodes = (
(396,0,ls),
(527,0,o),
(624,65,o),
(624,203,cs),
(624,321,o),
(547,378,o),
(450,385,c),
(417,364,l),
(530,376,o),
(589,430,o),
(589,531,cs),
(589,635,o),
(539,710,o),
(385,710,cs),
(46,710,l),
(46,0,l)
);
},
{
closed = 1;
nodes = (
(269,671,l),
(170,565,l),
(316,565,ls),
(350,565,o),
(369,545,o),
(369,500,cs),
(369,455,o),
(350,434,o),
(316,434,cs),
(185,434,l),
(185,300,l),
(339,300,ls),
(373,300,o),
(395,280,o),
(395,230,cs),
(395,180,o),
(372,159,o),
(336,159,cs),
(170,159,l),
(269,39,l)
);
}
);
width = 637;
}
);
metricLeft = H;
unicode = 66;
},
{
glyphname = C;
kernLeft = O;
kernRight = C;
lastChange = "2022-10-26 10:05:28 +0000";
layers = (
{
anchors = (
{
name = bottom;
pos = (396,0);
},
{
name = top;
pos = (396,710);
}
);
background = {
shapes = (
{
pos = (-14,0);
ref = O;
}
);
};
layerId = m01;
shapes = (
{
closed = 1;
nodes = (
(544,-12,o),
(659,66,o),
(691,215,c),
(591,239,l),
(570,124,o),
(492,77,o),
(401,77,cs),
(271,77,o),
(167,158,o),
(167,355,cs),
(167,552,o),
(269,633,o),
(396,633,cs),
(480,633,o),
(556,594,o),
(579,493,c),
(683,519,l),
(641,654,o),
(531,722,o),
(396,722,cs),
(217,722,o),
(64,595,o),
(64,355,cs),
(64,115,o),
(219,-12,o),
(401,-12,cs)
);
}
);
width = 733;
},
{
anchors = (
{
name = bottom;
pos = (397,0);
},
{
name = top;
pos = (397,710);
}
);
background = {
shapes = (
{
ref = O;
}
);
};
layerId = m002;
shapes = (
{
closed = 1;
nodes = (
(584,-12,o),
(693,75,o),
(723,202,c),
(555,242,l),
(545,166,o),
(490,130,o),
(405,130,cs),
(304,130,o),
(231,193,o),
(231,355,cs),
(231,520,o),
(309,582,o),
(405,582,cs),
(481,582,o),
(532,551,o),
(548,484,c),
(712,530,l),
(683,651,o),
(568,722,o),
(405,722,cs),
(208,722,o),
(58,576,o),
(58,355,cs),
(58,134,o),
(203,-12,o),
(405,-12,cs)
);
}
);
width = 753;
},
{
anchors = (
{
name = bottom;
pos = (341,3);
},
{
name = top;
pos = (500,709);
}
);
background = {
shapes = (
{
pos = (20,0);
ref = O;
}
);
};
layerId = m003;
shapes = (
{
closed = 1;
nodes = (
(505,-12,o),
(624,56,o),
(679,196,c),
(587,231,l),
(550,118,o),
(468,77,o),
(382,77,cs),
(280,77,o),
(188,131,o),
(188,264,cs),
(188,406,o),
(281,634,o),
(479,634,cs),
(574,634,o),
(641,593,o),
(643,492,c),
(748,518,l),
(731,658,o),
(620,722,o),
(490,722,cs),
(233,722,o),
(87,460,o),
(87,260,cs),
(87,81,o),
(217,-12,o),
(375,-12,cs)
);
}
);
width = 740;
},
{
anchors = (
{
name = bottom;
pos = (375,5);
},
{
name = top;
pos = (505,708);
}
);
background = {
shapes = (
{
pos = (29,0);
ref = O;
}
);
};
layerId = m004;
shapes = (
{
closed = 1;
nodes = (
(556,-12,o),
(663,68,o),
(727,198,c),
(568,253,l),
(537,168,o),
(477,132,o),
(404,132,cs),
(317,132,o),
(250,172,o),
(250,276,cs),
(250,385,o),
(318,581,o),
(472,581,cs),
(547,581,o),
(595,543,o),
(596,475,c),
(770,529,l),
(742,662,o),
(626,722,o),
(487,722,cs),
(230,722,o),
(80,478,o),
(80,280,cs),
(80,97,o),
(209,-12,o),
(402,-12,cs)
);
}
);
width = 771;
},
{
anchors = (
{
name = bottom;
pos = (397,0);
},
{
name = top;
pos = (397,710);
}
);
layerId = m005;
shapes = (
{
closed = 1;
nodes = (
(617,-12,o),
(721,76,o),
(753,214,c),
(545,284,l),
(530,199,o),
(487,166,o),
(413,166,cs),
(331,166,o),
(271,218,o),
(271,355,cs),
(271,495,o),
(334,547,o),
(411,547,cs),
(473,547,o),
(511,514,o),
(526,453,c),
(732,529,l),
(692,650,o),
(584,722,o),
(416,722,cs),
(174,722,o),
(38,586,o),
(38,355,cs),
(38,124,o),
(172,-12,o),
(424,-12,cs)
);
}
);
width = 768;
},
{
anchors = (
{
name = bottom;
pos = (343,0);
},
{
name = top;
pos = (333,710);
}
);
layerId = "E9CDC47A-CC1A-45B5-BC95-53360E087AF1";
shapes = (
{
closed = 1;
nodes = (
(516,-12,o),
(603,78,o),
(618,224,c),
(415,284,l),
(408,200,o),
(383,166,o),
(336,166,cs),
(285,166,o),
(249,219,o),
(249,355,cs),
(249,495,o),
(289,547,o),
(337,547,cs),
(380,547,o),
(402,516,o),
(407,453,c),
(608,514,l),
(588,642,o),
(488,722,o),
(343,722,cs),
(121,722,o),
(18,586,o),
(18,355,cs),
(18,125,o),
(118,-12,o),
(350,-12,cs)
);
}
);
width = 625;
}
);
metricLeft = O;
unicode = 67;
},
{
glyphname = D;
kernLeft = H;
kernRight = O;
lastChange = "2022-10-26 10:05:29 +0000";
layers = (
{
anchors = (
{
name = bottom;
pos = (398,0);
},
{
name = center;
pos = (174,355);
},
{
name = top;
pos = (398,710);
}
);
layerId = m01;
shapes = (
{
closed = 1;
nodes = (
(405,0,ls),
(594,0,o),
(728,142,o),
(728,354,cs),
(728,572,o),
(585,710,o),
(386,710,cs),
(98,710,l),
(98,0,l)
);
},
{
closed = 1;
nodes = (
(198,671,l),
(153,626,l),
(386,626,ls),
(531,626,o),
(625,534,o),
(625,354,cs),
(625,174,o),
(540,84,o),
(405,84,cs),
(153,84,l),
(198,39,l)
);
}
);
width = 792;
},
{
anchors = (
{
name = bottom;
pos = (387,0);
},
{
name = center;
pos = (189,355);
},
{
name = top;
pos = (387,710);
}
);
background = {
shapes = (
{
pos = (-59,0);
ref = O;
}
);
};
layerId = m002;
shapes = (
{
closed = 1;
nodes = (
(432,0,ls),
(605,0,o),
(729,134,o),
(729,354,cs),
(729,580,o),
(581,710,o),
(377,710,cs),
(85,710,l),
(85,0,l)
);
},
{
closed = 1;
nodes = (
(255,671,l),
(140,580,l),
(368,580,ls),
(482,580,o),
(556,518,o),
(556,354,cs),
(556,190,o),
(498,132,o),
(401,132,cs),
(140,132,l),
(255,39,l)
);
}
);
width = 787;
},
{
anchors = (
{
name = bottom;
pos = (294,7);
},
{
name = center;
pos = (204,360);
},
{
name = top;
pos = (493,713);
}
);
layerId = m003;
shapes = (
{
closed = 1;
nodes = (
(366,0,ls),
(613,0,o),
(762,248,o),
(762,441,cs),
(762,593,o),
(667,710,o),
(488,710,cs),
(227,710,l),
(23,0,l)
);
},
{
closed = 1;
nodes = (
(316,671,l),
(259,629,l),
(478,629,ls),
(589,629,o),
(661,555,o),
(661,441,cs),
(661,306,o),
(569,84,o),
(371,84,cs),
(102,84,l),
(134,39,l)
);
}
);
width = 795;
},
{
anchors = (
{
name = bottom;
pos = (415,0);
},
{
name = center;
pos = (217,355);
},
{
name = top;
pos = (415,710);
}
);
background = {
shapes = (
{
pos = (-49,0);
ref = O;
}
);
};
layerId = m004;
shapes = (
{
closed = 1;
nodes = (
(370,0,ls),
(616,0,o),
(762,255,o),
(762,447,cs),
(762,616,o),
(662,710,o),
(501,710,cs),
(213,710,l),
(13,0,l)
);
},
{
closed = 1;
nodes = (
(372,671,l),
(231,580,l),
(474,580,ls),
(545,580,o),
(589,541,o),
(589,441,cs),
(589,356,o),
(531,132,o),
(387,132,cs),
(105,132,l),
(194,39,l)
);
}
);
width = 785;
},
{
anchors = (
{
name = bottom;
pos = (372,0);
},
{
name = center;
pos = (174,355);
},
{
name = top;
pos = (372,710);
}
);
layerId = m005;
shapes = (
{
closed = 1;
nodes = (
(457,0,ls),
(628,0,o),
(750,134,o),
(750,354,cs),
(750,580,o),
(611,710,o),
(418,710,cs),
(70,710,l),
(70,0,l)
);
},
{
closed = 1;
nodes = (
(300,671,l),
(125,550,l),
(368,550,ls),
(458,550,o),
(517,518,o),
(517,354,cs),
(517,190,o),
(467,164,o),
(387,164,cs),
(125,164,l),
(300,39,l)
);
}
);
width = 788;
},
{
anchors = (
{
name = bottom;
pos = (288,0);
},
{
name = center;
pos = (134,355);
},
{
name = top;
pos = (288,710);
}
);
layerId = "E9CDC47A-CC1A-45B5-BC95-53360E087AF1";
shapes = (
{
closed = 1;
nodes = (
(391,0,ls),
(523,0,o),
(617,135,o),
(617,354,cs),
(617,579,o),
(505,710,o),
(349,710,cs),
(46,710,l),
(46,0,l)
);
},
{
closed = 1;
nodes = (
(275,671,l),
(90,550,l),
(283,550,ls),
(345,550,o),
(386,517,o),
(386,354,cs),
(386,190,o),
(352,164,o),
(298,164,cs),
(90,164,l),
(275,39,l)
);
}
);
width = 635;
}
);
metricLeft = H;
metricRight = O;
unicode = 68;
},
{
glyphname = E;
kernLeft = H;
kernRight = E;
lastChange = "2022-08-03 02:37:12 +0000";
layers = (
{
anchors = (
{
name = bottom;
pos = (369,0);
},
{
name = ogonek;
pos = (669,0);
},
{
name = top;
pos = (369,710);
},
{
name = topleft;
pos = (28,710);
}
);
layerId = m01;
shapes = (
{
closed = 1;
nodes = (
(669,0,l),
(669,84,l),
(153,84,l),
(198,39,l),
(198,671,l),
(153,626,l),
(649,626,l),
(649,710,l),
(98,710,l),
(98,0,l)
);
},
{
closed = 1;
nodes = (
(639,335,l),
(639,419,l),
(160,419,l),
(160,335,l)
);
}
);
width = 737;
},
{
anchors = (
{
name = bottom;
pos = (348,0);
},
{
name = ogonek;
pos = (636,0);
},
{
name = top;
pos = (348,710);
},
{
name = topleft;
pos = (30,710);
}
);
layerId = m002;
shapes = (
{
closed = 1;
nodes = (
(676,0,l),
(676,130,l),
(140,130,l),
(251,39,l),
(251,671,l),
(140,580,l),
(660,580,l),
(660,710,l),
(85,710,l),
(85,0,l)
);
},
{
closed = 1;
nodes = (
(560,305,l),
(560,429,l),
(147,429,l),
(147,305,l)
);
}
);
width = 706;
},
{
anchors = (
{
name = bottom;
pos = (294,0);
},
{
name = ogonek;
pos = (594,0);
},
{
name = top;
pos = (498,710);
},
{
name = topleft;
pos = (157,710);
}
);
layerId = m003;
shapes = (
{
closed = 1;
nodes = (
(594,0,l),
(618,84,l),
(102,84,l),
(135,39,l),
(317,671,l),
(258,626,l),
(754,626,l),
(778,710,l),
(227,710,l),
(23,0,l)
);
},
{
closed = 1;
nodes = (
(660,335,l),
(684,419,l),
(205,419,l),
(181,335,l)
);
}
);
width = 737;
},
{
anchors = (
{
name = bottom;
pos = (276,0);
},
{
name = ogonek;
pos = (564,0);
},
{
name = top;
pos = (476,710);
},
{
name = topleft;
pos = (158,710);
}
);
layerId = m004;
shapes = (
{
closed = 1;
nodes = (
(564,0,l),
(601,130,l),
(105,130,l),
(192,39,l),
(370,671,l),
(231,580,l),
(707,580,l),
(744,710,l),
(213,710,l),
(13,0,l)
);
},
{
closed = 1;
nodes = (
(620,305,l),
(655,429,l),
(196,429,l),
(161,305,l)
);
}
);
width = 710;
},
{
anchors = (
{
name = bottom;
pos = (333,0);
},
{
name = ogonek;
pos = (621,0);
},
{
name = top;
pos = (333,710);
},
{
name = topleft;
pos = (15,710);
}
);
layerId = m005;
shapes = (
{
closed = 1;
nodes = (
(671,0,l),
(671,160,l),
(125,160,l),
(296,39,l),
(296,671,l),
(125,550,l),
(661,550,l),
(661,710,l),
(70,710,l),
(70,0,l)
);
},
{
closed = 1;
nodes = (
(641,291,l),
(641,439,l),
(132,439,l),
(132,291,l)
);
}
);
width = 711;
},
{
anchors = (
{
name = bottom;
pos = (285,0);
},
{
name = ogonek;
pos = (513,10);
},
{
name = top;
pos = (285,710);
},
{
name = topleft;
pos = (20,710);
}
);
layerId = "E9CDC47A-CC1A-45B5-BC95-53360E087AF1";
shapes = (
{
closed = 1;
nodes = (
(550,0,l),
(550,160,l),
(90,160,l),
(271,39,l),
(271,671,l),
(90,550,l),
(547,550,l),
(547,710,l),
(46,710,l),
(46,0,l)
);
},
{
closed = 1;
nodes = (
(526,291,l),
(526,439,l),
(96,439,l),
(96,291,l)
);
}
);
width = 570;
}
);
metricLeft = H;
unicode = 69;
},
{
glyphname = F;
kernLeft = H;
kernRight = F;
lastChange = "2022-08-03 02:37:12 +0000";
layers = (
{
anchors = (
{
name = bottom;
pos = (341,0);
},
{
name = top;
pos = (341,710);
}
);
layerId = m01;
shapes = (
{
closed = 1;
nodes = (
(198,0,l),
(198,671,l),
(153,624,l),
(649,624,l),
(649,710,l),
(98,710,l),
(98,0,l)
);
},
{
closed = 1;
nodes = (
(619,328,l),
(619,414,l),
(160,414,l),
(160,328,l)
);
}
);
width = 682;
},
{
anchors = (
{
name = bottom;
pos = (336,0);
},
{
name = top;
pos = (336,710);
}
);
layerId = m002;
shapes = (
{
closed = 1;
nodes = (
(255,0,l),
(255,671,l),
(140,580,l),
(656,580,l),
(656,710,l),
(85,710,l),
(85,0,l)
);
},
{
closed = 1;
nodes = (
(596,294,l),
(596,424,l),
(147,424,l),
(147,294,l)
);
}
);
width = 678;
},
{
anchors = (
{
name = bottom;
pos = (266,0);
},
{
name = top;
pos = (470,710);
}
);
layerId = m003;
shapes = (
{
closed = 1;
nodes = (
(124,0,l),
(317,671,l),
(257,624,l),
(753,624,l),
(778,710,l),
(227,710,l),
(23,0,l)
);
},
{
closed = 1;
nodes = (
(638,328,l),
(663,414,l),
(204,414,l),
(179,328,l)
);
}
);
width = 682;
},
{
anchors = (
{
name = bottom;
pos = (268,0);
},
{
name = top;
pos = (468,710);
}
);
layerId = m004;
shapes = (
{
closed = 1;
nodes = (
(187,0,l),
(376,671,l),
(235,580,l),
(731,580,l),
(768,710,l),
(213,710,l),
(13,0,l)
);
},
{
closed = 1;
nodes = (
(634,304,l),
(670,434,l),
(201,434,l),
(165,304,l)
);
}
);
width = 676;
},
{
anchors = (
{
name = bottom;
pos = (331,0);
},
{
name = top;
pos = (331,710);
}
);
background = {
shapes = (
{
closed = 1;
nodes = (
(79,711,l),
(79,0,l),
(300,0,l),
(300,290,l),
(575,290,l),
(575,434,l),
(300,434,l),
(300,558,l),
(622,558,l),
(622,711,l)
);
}
);
};
layerId = m005;
shapes = (
{
closed = 1;
nodes = (
(300,0,l),
(300,671,l),
(135,540,l),
(631,540,l),
(631,710,l),
(70,710,l),
(70,0,l)
);
},
{
closed = 1;
nodes = (
(591,270,l),
(591,424,l),
(142,424,l),
(142,270,l)
);
}
);
width = 656;
},
{
anchors = (
{
name = bottom;
pos = (177,0);
},
{
name = top;
pos = (262,710);
}
);
background = {
shapes = (
{
closed = 1;
nodes = (
(79,711,l),
(79,0,l),
(300,0,l),
(300,290,l),
(575,290,l),
(575,434,l),
(300,434,l),
(300,558,l),
(622,558,l),
(622,711,l)
);
}
);
};
layerId = "E9CDC47A-CC1A-45B5-BC95-53360E087AF1";
shapes = (
{
closed = 1;
nodes = (
(275,0,l),
(275,671,l),
(103,540,l),
(510,540,l),
(510,710,l),
(46,710,l),
(46,0,l)
);
},
{
closed = 1;
nodes = (
(469,270,l),
(469,424,l),
(109,424,l),
(109,270,l)
);
}
);
width = 525;
}
);
metricLeft = H;
unicode = 70;
},
{
glyphname = G;
kernLeft = O;
kernRight = G;
lastChange = "2022-10-26 10:05:31 +0000";
layers = (
{
anchors = (
{
name = bottom;
pos = (401,0);
},
{
name = top;
pos = (401,710);
}
);
background = {
shapes = (
{
pos = (-4,0);
ref = C;
}
);
};
layerId = m01;
shapes = (
{
closed = 1;
nodes = (
(521,-12,o),
(597,16,o),
(677,71,c),
(677,411,l),
(318,411,l),
(318,325,l),
(626,327,l),
(579,373,l),
(579,100,l),
(613,138,l),
(555,94,o),
(496,75,o),
(410,75,cs),
(271,75,o),
(167,151,o),
(167,354,cs),
(167,557,o),
(269,636,o),
(405,636,cs),
(497,636,o),
(562,600,o),
(578,534,c),
(676,570,l),
(647,660,o),
(546,722,o),
(405,722,cs),
(217,722,o),
(64,598,o),
(64,354,cs),
(64,110,o),
(220,-12,o),
(410,-12,cs)
);
}
);
width = 755;
},
{
anchors = (
{
name = bottom;
pos = (415,0);
},
{
name = top;
pos = (415,710);
}
);
background = {
shapes = (
{
ref = C;
}
);
};
layerId = m002;
shapes = (
{
closed = 1;
nodes = (
(527,-12,o),
(614,11,o),
(718,65,c),
(718,408,l),
(356,408,l),
(356,280,l),
(657,282,l),
(568,344,l),
(568,98,l),
(604,172,l),
(554,137,o),
(491,124,o),
(434,124,cs),
(300,124,o),
(231,190,o),
(231,358,cs),
(231,526,o),
(313,585,o),
(418,585,cs),
(486,585,o),
(536,566,o),
(551,518,c),
(719,564,l),
(683,663,o),
(577,722,o),
(418,722,cs),
(212,722,o),
(58,580,o),
(58,358,cs),
(58,136,o),
(198,-12,o),
(434,-12,cs)
);
}
);
width = 789;
},
{
anchors = (
{
name = bottom;
pos = (435,0);
},
{
name = top;
pos = (435,710);
}
);
background = {
shapes = (
{
pos = (30,0);
ref = C;
}
);
};
layerId = m003;
shapes = (
{
closed = 1;
nodes = (
(481,-12,o),
(555,15,o),
(638,65,c),
(743,432,l),
(384,432,l),
(359,346,l),
(668,348,l),
(634,394,l),
(544,79,l),
(581,129,l),
(523,92,o),
(470,74,o),
(406,74,cs),
(284,74,o),
(188,122,o),
(188,263,cs),
(188,399,o),
(276,637,o),
(496,637,cs),
(592,637,o),
(657,608,o),
(667,527,c),
(772,553,l),
(745,672,o),
(632,722,o),
(504,722,cs),
(231,722,o),
(87,460,o),
(87,261,cs),
(87,79,o),
(214,-12,o),
(392,-12,cs)
);
}
);
width = 772;
},
{
anchors = (
{
name = bottom;
pos = (345,-1);
},
{
name = top;
pos = (543,702);
}
);
background = {
shapes = (
{
pos = (29,0);
ref = C;
}
);
};
layerId = m004;
shapes = (
{
closed = 1;
nodes = (
(500,-12,o),
(576,8,o),
(668,49,c),
(779,450,l),
(412,450,l),
(377,325,l),
(694,325,l),
(600,356,l),
(523,85,l),
(584,163,l),
(540,135,o),
(492,124,o),
(445,124,cs),
(366,124,o),
(251,144,o),
(251,279,cs),
(251,384,o),
(319,584,o),
(505,584,cs),
(568,584,o),
(623,568,o),
(635,522,c),
(803,574,l),
(765,681,o),
(650,722,o),
(518,722,cs),
(237,722,o),
(81,485,o),
(81,286,cs),
(81,85,o),
(241,-12,o),
(427,-12,cs)
);
}
);
width = 810;
},
{
anchors = (
{
name = bottom;
pos = (415,0);
},
{
name = top;
pos = (415,710);
}
);
background = {
shapes = (
{
closed = 1;
nodes = (
(563,255,l),
(563,190,l),
(535,173,o),
(510,161,o),
(488,154,c),
(466,147,o),
(443,143,o),
(419,143,c),
(368,143,o),
(328,159,o),
(299,192,c),
(271,224,o),
(257,278,o),
(257,354,c),
(257,426,o),
(271,478,o),
(299,511,c),
(327,544,o),
(365,560,o),
(412,560,c),
(444,560,o),
(470,553,o),
(491,539,c),
(511,525,o),
(526,505,o),
(535,478,c),
(743,516,l),
(730,561,o),
(711,598,o),
(686,628,c),
(661,657,o),
(629,679,o),
(591,693,c),
(552,707,o),
(494,714,o),
(417,714,c),
(337,714,o),
(273,702,o),
(226,680,c),
(165,651,o),
(119,608,o),
(87,551,c),
(56,495,o),
(40,428,o),
(40,352,c),
(40,279,o),
(54,215,o),
(83,159,c),
(112,103,o),
(153,61,o),
(205,32,c),
(257,4,o),
(325,-10,o),
(408,-10,c),
(476,-10,o),
(534,-2,o),
(583,14,c),
(632,29,o),
(689,59,o),
(753,103,c),
(753,401,l),
(419,401,l),
(419,255,l)
);
}
);
};
layerId = m005;
shapes = (
{
closed = 1;
nodes = (
(532,-12,o),
(627,11,o),
(740,65,c),
(740,428,l),
(382,428,l),
(382,280,l),
(649,282,l),
(547,364,l),
(547,98,l),
(588,201,l),
(542,174,o),
(483,162,o),
(430,162,cs),
(320,162,o),
(264,217,o),
(264,358,cs),
(264,499,o),
(327,549,o),
(407,549,cs),
(465,549,o),
(508,527,o),
(521,473,c),
(741,542,l),
(708,655,o),
(601,722,o),
(404,722,cs),
(175,722,o),
(38,580,o),
(38,358,cs),
(38,136,o),
(164,-12,o),
(430,-12,cs)
);
}
);
width = 791;
},
{
anchors = (
{
name = bottom;
pos = (334,0);
},
{
name = top;
pos = (334,710);
}
);
background = {
shapes = (
{
closed = 1;
nodes = (
(563,255,l),
(563,190,l),
(535,173,o),
(510,161,o),
(488,154,c),
(466,147,o),
(443,143,o),
(419,143,c),
(368,143,o),
(328,159,o),
(299,192,c),
(271,224,o),
(257,278,o),
(257,354,c),
(257,426,o),
(271,478,o),
(299,511,c),
(327,544,o),
(365,560,o),
(412,560,c),
(444,560,o),
(470,553,o),
(491,539,c),
(511,525,o),
(526,505,o),
(535,478,c),
(743,516,l),
(730,561,o),
(711,598,o),
(686,628,c),
(661,657,o),
(629,679,o),
(591,693,c),
(552,707,o),
(494,714,o),
(417,714,c),
(337,714,o),
(273,702,o),
(226,680,c),
(165,651,o),
(119,608,o),
(87,551,c),
(56,495,o),
(40,428,o),
(40,352,c),
(40,279,o),
(54,215,o),
(83,159,c),
(112,103,o),
(153,61,o),
(205,32,c),
(257,4,o),
(325,-10,o),
(408,-10,c),
(476,-10,o),
(534,-2,o),
(583,14,c),
(632,29,o),
(689,59,o),
(753,103,c),
(753,401,l),
(419,401,l),
(419,255,l)
);
}
);
};
layerId = "E9CDC47A-CC1A-45B5-BC95-53360E087AF1";
shapes = (
{
closed = 1;
nodes = (
(430,-12,o),
(513,11,o),
(614,65,c),
(614,428,l),
(326,428,l),
(326,280,l),
(520,282,l),
(428,364,l),
(428,98,l),
(463,201,l),
(429,174,o),
(382,162,o),
(346,162,cs),
(271,162,o),
(240,218,o),
(240,358,cs),
(240,499,o),
(278,549,o),
(325,549,cs),
(361,549,o),
(390,527,o),
(399,473,c),
(615,542,l),
(589,655,o),
(502,722,o),
(321,722,cs),
(120,722,o),
(18,579,o),
(18,358,cs),
(18,136,o),
(109,-12,o),
(346,-12,cs)
);
}
);
width = 639;
}
);
metricLeft = O;
unicode = 71;
},
{
glyphname = H;
kernLeft = H;
kernRight = H;
lastChange = "2022-08-03 02:37:12 +0000";
layers = (
{
anchors = (
{
name = bottom;
pos = (413,0);
},
{
name = center;
pos = (413,355);
},
{
name = top;
pos = (413,710);
},
{
name = topleft;
pos = (28,710);
}
);
layerId = m01;
shapes = (
{
closed = 1;
nodes = (
(728,0,l),
(728,710,l),
(628,710,l),
(628,0,l)
);
},
{
closed = 1;
nodes = (
(198,0,l),
(198,710,l),
(98,710,l),
(98,0,l)
);
},
{
closed = 1;
nodes = (
(669,331,l),
(669,419,l),
(160,419,l),
(160,331,l)
);
}
);
width = 826;
},
{
anchors = (
{
name = bottom;
pos = (410,0);
},
{
name = center;
pos = (410,355);
},
{
name = top;
pos = (410,710);
},
{
name = topleft;
pos = (30,710);
}
);
layerId = m002;
shapes = (
{
closed = 1;
nodes = (
(735,0,l),
(735,710,l),
(565,710,l),
(565,0,l)
);
},
{
closed = 1;
nodes = (
(255,0,l),
(255,710,l),
(85,710,l),
(85,0,l)
);
},
{
closed = 1;
nodes = (
(676,305,l),
(676,437,l),
(147,437,l),
(147,305,l)
);
}
);
width = 820;
},
{
anchors = (
{
name = bottom;
pos = (338,0);
},
{
name = center;
pos = (440,355);
},
{
name = top;
pos = (542,710);
},
{
name = topleft;
pos = (157,710);
}
);
layerId = m003;
shapes = (
{
closed = 1;
nodes = (
(654,0,l),
(858,710,l),
(757,710,l),
(553,0,l)
);
},
{
closed = 1;
nodes = (
(124,0,l),
(328,710,l),
(227,710,l),
(23,0,l)
);
},
{
closed = 1;
nodes = (
(689,331,l),
(714,419,l),
(205,419,l),
(180,331,l)
);
}
);
width = 827;
},
{
anchors = (
{
name = bottom;
pos = (338,0);
},
{
name = center;
pos = (438,355);
},
{
name = top;
pos = (538,710);
},
{
name = topleft;
pos = (158,710);
}
);
layerId = m004;
shapes = (
{
closed = 1;
nodes = (
(667,0,l),
(867,710,l),
(693,710,l),
(493,0,l)
);
},
{
closed = 1;
nodes = (
(187,0,l),
(387,710,l),
(213,710,l),
(13,0,l)
);
},
{
closed = 1;
nodes = (
(690,305,l),
(727,437,l),
(198,437,l),
(161,305,l)
);
}
);
width = 828;
},
{
anchors = (
{
name = bottom;
pos = (395,0);
},
{
name = center;
pos = (395,355);
},
{
name = top;
pos = (395,710);
},
{
name = topleft;
pos = (5,710);
}
);
layerId = m005;
shapes = (
{
closed = 1;
nodes = (
(760,0,l),
(760,710,l),
(530,710,l),
(530,0,l)
);
},
{
closed = 1;
nodes = (
(300,0,l),
(300,710,l),
(70,710,l),
(70,0,l)
);
},
{
closed = 1;
nodes = (
(641,285,l),
(641,457,l),
(132,457,l),
(132,285,l)
);
}
);
width = 830;
},
{
anchors = (
{
name = bottom;
pos = (335,0);
},
{
name = center;
pos = (335,355);
},
{
name = top;
pos = (335,710);
},
{
name = topleft;
pos = (46,710);
}
);
layerId = "E9CDC47A-CC1A-45B5-BC95-53360E087AF1";
shapes = (
{
closed = 1;
nodes = (
(623,0,l),
(623,710,l),
(394,710,l),
(394,0,l)
);
},
{
closed = 1;
nodes = (
(275,0,l),
(275,710,l),
(46,710,l),
(46,0,l)
);
},
{
closed = 1;
nodes = (
(496,285,l),
(496,457,l),
(96,457,l),
(96,285,l)
);
}
);
width = 669;
}
);
unicode = 72;
},
{
glyphname = I;
kernLeft = H;
kernRight = H;
lastChange = "2022-08-03 02:37:12 +0000";
layers = (
{
anchors = (
{
name = bottom;
pos = (148,0);
},
{
name = ogonek;
pos = (198,0);
},
{
name = top;
pos = (148,710);
},
{
name = topleft;
pos = (28,710);
}
);
layerId = m01;
shapes = (
{
closed = 1;
nodes = (
(198,0,l),
(198,710,l),
(98,710,l),
(98,0,l)
);
}
);
width = 296;
},
{
anchors = (
{
name = bottom;
pos = (170,0);
},
{
name = ogonek;
pos = (255,0);
},
{
name = top;
pos = (170,710);
},
{
name = topleft;
pos = (30,710);
}
);
layerId = m002;
shapes = (
{
closed = 1;
nodes = (
(255,0,l),
(255,710,l),
(85,710,l),
(85,0,l)
);
}
);
width = 340;
},
{
anchors = (
{
name = bottom;
pos = (73,0);
},
{
name = ogonek;
pos = (123,0);
},
{
name = top;
pos = (277,710);
},
{
name = topleft;
pos = (157,710);
}
);
layerId = m003;
shapes = (
{
closed = 1;
nodes = (
(124,0,l),
(328,710,l),
(227,710,l),
(23,0,l)
);
}
);
width = 297;
},
{
anchors = (
{
name = bottom;
pos = (98,0);
},
{
name = ogonek;
pos = (183,0);
},
{
name = top;
pos = (298,710);
},
{
name = topleft;
pos = (158,710);
}
);
layerId = m004;
shapes = (
{
closed = 1;
nodes = (
(183,0,l),
(383,710,l),
(213,710,l),
(13,0,l)
);
}
);
width = 344;
},
{
anchors = (
{
name = bottom;
pos = (185,0);
},
{
name = ogonek;
pos = (300,0);
},
{
name = top;
pos = (185,710);
},
{
name = topleft;
pos = (70,710);
}
);
layerId = m005;
shapes = (
{
closed = 1;
nodes = (
(300,0,l),
(300,710,l),
(70,710,l),
(70,0,l)
);
}
);
width = 370;
},
{
anchors = (
{
name = bottom;
pos = (160,0);
},
{
name = ogonek;
pos = (275,0);
},
{
name = top;
pos = (160,710);
},
{
name = topleft;
pos = (46,710);
}
);
layerId = "E9CDC47A-CC1A-45B5-BC95-53360E087AF1";
shapes = (
{
closed = 1;
nodes = (
(275,0,l),
(275,710,l),
(46,710,l),
(46,0,l)
);
}
);
width = 321;
}
);
metricLeft = H;
metricRight = H;
unicode = 73;
},
{
glyphname = J;
kernLeft = J;
kernRight = J;
lastChange = "2022-10-27 01:34:40 +0000";
layers = (
{
anchors = (
{
name = bottom;
pos = (362,0);
},
{
name = top;
pos = (521,710);
}
);
layerId = m01;
shapes = (
{
closed = 1;
nodes = (
(480,-12,o),
(571,65,o),
(571,196,cs),
(571,710,l),
(471,710,l),
(471,198,ls),
(471,112,o),
(420,73,o),
(306,73,cs),
(184,73,o),
(140,111,o),
(140,190,cs),
(140,207,o),
(140,226,o),
(143,237,c),
(46,232,l),
(43,215,o),
(42,195,o),
(42,178,cs),
(42,62,o),
(125,-12,o),
(306,-12,cs)
);
}
);
width = 664;
},
{
anchors = (
{
name = bottom;
pos = (310,0);
},
{
name = top;
pos = (460,710);
}
);
layerId = m002;
shapes = (
{
closed = 1;
nodes = (
(465,-12,o),
(545,47,o),
(545,144,cs),
(545,710,l),
(375,710,l),
(375,187,ls),
(375,138,o),
(356,114,o),
(276,114,cs),
(216,114,o),
(193,131,o),
(193,166,cs),
(193,175,o),
(194,179,o),
(196,183,c),
(31,189,l),
(26,167,o),
(24,147,o),
(24,114,cs),
(24,37,o),
(80,-12,o),
(274,-12,cs)
);
}
);
width = 625;
},
{
anchors = (
{
name = bottom;
pos = (237,0);
},
{
name = top;
pos = (584,710);
}
);
layerId = m003;
shapes = (
{
closed = 1;
nodes = (
(357,-11,o),
(459,44,o),
(488,147,cs),
(647,710,l),
(546,710,l),
(394,169,ls),
(376,104,o),
(314,77,o),
(239,77,cs),
(159,77,o),
(116,95,o),
(116,129,cs),
(116,140,o),
(120,154,o),
(126,166,c),
(35,196,l),
(22,173,o),
(14,146,o),
(14,123,cs),
(14,27,o),
(120,-11,o),
(230,-11,cs)
);
}
);
width = 613;
},
{
anchors = (
{
name = bottom;
pos = (249,0);
},
{
name = top;
pos = (593,682);
}
);
layerId = m004;
shapes = (
{
closed = 1;
nodes = (
(1,170,o),
(1,138,cs),
(1,34,o),
(117,-13,o),
(294,-13,cs),
(426,-13,o),
(498,44,o),
(525,140,cs),
(685,710,l),
(515,710,l),
(364,176,ls),
(353,138,o),
(335,118,o),
(286,118,cs),
(220,118,o),
(178,132,o),
(178,163,cs),
(178,175,o),
(185,186,o),
(191,196,c),
(35,229,l),
(11,202,o)
);
}
);
width = 618;
},
{
anchors = (
{
name = bottom;
pos = (332,0);
},
{
name = top;
pos = (482,710);
}
);
layerId = m005;
shapes = (
{
closed = 1;
nodes = (
(513,-12,o),
(597,69,o),
(597,216,cs),
(597,710,l),
(367,710,l),
(367,246,ls),
(367,182,o),
(344,156,o),
(300,156,cs),
(266,156,o),
(245,169,o),
(245,198,cs),
(245,204,o),
(246,211,o),
(247,218,c),
(23,243,l),
(21,225,o),
(20,207,o),
(20,191,cs),
(20,56,o),
(94,-12,o),
(298,-12,cs)
);
}
);
width = 661;
},
{
anchors = (
{
name = bottom;
pos = (271,0);
},
{
name = top;
pos = (406,710);
}
);
layerId = "E9CDC47A-CC1A-45B5-BC95-53360E087AF1";
shapes = (
{
closed = 1;
nodes = (
(450,-12,o),
(520,69,o),
(520,216,cs),
(520,710,l),
(292,710,l),
(292,225,ls),
(292,169,o),
(279,156,o),
(258,156,cs),
(237,156,o),
(230,167,o),
(230,193,cs),
(230,199,o),
(230,206,o),
(231,218,c),
(14,234,l),
(11,220,o),
(10,204,o),
(10,191,cs),
(10,56,o),
(78,-12,o),
(259,-12,cs)
);
}
);
width = 560;
}
);
metricRight = U;
unicode = 74;
},
{
glyphname = K;
kernLeft = H;
kernRight = K;
lastChange = "2022-08-03 02:37:12 +0000";
layers = (
{
anchors = (
{
name = bottom;
pos = (335,0);
},
{
name = top;
pos = (335,710);
}
);
layerId = m01;
shapes = (
{
closed = 1;
nodes = (
(655,710,l),
(537,710,l),
(144,287,l),
(137,162,l)
);
},
{
closed = 1;
nodes = (
(198,0,l),
(198,710,l),
(98,710,l),
(98,0,l)
);
},
{
closed = 1;
nodes = (
(672,0,l),
(351,464,l),
(284,391,l),
(550,0,l)
);
}
);
width = 670;
},
{
anchors = (
{
name = bottom;
pos = (371,0);
},
{
name = top;
pos = (371,710);
}
);
layerId = m002;
shapes = (
{
closed = 1;
nodes = (
(731,710,l),
(524,710,l),
(131,307,l),
(194,182,l)
);
},
{
closed = 1;
nodes = (
(255,0,l),
(255,710,l),
(85,710,l),
(85,0,l)
);
},
{
closed = 1;
nodes = (
(731,0,l),
(456,504,l),
(313,411,l),
(527,0,l)
);
}
);
width = 741;
},
{
anchors = (
{
name = bottom;
pos = (260,0);
},
{
name = top;
pos = (464,710);
}
);
layerId = m003;
shapes = (
{
closed = 1;
nodes = (
(790,710,l),
(660,710,l),
(146,287,l),
(115,162,l)
);
},
{
closed = 1;
nodes = (
(123,0,l),
(327,710,l),
(227,710,l),
(23,0,l)
);
},
{
closed = 1;
nodes = (
(587,0,l),
(403,464,l),
(329,391,l),
(479,0,l)
);
}
);
width = 657;
},
{
anchors = (
{
name = bottom;
pos = (303,0);
},
{
name = top;
pos = (503,710);
}
);
layerId = m004;
shapes = (
{
closed = 1;
nodes = (
(873,710,l),
(656,710,l),
(150,307,l),
(187,182,l)
);
},
{
closed = 1;
nodes = (
(187,0,l),
(387,710,l),
(213,710,l),
(13,0,l)
);
},
{
closed = 1;
nodes = (
(663,0,l),
(530,504,l),
(377,411,l),
(475,0,l)
);
}
);
width = 755;
},
{
anchors = (
{
name = bottom;
pos = (416,0);
},
{
name = top;
pos = (416,710);
}
);
layerId = m005;
shapes = (
{
closed = 1;
nodes = (
(816,710,l),
(529,710,l),
(176,297,l),
(279,162,l)
);
},
{
closed = 1;
nodes = (
(300,0,l),
(300,710,l),
(70,710,l),
(70,0,l)
);
},
{
closed = 1;
nodes = (
(836,0,l),
(531,504,l),
(338,411,l),
(552,0,l)
);
}
);
width = 844;
},
{
anchors = (
{
name = bottom;
pos = (356,0);
},
{
name = top;
pos = (356,710);
}
);
background = {
shapes = (
{
closed = 1;
nodes = (
(816,710,l),
(529,710,l),
(176,297,l),
(279,162,l)
);
},
{
closed = 1;
nodes = (
(300,0,l),
(300,710,l),
(70,710,l),
(70,0,l)
);
},
{
closed = 1;
nodes = (
(836,0,l),
(531,504,l),
(338,411,l),
(552,0,l)
);
}
);
};
layerId = "E9CDC47A-CC1A-45B5-BC95-53360E087AF1";
shapes = (
{
closed = 1;
nodes = (
(692,710,l),
(414,710,l),
(143,277,l),
(259,142,l)
);
},
{
closed = 1;
nodes = (
(275,0,l),
(275,710,l),
(46,710,l),
(46,0,l)
);
},
{
closed = 1;
nodes = (
(706,0,l),
(464,504,l),
(268,411,l),
(429,0,l)
);
}
);
width = 711;
}
);
metricLeft = H;
unicode = 75;
},
{
glyphname = L;
kernLeft = H;
kernRight = L;
lastChange = "2022-08-03 02:37:12 +0000";
layers = (
{
anchors = (
{
name = bottom;
pos = (316,0);
},
{
name = center;
pos = (177,355);
},
{
name = top;
pos = (148,710);
},
{
name = topright;
pos = (198,710);
}
);
layerId = m01;
shapes = (
{
closed = 1;
nodes = (
(619,0,l),
(619,88,l),
(153,88,l),
(198,43,l),
(198,710,l),
(98,710,l),
(98,0,l)
);
}
);
width = 632;
},
{
anchors = (
{
name = bottom;
pos = (308,0);
},
{
name = center;
pos = (191,380);
},
{
name = top;
pos = (170,710);
},
{
name = topright;
pos = (255,710);
}
);
layerId = m002;
shapes = (
{
closed = 1;
nodes = (
(596,0,l),
(596,136,l),
(179,136,l),
(255,43,l),
(255,710,l),
(85,710,l),
(85,0,l)
);
}
);
width = 616;
},
{
anchors = (
{
name = bottom;
pos = (241,0);
},
{
name = center;
pos = (204,355);
},
{
name = top;
pos = (277,710);
},
{
name = topright;
pos = (327,710);
}
);
layerId = m003;
shapes = (
{
closed = 1;
nodes = (
(544,0,l),
(569,88,l),
(103,88,l),
(137,43,l),
(328,710,l),
(227,710,l),
(23,0,l)
);
}
);
width = 632;
},
{
anchors = (
{
name = bottom;
pos = (240,0);
},
{
name = center;
pos = (230,380);
},
{
name = top;
pos = (302,710);
},
{
name = topright;
pos = (387,710);
}
);
layerId = m004;
shapes = (
{
closed = 1;
nodes = (
(528,0,l),
(566,136,l),
(149,136,l),
(199,43,l),
(387,710,l),
(213,710,l),
(13,0,l)
);
}
);
width = 624;
},
{
anchors = (
{
name = bottom;
pos = (353,0);
},
{
name = center;
pos = (206,380);
},
{
name = top;
pos = (185,710);
},
{
name = topright;
pos = (300,710);
}
);
layerId = m005;
shapes = (
{
closed = 1;
nodes = (
(637,0,l),
(637,176,l),
(224,176,l),
(300,43,l),
(300,710,l),
(70,710,l),
(70,0,l)
);
}
);
width = 661;
},
{
anchors = (
{
name = bottom;
pos = (280,0);
},
{
name = center;
pos = (176,380);
},
{
name = top;
pos = (160,710);
},
{
name = topright;
pos = (275,710);
}
);
layerId = "E9CDC47A-CC1A-45B5-BC95-53360E087AF1";
shapes = (
{
closed = 1;
nodes = (
(528,0,l),
(528,176,l),
(208,176,l),
(275,43,l),
(275,710,l),
(46,710,l),
(46,0,l)
);
}
);
width = 551;
}
);
metricLeft = H;
unicode = 76;
},
{
glyphname = M;
kernLeft = M;
kernRight = M;
lastChange = "2022-10-27 01:30:36 +0000";
layers = (
{
anchors = (
{
name = bottom;
pos = (492,0);
},
{
name = top;
pos = (492,710);
}
);
guides = (
{
pos = (23,323);
showMeasurement = 1;
},
{
pos = (643,581);
}
);
layerId = m01;
shapes = (
{
closed = 1;
nodes = (
(147,0,l),
(207,657,l),
(167,657,l),
(433,0,l),
(542,0,l),
(797,657,l),
(756,657,l),
(825,0,l),
(931,0,l),
(845,710,l),
(721,710,l),
(476,82,l),
(508,82,l),
(252,710,l),
(128,710,l),
(52,0,l)
);
}
);
width = 983;
},
{
anchors = (
{
name = bottom;
pos = (522,0);
},
{
name = top;
pos = (522,710);
}
);
guides = (
{
pos = (74,323);
showMeasurement = 1;
}
);
layerId = m002;
shapes = (
{
closed = 1;
nodes = (
(184,0,l),
(297,630,l),
(239,627,l),
(430,0,l),
(603,0,l),
(793,627,l),
(738,630,l),
(851,0,l),
(1012,0,l),
(879,710,l),
(676,710,l),
(485,82,l),
(563,82,l),
(372,710,l),
(165,710,l),
(32,0,l)
);
}
);
width = 1044;
},
{
anchors = (
{
name = bottom;
pos = (406,0);
},
{
name = top;
pos = (610,710);
}
);
background = {
shapes = (
{
angle = 180;
pos = (1089,710);
ref = W;
}
);
};
guides = (
{
pos = (-95,323);
showMeasurement = 1;
}
);
layerId = m003;
shapes = (
{
closed = 1;
nodes = (
(69,0,l),
(377,657,l),
(335,657,l),
(352,0,l),
(463,0,l),
(857,657,l),
(814,657,l),
(743,0,l),
(847,0,l),
(915,710,l),
(788,710,l),
(412,82,l),
(446,82,l),
(429,710,l),
(306,710,l),
(-34,0,l)
);
}
);
width = 963;
},
{
anchors = (
{
name = bottom;
pos = (417,0);
},
{
name = top;
pos = (617,710);
}
);
guides = (
{
pos = (69,323);
showMeasurement = 1;
}
);
layerId = m004;
shapes = (
{
closed = 1;
nodes = (
(132,0,l),
(392,630,l),
(343,627,l),
(332,0,l),
(520,0,l),
(860,627,l),
(816,630,l),
(722,0,l),
(870,0,l),
(967,710,l),
(751,710,l),
(409,82,l),
(473,82,l),
(485,710,l),
(271,710,l),
(-32,0,l)
);
}
);
width = 990;
},
{
anchors = (
{
name = bottom;
pos = (490,0);
},
{
name = top;
pos = (490,710);
}
);
guides = (
{
pos = (42,323);
showMeasurement = 1;
}
);
layerId = m005;
shapes = (
{
closed = 1;
nodes = (
(254,0,l),
(307,630,l),
(229,627,l),
(414,0,l),
(609,0,l),
(793,627,l),
(718,630,l),
(771,0,l),
(990,0,l),
(907,710,l),
(640,710,l),
(482,122,l),
(548,122,l),
(390,710,l),
(123,710,l),
(40,0,l)
);
}
);
width = 1030;
},
{
anchors = (
{
name = bottom;
pos = (425,0);
},
{
name = top;
pos = (425,710);
}
);
guides = (
{
pos = (42,323);
showMeasurement = 1;
}
);
layerId = "E9CDC47A-CC1A-45B5-BC95-53360E087AF1";
shapes = (
{
closed = 1;
nodes = (
(244,0,l),
(264,630,l),
(184,627,l),
(335,0,l),
(510,0,l),
(661,627,l),
(584,630,l),
(604,0,l),
(820,0,l),
(771,710,l),
(512,710,l),
(395,122,l),
(454,122,l),
(337,710,l),
(80,710,l),
(30,0,l)
);
}
);
width = 850;
},
{
anchors = (
{
name = bottom;
pos = (481,0);
},
{
name = top;
pos = (481,710);
}
);
associatedMasterId = m01;
guides = (
{
pos = (12,323);
showMeasurement = 1;
},
{
pos = (632,581);
}
);
layerId = "658C9227-18CC-4E74-9776-BFA1D3446A76";
name = "27 Oct 22, 12:29";
shapes = (
{
closed = 1;
nodes = (
(137,0,l),
(256,657,l),
(216,657,l),
(422,0,l),
(531,0,l),
(736,657,l),
(695,657,l),
(813,0,l),
(920,0,l),
(784,710,l),
(661,710,l),
(465,82,l),
(497,82,l),
(300,710,l),
(177,710,l),
(41,0,l)
);
}
);
width = 961;
}
);
unicode = 77;
},
{
glyphname = N;
kernLeft = H;
kernRight = H;
lastChange = "2022-08-03 02:37:12 +0000";
layers = (
{
anchors = (
{
name = bottom;
pos = (406,0);
},
{
name = top;
pos = (406,710);
}
);
layerId = m01;
shapes = (
{
closed = 1;
nodes = (
(714,0,l),
(714,710,l),
(620,710,l),
(620,53,l),
(686,53,l),
(204,710,l),
(98,710,l),
(98,0,l),
(192,0,l),
(192,677,l),
(134,647,l),
(610,0,l)
);
}
);
width = 812;
},
{
anchors = (
{
name = bottom;
pos = (403,0);
},
{
name = top;
pos = (403,710);
}
);
layerId = m002;
shapes = (
{
closed = 1;
nodes = (
(721,0,l),
(721,710,l),
(567,710,l),
(567,53,l),
(674,53,l),
(282,710,l),
(85,710,l),
(85,0,l),
(239,0,l),
(239,677,l),
(141,647,l),
(527,0,l)
);
}
);
width = 806;
},
{
anchors = (
{
name = bottom;
pos = (304,0);
},
{
name = top;
pos = (508,710);
}
);
layerId = m003;
shapes = (
{
closed = 1;
nodes = (
(612,0,l),
(816,710,l),
(719,710,l),
(530,53,l),
(580,53,l),
(313,710,l),
(200,710,l),
(-4,0,l),
(93,0,l),
(287,677,l),
(233,647,l),
(497,0,l)
);
}
);
width = 812;
},
{
anchors = (
{
name = bottom;
pos = (331,0);
},
{
name = top;
pos = (531,710);
}
);
layerId = m004;
shapes = (
{
closed = 1;
nodes = (
(649,0,l),
(849,710,l),
(691,710,l),
(506,53,l),
(610,53,l),
(403,710,l),
(213,710,l),
(13,0,l),
(171,0,l),
(362,677,l),
(258,647,l),
(462,0,l)
);
}
);
width = 810;
},
{
anchors = (
{
name = bottom;
pos = (418,0);
},
{
name = top;
pos = (418,710);
}
);
background = {
shapes = (
{
closed = 1;
nodes = (
(547,710,l),
(547,317,l),
(280,710,l),
(75,710,l),
(75,0,l),
(281,0,l),
(281,390,l),
(547,0,l),
(754,0,l),
(754,710,l)
);
}
);
};
layerId = m005;
shapes = (
{
closed = 1;
nodes = (
(766,0,l),
(766,710,l),
(556,710,l),
(556,53,l),
(689,123,l),
(297,710,l),
(70,710,l),
(70,0,l),
(280,0,l),
(280,677,l),
(156,587,l),
(542,0,l)
);
}
);
width = 836;
},
{
anchors = (
{
name = bottom;
pos = (342,0);
},
{
name = top;
pos = (342,710);
}
);
background = {
shapes = (
{
closed = 1;
nodes = (
(547,710,l),
(547,317,l),
(280,710,l),
(75,710,l),
(75,0,l),
(281,0,l),
(281,390,l),
(547,0,l),
(754,0,l),
(754,710,l)
);
}
);
};
layerId = "E9CDC47A-CC1A-45B5-BC95-53360E087AF1";
shapes = (
{
closed = 1;
nodes = (
(638,0,l),
(638,710,l),
(430,710,l),
(430,53,l),
(557,123,l),
(260,710,l),
(46,710,l),
(46,0,l),
(255,0,l),
(255,677,l),
(134,587,l),
(427,0,l)
);
}
);
width = 684;
}
);
metricLeft = H;
metricRight = H;
unicode = 78;
},
{
glyphname = O;
kernLeft = O;
kernRight = O;
lastChange = "2022-10-26 10:05:11 +0000";
layers = (
{
anchors = (
{
name = bottom;
pos = (404,0);
},
{
name = center;
pos = (404,355);
},
{
name = ogonek;
pos = (629,70);
},
{
name = top;
pos = (404,710);
},
{
name = topleft;
pos = (24,710);
},
{
name = topright;
pos = (624,710);
}
);
layerId = m01;
shapes = (
{
closed = 1;
nodes = (
(587,-12,o),
(744,113,o),
(744,355,cs),
(744,597,o),
(587,722,o),
(404,722,cs),
(221,722,o),
(64,597,o),
(64,355,cs),
(64,113,o),
(221,-12,o),
(404,-12,cs)
);
},
{
closed = 1;
nodes = (
(271,76,o),
(167,163,o),
(167,355,cs),
(167,547,o),
(271,634,o),
(404,634,cs),
(537,634,o),
(641,547,o),
(641,355,cs),
(641,163,o),
(537,76,o),
(404,76,cs)
);
}
);
width = 808;
},
{
anchors = (
{
name = bottom;
pos = (412,0);
},
{
name = center;
pos = (412,355);
},
{
name = ogonek;
pos = (647,70);
},
{
name = top;
pos = (412,710);
},
{
name = topleft;
pos = (30,710);
},
{
name = topright;
pos = (624,710);
}
);
layerId = m002;
shapes = (
{
closed = 1;
nodes = (
(619,-12,o),
(766,134,o),
(766,355,cs),
(766,576,o),
(619,722,o),
(412,722,cs),
(205,722,o),
(58,576,o),
(58,355,cs),
(58,134,o),
(205,-12,o),
(412,-12,cs)
);
},
{
closed = 1;
nodes = (
(306,126,o),
(231,189,o),
(231,355,cs),
(231,521,o),
(306,584,o),
(412,584,cs),
(518,584,o),
(593,521,o),
(593,355,cs),
(593,189,o),
(518,126,o),
(412,126,cs)
);
}
);
width = 824;
},
{
anchors = (
{
name = bottom;
pos = (341,2);
},
{
name = center;
pos = (440,355);
},
{
name = ogonek;
pos = (597,59);
},
{
name = top;
pos = (539,708);
},
{
name = topleft;
pos = (168,748);
},
{
name = topright;
pos = (724,710);
}
);
layerId = m003;
shapes = (
{
closed = 1;
nodes = (
(640,-12,o),
(792,239,o),
(792,445,cs),
(792,624,o),
(661,722,o),
(499,722,cs),
(240,722,o),
(88,470,o),
(88,264,cs),
(88,85,o),
(219,-12,o),
(381,-12,cs)
);
},
{
closed = 1;
nodes = (
(279,76,o),
(192,136,o),
(192,267,cs),
(192,406,o),
(283,634,o),
(488,634,cs),
(601,634,o),
(688,574,o),
(688,443,cs),
(688,304,o),
(597,76,o),
(392,76,cs)
);
}
);
width = 825;
},
{
anchors = (
{
name = bottom;
pos = (347,3);
},
{
name = center;
pos = (446,355);
},
{
name = ogonek;
pos = (595,40);
},
{
name = top;
pos = (545,707);
},
{
name = topleft;
pos = (174,760);
},
{
name = topright;
pos = (751,677);
}
);
layerId = m004;
shapes = (
{
closed = 1;
nodes = (
(226,-12,o),
(402,-12,cs),
(659,-12,o),
(812,228,o),
(812,427,cs),
(812,617,o),
(666,722,o),
(490,722,cs),
(233,722,o),
(80,482,o),
(80,283,cs),
(80,93,o)
);
},
{
closed = 1;
nodes = (
(254,165,o),
(254,276,cs),
(254,387,o),
(320,584,o),
(477,584,cs),
(562,584,o),
(638,545,o),
(638,434,cs),
(638,323,o),
(572,126,o),
(415,126,cs),
(330,126,o)
);
}
);
width = 841;
},
{
anchors = (
{
name = bottom;
pos = (412,0);
},
{
name = center;
pos = (412,355);
},
{
name = ogonek;
pos = (647,70);
},
{
name = top;
pos = (412,710);
},
{
name = topleft;
pos = (30,710);
},
{
name = topright;
pos = (624,710);
}
);
background = {
shapes = (
{
closed = 1;
nodes = (
(124,92,o),
(167,51,o),
(219,26,c),
(271,1,o),
(337,-12,o),
(418,-12,c),
(496,-12,o),
(562,2,o),
(614,32,c),
(667,61,o),
(708,103,o),
(735,156,c),
(763,209,o),
(777,277,o),
(777,360,c),
(777,474,o),
(745,562,o),
(681,625,c),
(617,688,o),
(526,721,o),
(408,721,c),
(293,721,o),
(204,688,o),
(140,624,c),
(76,559,o),
(43,470,o),
(43,354,c),
(43,271,o),
(59,202,o),
(92,147,c)
);
},
{
closed = 1;
nodes = (
(329,539,o),
(364,555,o),
(408,555,c),
(454,555,o),
(491,540,o),
(517,508,c),
(545,478,o),
(558,429,o),
(558,363,c),
(558,283,o),
(545,228,o),
(519,198,c),
(494,167,o),
(457,152,o),
(410,152,c),
(365,152,o),
(328,167,o),
(302,199,c),
(275,230,o),
(262,281,o),
(262,353,c),
(262,425,o),
(275,477,o),
(302,508,c)
);
}
);
};
layerId = m005;
shapes = (
{
closed = 1;
nodes = (
(655,-12,o),
(786,134,o),
(786,355,cs),
(786,576,o),
(655,722,o),
(412,722,cs),
(169,722,o),
(38,576,o),
(38,355,cs),
(38,134,o),
(169,-12,o),
(412,-12,cs)
);
},
{
closed = 1;
nodes = (
(325,162,o),
(271,218,o),
(271,355,cs),
(271,492,o),
(325,548,o),
(412,548,cs),
(499,548,o),
(553,492,o),
(553,355,cs),
(553,218,o),
(499,162,o),
(412,162,cs)
);
}
);
width = 824;
},
{
anchors = (
{
name = bottom;
pos = (330,0);
},
{
name = center;
pos = (330,355);
},
{
name = ogonek;
pos = (545,65);
},
{
name = top;
pos = (330,710);
},
{
name = topleft;
pos = (24,710);
},
{
name = topright;
pos = (499,710);
}
);
background = {
shapes = (
{
closed = 1;
nodes = (
(124,92,o),
(167,51,o),
(219,26,c),
(271,1,o),
(337,-12,o),
(418,-12,c),
(496,-12,o),
(562,2,o),
(614,32,c),
(667,61,o),
(708,103,o),
(735,156,c),
(763,209,o),
(777,277,o),
(777,360,c),
(777,474,o),
(745,562,o),
(681,625,c),
(617,688,o),
(526,721,o),
(408,721,c),
(293,721,o),
(204,688,o),
(140,624,c),
(76,559,o),
(43,470,o),
(43,354,c),
(43,271,o),
(59,202,o),
(92,147,c)
);
},
{
closed = 1;
nodes = (
(329,539,o),
(364,555,o),
(408,555,c),
(454,555,o),
(491,540,o),
(517,508,c),
(545,478,o),
(558,429,o),
(558,363,c),
(558,283,o),
(545,228,o),
(519,198,c),
(494,167,o),
(457,152,o),
(410,152,c),
(365,152,o),
(328,167,o),
(302,199,c),
(275,230,o),
(262,281,o),
(262,353,c),
(262,425,o),
(275,477,o),
(302,508,c)
);
}
);
};
layerId = "E9CDC47A-CC1A-45B5-BC95-53360E087AF1";
shapes = (
{
closed = 1;
nodes = (
(548,-12,o),
(643,134,o),
(643,355,cs),
(643,576,o),
(548,722,o),
(330,722,cs),
(113,722,o),
(18,576,o),
(18,355,cs),
(18,134,o),
(113,-12,o),
(330,-12,cs)
);
},
{
closed = 1;
nodes = (
(276,162,o),
(249,218,o),
(249,355,cs),
(249,492,o),
(276,548,o),
(330,548,cs),
(385,548,o),
(412,492,o),
(412,355,cs),
(412,218,o),
(385,162,o),
(330,162,cs)
);
}
);
width = 661;
}
);
unicode = 79;
},
{
glyphname = P;
kernLeft = H;
kernRight = P;
lastChange = "2022-10-27 01:27:57 +0000";
layers = (
{
anchors = (
{
name = bottom;
pos = (368,0);
},
{
name = top;
pos = (368,710);
}
);
layerId = m01;
shapes = (
{
closed = 1;
nodes = (
(198,0,l),
(198,686,l),
(144,626,l),
(454,626,ls),
(540,626,o),
(586,590,o),
(586,497,cs),
(586,404,o),
(542,364,o),
(458,364,cs),
(156,364,l),
(156,280,l),
(459,280,ls),
(600,280,o),
(687,367,o),
(687,497,cs),
(687,625,o),
(601,710,o),
(459,710,cs),
(98,710,l),
(98,0,l)
);
}
);
width = 735;
},
{
anchors = (
{
name = bottom;
pos = (367,0);
},
{
name = top;
pos = (367,710);
}
);
layerId = m002;
shapes = (
{
closed = 1;
nodes = (
(255,0,l),
(255,686,l),
(172,582,l),
(451,582,ls),
(504,582,o),
(533,558,o),
(533,496,cs),
(533,429,o),
(499,400,o),
(435,400,cs),
(190,400,l),
(190,272,l),
(466,272,ls),
(607,272,o),
(704,368,o),
(704,500,cs),
(704,626,o),
(612,710,o),
(476,710,cs),
(85,710,l),
(85,0,l)
);
}
);
width = 734;
},
{
anchors = (
{
name = bottom;
pos = (191,5);
},
{
name = top;
pos = (592,711);
}
);
background = {
shapes = (
{
closed = 0;
nodes = (
(551,627,ls),
(635,618,o),
(669,578,o),
(643,485,cs),
(617,393,o),
(563,358,o),
(481,366,cs)
);
},
{
closed = 0;
nodes = (
(459,283,ls),
(590,269,o),
(706,346,o),
(742,475,cs),
(778,602,o),
(712,696,o),
(579,710,cs)
);
}
);
};
layerId = m003;
shapes = (
{
closed = 1;
nodes = (
(124,0,l),
(321,686,l),
(249,626,l),
(545,626,ls),
(614,626,o),
(658,600,o),
(658,539,cs),
(658,460,o),
(613,364,o),
(500,364,cs),
(186,364,l),
(161,280,l),
(494,280,ls),
(666,280,o),
(760,424,o),
(760,541,cs),
(760,644,o),
(683,710,o),
(555,710,cs),
(227,710,l),
(23,0,l)
);
}
);
width = 737;
},
{
anchors = (
{
name = bottom;
pos = (399,0);
},
{
name = top;
pos = (399,710);
}
);
background = {
shapes = (
{
closed = 1;
nodes = (
(188,23,l),
(379,702,l),
(269,611,l),
(540,572,ls),
(592,565,o),
(613,536,o),
(595,472,cs),
(577,408,o),
(543,384,o),
(493,391,cs),
(236,428,l),
(200,301,l),
(488,260,ls),
(613,242,o),
(726,324,o),
(762,453,cs),
(798,579,o),
(736,676,o),
(610,694,cs),
(220,750,l),
(23,47,l)
);
}
);
};
layerId = m004;
shapes = (
{
closed = 1;
nodes = (
(187,0,l),
(380,686,l),
(268,582,l),
(544,582,ls),
(589,582,o),
(613,564,o),
(613,521,cs),
(613,471,o),
(582,400,o),
(516,400,cs),
(235,400,l),
(199,272,l),
(520,272,ls),
(690,272,o),
(786,405,o),
(786,522,cs),
(786,637,o),
(702,710,o),
(558,710,cs),
(213,710,l),
(13,0,l)
);
}
);
width = 761;
},
{
anchors = (
{
name = bottom;
pos = (445,0);
},
{
name = top;
pos = (445,710);
}
);
background = {
shapes = (
{
closed = 1;
nodes = (
(78,0,l),
(298,0,l),
(298,263,l),
(418,263,l),
(506,263,o),
(572,283,o),
(615,323,c),
(658,364,o),
(679,420,o),
(679,491,c),
(679,561,o),
(660,614,o),
(620,652,c),
(581,690,o),
(521,709,o),
(442,709,c),
(78,709,l)
);
},
{
closed = 1;
nodes = (
(298,565,l),
(360,565,l),
(401,565,o),
(429,557,o),
(444,541,c),
(459,526,o),
(466,507,o),
(466,485,c),
(466,462,o),
(458,443,o),
(440,428,c),
(423,414,o),
(394,406,o),
(352,406,c),
(298,406,l)
);
}
);
};
layerId = m005;
shapes = (
{
closed = 1;
nodes = (
(300,0,l),
(300,686,l),
(217,548,l),
(416,548,ls),
(466,548,o),
(493,526,o),
(493,485,cs),
(493,440,o),
(464,414,o),
(410,414,cs),
(235,414,l),
(235,252,l),
(426,252,ls),
(602,252,o),
(724,341,o),
(724,497,cs),
(724,640,o),
(628,710,o),
(482,710,cs),
(70,710,l),
(70,0,l)
);
}
);
width = 749;
},
{
anchors = (
{
name = bottom;
pos = (304,0);
},
{
name = top;
pos = (304,710);
}
);
background = {
shapes = (
{
closed = 1;
nodes = (
(78,0,l),
(298,0,l),
(298,263,l),
(418,263,l),
(506,263,o),
(572,283,o),
(615,323,c),
(658,364,o),
(679,420,o),
(679,491,c),
(679,561,o),
(660,614,o),
(620,652,c),
(581,690,o),
(521,709,o),
(442,709,c),
(78,709,l)
);
},
{
closed = 1;
nodes = (
(298,565,l),
(360,565,l),
(401,565,o),
(429,557,o),
(444,541,c),
(459,526,o),
(466,507,o),
(466,485,c),
(466,462,o),
(458,443,o),
(440,428,c),
(423,414,o),
(394,406,o),
(352,406,c),
(298,406,l)
);
}
);
};
layerId = "E9CDC47A-CC1A-45B5-BC95-53360E087AF1";
shapes = (
{
closed = 1;
nodes = (
(275,0,l),
(275,686,l),
(203,548,l),
(314,548,ls),
(346,548,o),
(364,526,o),
(364,485,cs),
(364,440,o),
(342,414,o),
(304,414,cs),
(218,414,l),
(218,252,l),
(314,252,ls),
(478,252,o),
(593,341,o),
(593,497,cs),
(593,640,o),
(513,710,o),
(389,710,cs),
(46,710,l),
(46,0,l)
);
}
);
width = 607;
}
);
metricLeft = H;
unicode = 80;
},
{
glyphname = Q;
kernLeft = O;
kernRight = O;
lastChange = "2022-10-27 01:25:50 +0000";
layers = (
{
anchors = (
{
name = bottom;
pos = (408,0);
},
{
name = top;
pos = (408,710);
}
);
layerId = m003;
shapes = (
{
ref = O;
},
{
closed = 1;
nodes = (
(605,-111,l),
(515,-98,o),
(514,-25,o),
(513,52,cs),
(511,141,o),
(511,235,o),
(378,254,c),
(345,176,l),
(431,164,o),
(433,93,o),
(434,16,cs),
(436,-73,o),
(438,-169,o),
(573,-188,c)
);
}
);
width = 825;
},
{
anchors = (
{
name = bottom;
pos = (336,0);
},
{
name = top;
pos = (540,710);
}
);
layerId = m004;
shapes = (
{
ref = O;
},
{
closed = 1;
nodes = (
(643,-121,l),
(643,-32,o),
(538,262,o),
(426,312,c),
(358,216,l),
(459,162,o),
(518,-109,o),
(480,-157,c)
);
}
);
width = 841;
},
{
anchors = (
{
name = bottom;
pos = (408,0);
},
{
name = top;
pos = (408,710);
}
);
associatedMasterId = m003;
layerId = "D1889E09-64E9-4A41-AE4E-754A5D372F55";
name = "16 Feb 22, 14:37";
shapes = (
{
ref = O;
},
{
closed = 1;
nodes = (
(661,-120,l),
(493,238,l),
(393,238,l),
(561,-120,l)
);
}
);
width = 816;
},
{
anchors = (
{
name = bottom;
pos = (412,0);
},
{
name = top;
pos = (412,710);
}
);
layerId = m005;
shapes = (
{
ref = O;
},
{
closed = 1;
nodes = (
(750,-118,l),
(639,-73,o),
(564,-6,o),
(558,80,c),
(349,80,l),
(359,-19,o),
(413,-107,o),
(521,-159,c)
);
}
);
width = 824;
},
{
anchors = (
{
name = bottom;
pos = (412,0);
},
{
name = top;
pos = (412,710);
}
);
associatedMasterId = m002;
layerId = "EB45F72A-359E-43D3-AEDE-9BDD9B2BD3EA";
name = "24 Jul 22, 13:45";
shapes = (
{
ref = O;
},
{
closed = 1;
nodes = (
(714,-140,l),
(468,288,l),
(334,288,l),
(574,-140,l)
);
}
);
width = 824;
},
{
anchors = (
{
name = bottom;
pos = (412,0);
},
{
name = top;
pos = (412,710);
}
);
associatedMasterId = m002;
layerId = "6E2E5959-B300-480D-BFBB-94FC301287B2";
name = "24 Jul 22, 13:45";
shapes = (
{
ref = O;
},
{
closed = 1;
nodes = (
(749,-54,l),
(654,-54,o),
(623,11,o),
(601,88,cs),
(572,183,o),
(537,286,o),
(401,288,c),
(355,172,l),
(443,171,o),
(473,91,o),
(498,7,cs),
(525,-81,o),
(563,-169,o),
(704,-169,c)
);
}
);
width = 824;
},
{
anchors = (
{
name = bottom;
pos = (412,0);
},
{
name = top;
pos = (412,710);
}
);
layerId = m002;
name = Bold;
shapes = (
{
closed = 1;
nodes = (
(597,-114,o),
(552,-35,o),
(476,260,c),
(355,260,l),
(432,-31,o),
(461,-98,o),
(494,-127,c),
(639,-133,l)
);
},
{
ref = O;
}
);
width = 824;
},
{
anchors = (
{
name = bottom;
pos = (412,0);
},
{
name = top;
pos = (412,710);
}
);
associatedMasterId = m002;
layerId = "8C949EF1-2DEC-4163-AA3D-CC0AB6BA8AE9";
name = "24 Jul 22, 13:48";
shapes = (
{
ref = O;
},
{
closed = 1;
nodes = (
(598,-173,l),
(475,263,l),
(354,263,l),
(411,25,l),
(483,-143,l)
);
}
);
width = 824;
},
{
anchors = (
{
name = bottom;
pos = (336,0);
},
{
name = top;
pos = (540,710);
}
);
associatedMasterId = m004;
layerId = "4515CB69-5894-404B-AA5A-E2E7969B76E1";
name = "24 Jul 22, 13:50";
shapes = (
{
ref = O;
},
{
closed = 1;
nodes = (
(666,-78,l),
(571,-65,o),
(559,3,o),
(558,80,cs),
(556,177,o),
(550,281,o),
(416,302,c),
(338,196,l),
(425,183,o),
(433,101,o),
(434,16,cs),
(436,-73,o),
(449,-164,o),
(589,-183,c)
);
}
);
width = 841;
},
{
anchors = (
{
name = bottom;
pos = (330,0);
},
{
name = top;
pos = (330,710);
}
);
layerId = "E9CDC47A-CC1A-45B5-BC95-53360E087AF1";
name = Black;
shapes = (
{
ref = O;
},
{
closed = 1;
nodes = (
(581,-118,l),
(491,-73,o),
(430,-6,o),
(423,80,c),
(230,80,l),
(236,-19,o),
(278,-107,o),
(361,-159,c)
);
}
);
width = 661;
},
{
anchors = (
{
name = bottom;
pos = (408,0);
},
{
name = top;
pos = (408,710);
}
);
associatedMasterId = m01;
layerId = "E72B3128-9B38-4B3D-855D-FE2BDCF9DB06";
name = "27 Oct 22, 12:24";
shapes = (
{
ref = O;
},
{
closed = 1;
nodes = (
(705,-87,l),
(612,-87,o),
(591,-16,o),
(568,59,cs),
(542,145,o),
(515,236,o),
(378,236,c),
(367,156,l),
(456,156,o),
(478,87,o),
(500,13,cs),
(527,-73,o),
(555,-166,o),
(695,-166,c)
);
}
);
width = 808;
},
{
anchors = (
{
name = bottom;
pos = (408,0);
},
{
name = top;
pos = (408,710);
}
);
layerId = m01;
name = Regular;
shapes = (
{
ref = O;
},
{
closed = 1;
nodes = (
(720,-160,l),
(426,296,l),
(323,296,l),
(617,-160,l)
);
}
);
width = 816;
}
);
metricLeft = O;
metricRight = O;
unicode = 81;
},
{
glyphname = R;
kernLeft = H;
kernRight = R;
lastChange = "2022-10-27 01:29:32 +0000";
layers = (
{
anchors = (
{
name = bottom;
pos = (369,0);
},
{
name = top;
pos = (369,710);
}
);
background = {
shapes = (
{
ref = P;
}
);
};
layerId = m01;
shapes = (
{
closed = 1;
nodes = (
(198,0,l),
(198,686,l),
(144,626,l),
(439,626,ls),
(525,626,o),
(571,592,o),
(571,507,cs),
(571,423,o),
(527,386,o),
(443,386,cs),
(156,386,l),
(156,304,l),
(401,304,l),
(408,319,l),
(445,319,ls),
(582,319,o),
(672,391,o),
(672,518,cs),
(672,639,o),
(587,710,o),
(454,710,cs),
(98,710,l),
(98,0,l)
);
},
{
closed = 1;
nodes = (
(724,0,l),
(659,108,ls),
(565,265,o),
(470,354,o),
(302,355,c),
(277,304,l),
(399,304,o),
(458,257,o),
(551,89,cs),
(600,0,l)
);
}
);
width = 747;
},
{
anchors = (
{
name = bottom;
pos = (372,0);
},
{
name = top;
pos = (372,710);
}
);
background = {
shapes = (
{
ref = P;
}
);
};
layerId = m002;
shapes = (
{
closed = 1;
nodes = (
(255,0,l),
(255,686,l),
(131,582,l),
(442,582,ls),
(495,582,o),
(525,557,o),
(525,494,cs),
(525,425,o),
(487,394,o),
(418,394,cs),
(143,394,l),
(143,269,l),
(401,269,l),
(449,301,l),
(596,301,o),
(697,376,o),
(697,514,cs),
(697,625,o),
(615,710,o),
(477,710,cs),
(85,710,l),
(85,0,l)
);
},
{
closed = 1;
nodes = (
(726,0,l),
(698,63,ls),
(593,299,o),
(471,331,o),
(284,331,c),
(284,269,l),
(372,269,o),
(425,256,o),
(480,105,cs),
(518,0,l)
);
}
);
width = 742;
},
{
anchors = (
{
name = bottom;
pos = (307,0);
},
{
name = top;
pos = (511,710);
}
);
background = {
shapes = (
{
closed = 1;
nodes = (
(129,28,l),
(321,710,l),
(252,656,l),
(540,626,ls),
(624,617,o),
(659,578,o),
(635,493,cs),
(612,410,o),
(559,378,o),
(477,386,cs),
(197,416,l),
(174,335,l),
(450,305,l),
(464,317,l),
(595,303,o),
(701,366,o),
(737,494,cs),
(771,614,o),
(708,694,o),
(578,708,cs),
(231,745,l),
(32,39,l)
);
},
{
closed = 1;
nodes = (
(623,-25,l),
(572,154,ls),
(537,273,o),
(470,354,o),
(336,370,c),
(282,323,l),
(385,312,o),
(432,270,o),
(454,182,cs),
(502,-12,l)
);
}
);
};
layerId = m003;
shapes = (
{
closed = 1;
nodes = (
(124,0,l),
(321,686,l),
(249,626,l),
(532,626,ls),
(606,626,o),
(650,599,o),
(650,537,cs),
(650,474,o),
(612,386,o),
(498,386,cs),
(192,386,l),
(168,304,l),
(451,304,l),
(482,318,l),
(674,318,o),
(752,429,o),
(752,543,cs),
(752,650,o),
(678,710,o),
(539,710,cs),
(227,710,l),
(23,0,l)
);
},
{
closed = 1;
nodes = (
(657,0,l),
(662,19,l),
(613,33,o),
(591,55,o),
(594,107,cs),
(596,147,ls),
(603,294,o),
(529,356,o),
(380,356,c),
(373,304,l),
(465,304,o),
(506,269,o),
(498,172,cs),
(492,103,ls),
(488,55,o),
(493,21,o),
(534,0,c)
);
}
);
width = 750;
},
{
anchors = (
{
name = bottom;
pos = (403,0);
},
{
name = top;
pos = (403,710);
}
);
background = {
shapes = (
{
pos = (31,0);
ref = P;
},
{
closed = 1;
nodes = (
(192,24,l),
(383,704,l),
(233,618,l),
(537,574,ls),
(588,567,o),
(608,537,o),
(590,471,cs),
(571,406,o),
(537,381,o),
(489,388,cs),
(193,430,l),
(158,306,l),
(408,270,l),
(481,287,l),
(612,268,o),
(725,333,o),
(762,467,cs),
(794,580,o),
(743,677,o),
(616,695,cs),
(224,751,l),
(27,48,l)
);
},
{
closed = 1;
nodes = (
(649,-41,l),
(620,113,ls),
(590,268,o),
(483,324,o),
(331,345,c),
(314,284,l),
(380,274,o),
(419,255,o),
(426,190,cs),
(447,-12,l)
);
}
);
};
layerId = m004;
shapes = (
{
closed = 1;
nodes = (
(186,0,l),
(379,686,l),
(226,582,l),
(536,582,ls),
(578,582,o),
(600,562,o),
(600,513,cs),
(600,473,o),
(574,394,o),
(503,394,cs),
(185,394,l),
(150,269,l),
(408,269,l),
(502,295,l),
(667,295,o),
(780,412,o),
(780,526,cs),
(780,634,o),
(712,710,o),
(580,710,cs),
(213,710,l),
(13,0,l)
);
},
{
closed = 1;
nodes = (
(472,50,o),
(477,16,o),
(497,-1,c),
(689,0,l),
(696,27,l),
(661,35,o),
(649,64,o),
(651,113,cs),
(652,144,ls),
(655,252,o),
(543,331,o),
(398,331,c),
(361,269,l),
(443,269,o),
(500,224,o),
(484,125,cs),
(479,94,ls)
);
}
);
width = 770;
},
{
anchors = (
{
name = bottom;
pos = (377,0);
},
{
name = top;
pos = (377,710);
}
);
background = {
shapes = (
{
ref = P;
}
);
};
layerId = m005;
shapes = (
{
closed = 1;
nodes = (
(300,0,l),
(300,686,l),
(136,552,l),
(419,552,ls),
(470,552,o),
(498,531,o),
(498,486,cs),
(498,441,o),
(472,418,o),
(423,418,cs),
(148,418,l),
(148,269,l),
(406,269,l),
(474,302,l),
(624,302,o),
(728,378,o),
(728,509,cs),
(728,623,o),
(641,710,o),
(494,710,cs),
(70,710,l),
(70,0,l)
);
},
{
closed = 1;
nodes = (
(781,0,l),
(753,59,ls),
(640,298,o),
(514,331,o),
(309,331,c),
(309,269,l),
(375,269,o),
(422,238,o),
(487,68,cs),
(513,0,l)
);
}
);
width = 776;
},
{
anchors = (
{
name = bottom;
pos = (305,0);
},
{
name = top;
pos = (305,710);
}
);
background = {
shapes = (
{
ref = P;
}
);
};
layerId = "E9CDC47A-CC1A-45B5-BC95-53360E087AF1";
shapes = (
{
closed = 1;
nodes = (
(275,0,l),
(275,686,l),
(110,552,l),
(323,552,ls),
(357,552,o),
(376,531,o),
(376,486,cs),
(376,442,o),
(359,418,o),
(326,418,cs),
(119,418,l),
(119,269,l),
(321,269,l),
(386,302,l),
(514,302,o),
(604,378,o),
(604,509,cs),
(604,623,o),
(530,710,o),
(404,710,cs),
(46,710,l),
(46,0,l)
);
},
{
closed = 1;
nodes = (
(640,0,l),
(626,61,ls),
(568,314,o),
(436,331,o),
(250,331,c),
(257,269,l),
(296,269,o),
(345,251,o),
(369,73,cs),
(379,0,l)
);
}
);
width = 640;
},
{
anchors = (
{
name = bottom;
pos = (369,0);
},
{
name = top;
pos = (369,710);
}
);
associatedMasterId = m01;
background = {
shapes = (
{
ref = P;
}
);
};
layerId = "CC4B2D25-8522-4570-A9BC-63153D9FC2DA";
name = "27 Oct 22, 12:28";
shapes = (
{
closed = 1;
nodes = (
(198,0,l),
(198,686,l),
(144,626,l),
(439,626,ls),
(525,626,o),
(571,592,o),
(571,507,cs),
(571,423,o),
(527,386,o),
(443,386,cs),
(156,386,l),
(156,304,l),
(439,304,l),
(450,317,l),
(584,317,o),
(672,390,o),
(672,518,cs),
(672,639,o),
(587,710,o),
(454,710,cs),
(98,710,l),
(98,0,l)
);
},
{
closed = 1;
nodes = (
(704,0,l),
(603,169,ls),
(535,282,o),
(445,354,o),
(308,355,c),
(267,304,l),
(373,304,o),
(431,268,o),
(478,184,cs),
(580,0,l)
);
}
);
width = 737;
}
);
metricLeft = H;
unicode = 82;
},
{
glyphname = S;
kernLeft = S;
kernRight = S;
lastChange = "2022-10-26 10:13:32 +0000";
layers = (
{
anchors = (
{
name = bottom;
pos = (351,0);
},
{
name = top;
pos = (351,710);
}
);
layerId = m01;
shapes = (
{
closed = 1;
nodes = (
(531,-12,o),
(651,77,o),
(651,220,cs),
(651,334,o),
(565,393,o),
(449,411,cs),
(298,435,ls),
(216,448,o),
(178,476,o),
(178,533,cs),
(178,593,o),
(227,637,o),
(357,637,cs),
(446,637,o),
(519,596,o),
(531,525,c),
(630,549,l),
(598,664,o),
(497,722,o),
(357,722,cs),
(162,722,o),
(79,627,o),
(79,524,cs),
(79,432,o),
(147,366,o),
(273,346,cs),
(434,321,ls),
(515,308,o),
(551,273,o),
(551,209,cs),
(551,130,o),
(480,73,o),
(357,73,cs),
(247,73,o),
(164,106,o),
(153,219,c),
(53,193,l),
(69,46,o),
(203,-12,o),
(357,-12,cs)
);
}
);
width = 701;
},
{
anchors = (
{
name = bottom;
pos = (338,0);
},
{
name = top;
pos = (338,710);
}
);
layerId = m002;
shapes = (
{
closed = 1;
nodes = (
(510,-12,o),
(637,81,o),
(637,233,cs),
(637,339,o),
(577,402,o),
(450,431,cs),
(300,465,ls),
(242,478,o),
(218,501,o),
(218,533,cs),
(218,571,o),
(257,597,o),
(338,597,cs),
(405,597,o),
(452,572,o),
(461,523,c),
(621,559,l),
(601,662,o),
(501,722,o),
(338,722,cs),
(146,722,o),
(51,624,o),
(51,513,cs),
(51,421,o),
(111,354,o),
(235,326,cs),
(390,291,ls),
(443,279,o),
(471,256,o),
(471,209,cs),
(471,152,o),
(417,113,o),
(338,113,cs),
(252,113,o),
(201,133,o),
(194,213,c),
(30,185,l),
(41,46,o),
(169,-12,o),
(338,-12,cs)
);
}
);
width = 675;
},
{
anchors = (
{
name = bottom;
pos = (282,2);
},
{
name = top;
pos = (430,708);
}
);
layerId = m003;
shapes = (
{
closed = 1;
nodes = (
(479,-12,o),
(626,97,o),
(626,238,cs),
(626,321,o),
(567,372,o),
(473,399,cs),
(333,439,ls),
(270,457,o),
(241,482,o),
(241,522,cs),
(241,596,o),
(315,637,o),
(408,637,cs),
(498,637,o),
(560,606,o),
(570,535,c),
(682,556,l),
(640,681,o),
(549,722,o),
(419,722,cs),
(265,722,o),
(139,634,o),
(139,511,cs),
(139,441,o),
(192,386,o),
(289,358,cs),
(437,315,ls),
(497,298,o),
(523,269,o),
(523,226,cs),
(523,137,o),
(429,73,o),
(330,73,cs),
(224,73,o),
(137,110,o),
(143,222,c),
(36,193,l),
(38,40,o),
(197,-12,o),
(323,-12,cs)
);
}
);
width = 680;
},
{
anchors = (
{
name = bottom;
pos = (290,0);
},
{
name = top;
pos = (494,710);
}
);
layerId = m004;
shapes = (
{
closed = 1;
nodes = (
(515,-12,o),
(626,126,o),
(626,249,cs),
(626,326,o),
(574,384,o),
(492,416,cs),
(361,467,ls),
(318,484,o),
(300,504,o),
(300,529,cs),
(300,569,o),
(333,596,o),
(392,596,cs),
(460,596,o),
(519,572,o),
(529,524,c),
(694,570,l),
(658,679,o),
(540,722,o),
(398,722,cs),
(254,722,o),
(125,632,o),
(125,503,cs),
(125,437,o),
(167,374,o),
(259,338,cs),
(395,285,ls),
(432,271,o),
(451,250,o),
(451,220,cs),
(451,157,o),
(395,113,o),
(328,113,cs),
(231,113,o),
(187,158,o),
(187,235,c),
(12,194,l),
(33,55,o),
(158,-12,o),
(327,-12,cs)
);
}
);
width = 669;
},
{
anchors = (
{
name = bottom;
pos = (368,0);
},
{
name = top;
pos = (368,710);
}
);
layerId = m005;
shapes = (
{
closed = 1;
nodes = (
(569,-12,o),
(690,81,o),
(690,233,cs),
(690,349,o),
(615,417,o),
(424,459,cs),
(336,478,ls),
(285,489,o),
(261,503,o),
(261,532,cs),
(261,561,o),
(291,580,o),
(354,580,cs),
(414,580,o),
(453,558,o),
(462,513,c),
(679,559,l),
(642,667,o),
(526,722,o),
(356,722,cs),
(127,722,o),
(43,624,o),
(43,513,cs),
(43,403,o),
(114,339,o),
(291,296,cs),
(380,275,ls),
(442,260,o),
(468,242,o),
(468,208,cs),
(468,168,o),
(438,141,o),
(370,141,cs),
(297,141,o),
(257,171,o),
(253,252,c),
(25,213,l),
(50,47,o),
(205,-12,o),
(366,-12,cs)
);
}
);
width = 720;
},
{
anchors = (
{
name = bottom;
pos = (338,0);
},
{
name = top;
pos = (338,710);
}
);
associatedMasterId = m002;
layerId = "B1136E00-A41F-4113-92B2-628EA327484C";
name = "23 Jul 22, 18:39";
shapes = (
{
closed = 1;
nodes = (
(512,-12,o),
(633,81,o),
(633,233,cs),
(633,339,o),
(558,405,o),
(446,431,cs),
(301,465,ls),
(244,478,o),
(221,501,o),
(221,533,cs),
(221,571,o),
(257,597,o),
(331,597,cs),
(393,597,o),
(435,569,o),
(444,513,c),
(612,549,l),
(580,664,o),
(480,722,o),
(333,722,cs),
(145,722,o),
(52,624,o),
(52,513,cs),
(52,429,o),
(112,355,o),
(236,326,cs),
(386,291,ls),
(437,279,o),
(463,256,o),
(463,209,cs),
(463,152,o),
(417,113,o),
(342,113,cs),
(266,113,o),
(213,138,o),
(206,235,c),
(35,193,l),
(57,42,o),
(196,-12,o),
(341,-12,cs)
);
}
);
width = 675;
},
{
anchors = (
{
name = bottom;
pos = (308,0);
},
{
name = top;
pos = (308,710);
}
);
layerId = "E9CDC47A-CC1A-45B5-BC95-53360E087AF1";
shapes = (
{
closed = 1;
nodes = (
(481,-12,o),
(581,81,o),
(581,233,cs),
(581,349,o),
(521,410,o),
(330,466,cs),
(289,478,ls),
(258,487,o),
(239,501,o),
(239,532,cs),
(239,561,o),
(259,580,o),
(293,580,cs),
(333,580,o),
(359,558,o),
(365,513,c),
(577,559,l),
(545,667,o),
(442,722,o),
(295,722,cs),
(104,722,o),
(26,623,o),
(26,509,cs),
(26,402,o),
(89,343,o),
(254,289,cs),
(294,276,ls),
(344,260,o),
(363,241,o),
(363,208,cs),
(363,168,o),
(345,141,o),
(307,141,cs),
(259,141,o),
(236,172,o),
(236,252,c),
(11,213,l),
(32,47,o),
(149,-12,o),
(300,-12,cs)
);
}
);
width = 595;
},
{
anchors = (
{
name = bottom;
pos = (351,0);
},
{
name = top;
pos = (351,710);
}
);
associatedMasterId = m01;
layerId = "4D869DAD-31C9-44E3-BE6C-5CF3BC32023C";
name = "26 Oct 22, 21:12";
shapes = (
{
closed = 1;
nodes = (
(525,-12,o),
(641,77,o),
(641,220,cs),
(641,334,o),
(551,393,o),
(439,411,cs),
(289,435,ls),
(207,448,o),
(169,476,o),
(169,533,cs),
(169,595,o),
(226,637,o),
(343,637,cs),
(440,637,o),
(508,596,o),
(519,519,c),
(620,549,l),
(589,664,o),
(491,722,o),
(345,722,cs),
(161,722,o),
(70,629,o),
(70,525,cs),
(70,436,o),
(138,366,o),
(264,346,cs),
(424,321,ls),
(505,308,o),
(541,273,o),
(541,209,cs),
(541,130,o),
(474,73,o),
(362,73,cs),
(246,73,o),
(171,102,o),
(154,223,c),
(53,193,l),
(76,42,o),
(215,-12,o),
(361,-12,cs)
);
}
);
width = 701;
}
);
unicode = 83;
},
{
glyphname = T;
kernLeft = T;
kernRight = T;
lastChange = "2022-08-03 02:37:12 +0000";
layers = (
{
anchors = (
{
name = bottom;
pos = (323,0);
},
{
name = center;
pos = (323,355);
},
{
name = top;
pos = (323,710);
}
);
layerId = m01;
shapes = (
{
closed = 1;
nodes = (
(373,0,l),
(373,663,l),
(273,663,l),
(273,0,l)
);
},
{
closed = 1;
nodes = (
(633,621,l),
(633,710,l),
(13,710,l),
(13,621,l)
);
}
);
width = 646;
},
{
anchors = (
{
name = bottom;
pos = (350,0);
},
{
name = center;
pos = (350,355);
},
{
name = top;
pos = (350,710);
}
);
layerId = m002;
shapes = (
{
closed = 1;
nodes = (
(435,0,l),
(435,663,l),
(265,663,l),
(265,0,l)
);
},
{
closed = 1;
nodes = (
(680,576,l),
(680,710,l),
(20,710,l),
(20,576,l)
);
}
);
width = 700;
},
{
anchors = (
{
name = bottom;
pos = (253,0);
},
{
name = center;
pos = (355,355);
},
{
name = top;
pos = (457,710);
}
);
layerId = m003;
shapes = (
{
closed = 1;
nodes = (
(300,0,l),
(490,663,l),
(389,663,l),
(199,0,l)
);
},
{
closed = 1;
nodes = (
(737,621,l),
(763,710,l),
(142,710,l),
(116,621,l)
);
}
);
width = 646;
},
{
anchors = (
{
name = bottom;
pos = (258,0);
},
{
name = center;
pos = (358,355);
},
{
name = top;
pos = (458,710);
}
);
layerId = m004;
shapes = (
{
closed = 1;
nodes = (
(345,0,l),
(532,663,l),
(358,663,l),
(171,0,l)
);
},
{
closed = 1;
nodes = (
(730,576,l),
(768,710,l),
(148,710,l),
(110,576,l)
);
}
);
width = 661;
},
{
anchors = (
{
name = bottom;
pos = (350,0);
},
{
name = center;
pos = (350,355);
},
{
name = top;
pos = (350,710);
}
);
layerId = m005;
shapes = (
{
closed = 1;
nodes = (
(465,0,l),
(465,663,l),
(235,663,l),
(235,0,l)
);
},
{
closed = 1;
nodes = (
(680,528,l),
(680,710,l),
(20,710,l),
(20,528,l)
);
}
);
width = 700;
},
{
anchors = (
{
name = bottom;
pos = (292,0);
},
{
name = center;
pos = (292,355);
},
{
name = top;
pos = (292,710);
}
);
layerId = "E9CDC47A-CC1A-45B5-BC95-53360E087AF1";
shapes = (
{
closed = 1;
nodes = (
(406,0,l),
(406,663,l),
(177,663,l),
(177,0,l)
);
},
{
closed = 1;
nodes = (
(566,528,l),
(566,710,l),
(17,710,l),
(17,528,l)
);
}
);
width = 583;
}
);
unicode = 84;
},
{
glyphname = U;
kernLeft = U;
kernRight = U;
lastChange = "2022-08-03 02:37:12 +0000";
layers = (
{
anchors = (
{
name = bottom;
pos = (391,0);
},
{
name = ogonek;
pos = (616,62);
},
{
name = top;
pos = (391,710);
},
{
name = topright;
pos = (689,710);
}
);
layerId = m01;
shapes = (
{
closed = 1;
nodes = (
(570,-12,o),
(689,71,o),
(689,210,cs),
(689,710,l),
(589,710,l),
(589,214,ls),
(589,125,o),
(520,75,o),
(391,75,cs),
(262,75,o),
(193,125,o),
(193,214,cs),
(193,710,l),
(93,710,l),
(93,210,ls),
(93,71,o),
(212,-12,o),
(391,-12,cs)
);
}
);
width = 782;
},
{
anchors = (
{
name = bottom;
pos = (396,0);
},
{
name = ogonek;
pos = (641,61);
},
{
name = top;
pos = (396,710);
},
{
name = topright;
pos = (712,710);
}
);
layerId = m002;
shapes = (
{
closed = 1;
nodes = (
(595,-12,o),
(712,67,o),
(712,200,cs),
(712,710,l),
(542,710,l),
(542,219,ls),
(542,156,o),
(489,126,o),
(396,126,cs),
(303,126,o),
(250,156,o),
(250,219,cs),
(250,710,l),
(80,710,l),
(80,200,ls),
(80,67,o),
(197,-12,o),
(396,-12,cs)
);
}
);
width = 792;
},
{
anchors = (
{
name = bottom;
pos = (322,2);
},
{
name = ogonek;
pos = (559,40);
},
{
name = top;
pos = (521,708);
},
{
name = topright;
pos = (820,710);
}
);
layerId = m003;
shapes = (
{
closed = 1;
nodes = (
(519,-12,o),
(639,64,o),
(679,207,cs),
(821,710,l),
(720,710,l),
(582,221,ls),
(555,127,o),
(483,76,o),
(376,76,cs),
(252,76,o),
(159,129,o),
(195,256,cs),
(323,710,l),
(222,710,l),
(95,263,ls),
(45,86,o),
(186,-12,o),
(368,-12,cs)
);
}
);
width = 787;
},
{
anchors = (
{
name = bottom;
pos = (329,3);
},
{
name = ogonek;
pos = (584,30);
},
{
name = top;
pos = (527,706);
},
{
name = topright;
pos = (834,663);
}
);
layerId = m004;
shapes = (
{
closed = 1;
nodes = (
(550,-12,o),
(662,55,o),
(703,202,cs),
(847,710,l),
(675,710,l),
(539,230,ls),
(519,158,o),
(468,127,o),
(388,127,cs),
(310,127,o),
(226,162,o),
(254,262,cs),
(380,710,l),
(208,710,l),
(88,283,ls),
(30,75,o),
(193,-12,o),
(386,-12,cs)
);
}
);
width = 801;
},
{
anchors = (
{
name = bottom;
pos = (410,0);
},
{
name = ogonek;
pos = (655,61);
},
{
name = top;
pos = (410,710);
},
{
name = topright;
pos = (756,710);
}
);
layerId = m005;
shapes = (
{
closed = 1;
nodes = (
(638,-12,o),
(756,88,o),
(756,240,cs),
(756,710,l),
(526,710,l),
(526,253,ls),
(526,197,o),
(484,170,o),
(410,170,cs),
(336,170,o),
(294,197,o),
(294,253,cs),
(294,710,l),
(64,710,l),
(64,240,ls),
(64,88,o),
(182,-12,o),
(410,-12,cs)
);
}
);
width = 820;
},
{
anchors = (
{
name = bottom;
pos = (336,0);
},
{
name = ogonek;
pos = (536,61);
},
{
name = top;
pos = (336,710);
},
{
name = topright;
pos = (632,710);
}
);
layerId = "E9CDC47A-CC1A-45B5-BC95-53360E087AF1";
shapes = (
{
closed = 1;
nodes = (
(537,-12,o),
(632,88,o),
(632,240,cs),
(632,710,l),
(404,710,l),
(404,253,ls),
(404,197,o),
(378,170,o),
(336,170,cs),
(294,170,o),
(269,197,o),
(269,253,cs),
(269,710,l),
(40,710,l),
(40,240,ls),
(40,88,o),
(135,-12,o),
(336,-12,cs)
);
}
);
width = 672;
}
);
unicode = 85;
},
{
glyphname = V;
kernLeft = V;
kernRight = V;
lastChange = "2022-08-03 02:37:12 +0000";
layers = (
{
anchors = (
{
name = bottom;
pos = (333,0);
},
{
name = top;
pos = (333,710);
}
);
guides = (
{
pos = (-68,412);
showMeasurement = 1;
}
);
layerId = m01;
shapes = (
{
closed = 1;
nodes = (
(382,0,l),
(657,710,l),
(551,710,l),
(308,62,l),
(362,62,l),
(119,710,l),
(8,710,l),
(283,0,l)
);
}
);
width = 665;
},
{
anchors = (
{
name = bottom;
pos = (360,0);
},
{
name = top;
pos = (360,710);
}
);
layerId = m002;
shapes = (
{
closed = 1;
nodes = (
(449,0,l),
(714,710,l),
(552,710,l),
(319,62,l),
(415,62,l),
(182,710,l),
(5,710,l),
(270,0,l)
);
}
);
width = 719;
},
{
anchors = (
{
name = bottom;
pos = (231,0);
},
{
name = top;
pos = (435,710);
}
);
guides = (
{
pos = (-16,400);
showMeasurement = 1;
}
);
layerId = m003;
shapes = (
{
closed = 1;
nodes = (
(307,0,l),
(786,710,l),
(674,710,l),
(247,62,l),
(298,62,l),
(238,710,l),
(137,710,l),
(208,0,l)
);
}
);
width = 665;
},
{
anchors = (
{
name = bottom;
pos = (288,0);
},
{
name = top;
pos = (488,710);
}
);
layerId = m004;
shapes = (
{
closed = 1;
nodes = (
(377,0,l),
(842,710,l),
(666,710,l),
(251,62,l),
(347,62,l),
(296,710,l),
(133,710,l),
(198,0,l)
);
}
);
width = 719;
},
{
anchors = (
{
name = bottom;
pos = (360,0);
},
{
name = top;
pos = (360,710);
}
);
layerId = m005;
shapes = (
{
closed = 1;
nodes = (
(498,0,l),
(774,710,l),
(537,710,l),
(350,102,l),
(444,102,l),
(257,710,l),
(5,710,l),
(281,0,l)
);
}
);
width = 779;
},
{
anchors = (
{
name = bottom;
pos = (332,0);
},
{
name = top;
pos = (332,710);
}
);
layerId = "E9CDC47A-CC1A-45B5-BC95-53360E087AF1";
shapes = (
{
closed = 1;
nodes = (
(436,0,l),
(661,710,l),
(421,710,l),
(298,102,l),
(380,102,l),
(256,710,l),
(3,710,l),
(228,0,l)
);
}
);
width = 664;
}
);
unicode = 86;
},
{
glyphname = W;
kernLeft = W;
kernRight = W;
lastChange = "2022-10-26 07:28:06 +0000";
layers = (
{
anchors = (
{
name = bottom;
pos = (464,0);
},
{
name = top;
pos = (464,710);
}
);
guides = (
{
pos = (-121,513);
showMeasurement = 1;
},
{
angle = 180;
pos = (0,310);
showMeasurement = 1;
}
);
layerId = m01;
shapes = (
{
closed = 1;
nodes = (
(315,0,l),
(480,601,l),
(454,601,l),
(619,0,l),
(737,0,l),
(922,710,l),
(827,710,l),
(660,42,l),
(704,42,l),
(522,710,l),
(420,710,l),
(237,42,l),
(277,42,l),
(113,710,l),
(12,710,l),
(197,0,l)
);
}
);
width = 934;
},
{
anchors = (
{
name = bottom;
pos = (506,0);
},
{
name = top;
pos = (506,710);
}
);
guides = (
{
pos = (-37,513);
showMeasurement = 1;
},
{
angle = 180;
pos = (84,310);
showMeasurement = 1;
}
);
layerId = m002;
shapes = (
{
closed = 1;
nodes = (
(382,0,l),
(541,601,l),
(471,601,l),
(630,0,l),
(825,0,l),
(1002,710,l),
(851,710,l),
(701,75,l),
(756,75,l),
(588,710,l),
(425,710,l),
(258,75,l),
(319,75,l),
(172,710,l),
(10,710,l),
(187,0,l)
);
}
);
width = 1012;
},
{
anchors = (
{
name = bottom;
pos = (404,0);
},
{
name = top;
pos = (608,710);
}
);
guides = (
{
pos = (-179,513);
showMeasurement = 1;
},
{
angle = 180;
pos = (-58,310);
showMeasurement = 1;
}
);
layerId = m003;
shapes = (
{
closed = 1;
nodes = (
(278,0,l),
(625,601,l),
(589,601,l),
(590,0,l),
(711,0,l),
(1135,710,l),
(1024,710,l),
(652,75,l),
(686,75,l),
(685,710,l),
(583,710,l),
(218,75,l),
(249,75,l),
(243,710,l),
(141,710,l),
(157,0,l)
);
}
);
width = 1018;
},
{
anchors = (
{
name = bottom;
pos = (394,0);
},
{
name = top;
pos = (594,710);
}
);
guides = (
{
pos = (-49,513);
showMeasurement = 1;
},
{
angle = 180;
pos = (72,310);
showMeasurement = 1;
}
);
layerId = m004;
shapes = (
{
closed = 1;
nodes = (
(290,0,l),
(598,601,l),
(528,601,l),
(498,0,l),
(693,0,l),
(1050,710,l),
(889,710,l),
(580,75,l),
(635,75,l),
(666,710,l),
(503,710,l),
(177,75,l),
(238,75,l),
(290,710,l),
(138,710,l),
(95,0,l)
);
}
);
width = 932;
},
{
anchors = (
{
name = bottom;
pos = (500,0);
},
{
name = top;
pos = (500,710);
}
);
guides = (
{
pos = (-63,513);
showMeasurement = 1;
},
{
angle = 180;
pos = (58,310);
showMeasurement = 1;
}
);
layerId = m005;
shapes = (
{
closed = 1;
nodes = (
(383,0,l),
(538,581,l),
(466,581,l),
(617,0,l),
(840,0,l),
(992,710,l),
(785,710,l),
(671,75,l),
(768,75,l),
(610,710,l),
(401,710,l),
(234,75,l),
(337,75,l),
(227,710,l),
(8,710,l),
(160,0,l)
);
}
);
width = 1000;
},
{
anchors = (
{
name = bottom;
pos = (419,0);
},
{
name = top;
pos = (419,710);
}
);
guides = (
{
pos = (-63,513);
showMeasurement = 1;
},
{
angle = 180;
pos = (58,310);
showMeasurement = 1;
}
);
layerId = "E9CDC47A-CC1A-45B5-BC95-53360E087AF1";
shapes = (
{
closed = 1;
nodes = (
(326,0,l),
(454,581,l),
(387,581,l),
(510,0,l),
(717,0,l),
(831,710,l),
(626,710,l),
(549,75,l),
(652,75,l),
(526,710,l),
(323,710,l),
(185,75,l),
(294,75,l),
(222,710,l),
(5,710,l),
(119,0,l)
);
}
);
width = 836;
}
);
unicode = 87;
},
{
glyphname = X;
kernLeft = X;
kernRight = X;
lastChange = "2022-10-26 07:28:15 +0000";
layers = (
{
anchors = (
{
name = bottom;
pos = (334,0);
},
{
name = top;
pos = (334,710);
}
);
layerId = m01;
shapes = (
{
closed = 1;
nodes = (
(122,0,l),
(349,341,l),
(385,341,l),
(640,710,l),
(526,710,l),
(327,410,l),
(288,406,l),
(8,0,l)
);
},
{
closed = 1;
nodes = (
(661,0,l),
(384,409,l),
(358,436,l),
(178,710,l),
(61,710,l),
(303,353,l),
(325,332,l),
(543,0,l)
);
}
);
width = 681;
},
{
anchors = (
{
name = bottom;
pos = (365,0);
},
{
name = top;
pos = (365,710);
}
);
layerId = m002;
shapes = (
{
closed = 1;
nodes = (
(189,0,l),
(410,341,l),
(466,341,l),
(722,710,l),
(527,710,l),
(329,410,l),
(270,406,l),
(-6,0,l)
);
},
{
closed = 1;
nodes = (
(730,0,l),
(456,409,l),
(410,436,l),
(231,710,l),
(33,710,l),
(276,353,l),
(318,332,l),
(532,0,l)
);
}
);
width = 730;
},
{
anchors = (
{
name = bottom;
pos = (259,0);
},
{
name = top;
pos = (463,710);
}
);
layerId = m003;
shapes = (
{
closed = 1;
nodes = (
(58,0,l),
(386,341,l),
(422,341,l),
(782,710,l),
(655,710,l),
(368,410,l),
(332,406,l),
(-67,0,l)
);
},
{
closed = 1;
nodes = (
(587,0,l),
(424,409,l),
(410,436,l),
(308,710,l),
(201,710,l),
(341,353,l),
(353,332,l),
(479,0,l)
);
}
);
width = 682;
},
{
anchors = (
{
name = bottom;
pos = (289,0);
},
{
name = top;
pos = (489,710);
}
);
layerId = m004;
shapes = (
{
closed = 1;
nodes = (
(123,0,l),
(423,324,l),
(479,324,l),
(856,710,l),
(651,710,l),
(380,423,l),
(320,419,l),
(-82,0,l)
);
},
{
closed = 1;
nodes = (
(642,0,l),
(475,409,l),
(457,436,l),
(343,710,l),
(167,710,l),
(317,353,l),
(334,332,l),
(466,0,l)
);
}
);
width = 728;
},
{
anchors = (
{
name = bottom;
pos = (391,0);
},
{
name = top;
pos = (391,710);
}
);
layerId = m005;
shapes = (
{
closed = 1;
nodes = (
(265,0,l),
(461,341,l),
(522,341,l),
(774,710,l),
(528,710,l),
(350,410,l),
(286,406,l),
(10,0,l)
);
},
{
closed = 1;
nodes = (
(786,0,l),
(512,409,l),
(446,436,l),
(287,710,l),
(29,710,l),
(272,353,l),
(330,332,l),
(528,0,l)
);
}
);
width = 796;
},
{
anchors = (
{
name = bottom;
pos = (332,0);
},
{
name = top;
pos = (332,710);
}
);
layerId = "E9CDC47A-CC1A-45B5-BC95-53360E087AF1";
shapes = (
{
closed = 1;
nodes = (
(265,0,l),
(407,341,l),
(462,341,l),
(662,710,l),
(423,710,l),
(292,410,l),
(234,406,l),
(14,0,l)
);
},
{
closed = 1;
nodes = (
(671,0,l),
(452,409,l),
(385,436,l),
(269,710,l),
(16,710,l),
(211,353,l),
(269,332,l),
(418,0,l)
);
}
);
width = 681;
}
);
unicode = 88;
},
{
glyphname = Y;
kernLeft = Y;
kernRight = Y;
lastChange = "2022-10-20 01:25:26 +0000";
layers = (
{
anchors = (
{
name = bottom;
pos = (322,0);
},
{
name = top;
pos = (322,710);
},
{
name = topleft;
pos = (28,710);
}
);
guides = (
{
angle = 180;
pos = (-12,675);
showMeasurement = 1;
},
{
pos = (110,451);
showMeasurement = 1;
}
);
layerId = m01;
shapes = (
{
closed = 1;
nodes = (
(343,217,l),
(646,710,l),
(537,710,l),
(302,316,l),
(344,316,l),
(109,710,l),
(-2,710,l),
(301,217,l)
);
},
{
closed = 1;
nodes = (
(372,0,l),
(372,291,l),
(272,291,l),
(272,0,l)
);
}
);
width = 644;
},
{
anchors = (
{
name = bottom;
pos = (354,0);
},
{
name = top;
pos = (354,710);
},
{
name = topleft;
pos = (35,710);
}
);
guides = (
{
angle = 180;
pos = (89,675);
showMeasurement = 1;
},
{
pos = (211,451);
showMeasurement = 1;
}
);
layerId = m002;
shapes = (
{
closed = 1;
nodes = (
(429,287,l),
(718,710,l),
(536,710,l),
(320,382,l),
(394,382,l),
(178,710,l),
(-10,710,l),
(279,287,l)
);
},
{
closed = 1;
nodes = (
(439,0,l),
(439,361,l),
(269,361,l),
(269,0,l)
);
}
);
width = 708;
},
{
anchors = (
{
name = bottom;
pos = (247,0);
},
{
name = top;
pos = (451,710);
},
{
name = topleft;
pos = (149,710);
}
);
guides = (
{
angle = 180;
pos = (-112,675);
showMeasurement = 1;
},
{
pos = (10,451);
showMeasurement = 1;
}
);
layerId = m003;
shapes = (
{
closed = 1;
nodes = (
(330,217,l),
(775,710,l),
(656,710,l),
(305,316,l),
(353,316,l),
(225,710,l),
(127,710,l),
(288,217,l)
);
},
{
closed = 1;
nodes = (
(297,0,l),
(381,291,l),
(280,291,l),
(196,0,l)
);
}
);
width = 644;
},
{
anchors = (
{
name = bottom;
pos = (282,0);
},
{
name = top;
pos = (482,710);
},
{
name = topleft;
pos = (163,710);
}
);
guides = (
{
angle = 180;
pos = (117,675);
showMeasurement = 1;
},
{
pos = (239,451);
showMeasurement = 1;
}
);
layerId = m004;
shapes = (
{
closed = 1;
nodes = (
(438,287,l),
(846,710,l),
(652,710,l),
(346,382,l),
(415,382,l),
(289,710,l),
(118,710,l),
(288,287,l)
);
},
{
closed = 1;
nodes = (
(369,0,l),
(471,361,l),
(297,361,l),
(195,0,l)
);
}
);
width = 708;
},
{
anchors = (
{
name = bottom;
pos = (394,0);
},
{
name = top;
pos = (394,710);
},
{
name = topleft;
pos = (20,710);
}
);
guides = (
{
angle = 180;
pos = (151,675);
showMeasurement = 1;
},
{
pos = (273,451);
showMeasurement = 1;
}
);
layerId = m005;
shapes = (
{
closed = 1;
nodes = (
(499,287,l),
(788,710,l),
(535,710,l),
(339,382,l),
(452,382,l),
(256,710,l),
(0,710,l),
(289,287,l)
);
},
{
closed = 1;
nodes = (
(509,0,l),
(509,361,l),
(279,361,l),
(279,0,l)
);
}
);
width = 788;
},
{
anchors = (
{
name = bottom;
pos = (343,0);
},
{
name = top;
pos = (343,710);
},
{
name = topleft;
pos = (20,710);
}
);
guides = (
{
angle = 180;
pos = (151,675);
showMeasurement = 1;
},
{
pos = (273,451);
showMeasurement = 1;
}
);
layerId = "E9CDC47A-CC1A-45B5-BC95-53360E087AF1";
shapes = (
{
closed = 1;
nodes = (
(452,287,l),
(681,710,l),
(427,710,l),
(285,382,l),
(402,382,l),
(259,710,l),
(4,710,l),
(233,287,l)
);
},
{
closed = 1;
nodes = (
(457,0,l),
(457,361,l),
(228,361,l),
(228,0,l)
);
}
);
width = 685;
}
);
unicode = 89;
},
{
glyphname = Z;
kernLeft = Z;
kernRight = Z;
lastChange = "2022-08-03 02:37:12 +0000";
layers = (
{
anchors = (
{
name = bottom;
pos = (339,0);
},
{
name = center;
pos = (339,355);
},
{
name = top;
pos = (339,710);
}
);
layerId = m01;
shapes = (
{
closed = 1;
nodes = (
(634,0,l),
(634,90,l),
(107,90,l),
(110,42,l),
(609,613,l),
(609,710,l),
(68,710,l),
(68,620,l),
(537,620,l),
(530,666,l),
(43,102,l),
(43,0,l)
);
}
);
width = 677;
},
{
anchors = (
{
name = bottom;
pos = (339,0);
},
{
name = center;
pos = (339,355);
},
{
name = top;
pos = (339,710);
}
);
layerId = m002;
shapes = (
{
closed = 1;
nodes = (
(639,0,l),
(639,132,l),
(157,132,l),
(196,69,l),
(614,593,l),
(614,710,l),
(63,710,l),
(63,578,l),
(501,578,l),
(451,632,l),
(38,114,l),
(38,0,l)
);
}
);
width = 677;
},
{
anchors = (
{
name = bottom;
pos = (235,0);
},
{
name = center;
pos = (337,355);
},
{
name = top;
pos = (439,710);
}
);
layerId = m003;
shapes = (
{
closed = 1;
nodes = (
(554,0,l),
(580,90,l),
(59,90,l),
(59,27,l),
(700,598,l),
(733,710,l),
(198,710,l),
(172,620,l),
(635,620,l),
(621,651,l),
(-6,87,l),
(-31,0,l)
);
}
);
width = 672;
},
{
anchors = (
{
name = bottom;
pos = (267,0);
},
{
name = center;
pos = (367,355);
},
{
name = top;
pos = (467,710);
}
);
layerId = m004;
shapes = (
{
closed = 1;
nodes = (
(567,0,l),
(604,132,l),
(122,132,l),
(161,80,l),
(706,583,l),
(742,710,l),
(191,710,l),
(154,578,l),
(592,578,l),
(539,622,l),
(0,125,l),
(-34,0,l)
);
}
);
width = 681;
},
{
anchors = (
{
name = bottom;
pos = (371,0);
},
{
name = center;
pos = (371,355);
},
{
name = top;
pos = (371,710);
}
);
background = {
shapes = (
{
closed = 1;
nodes = (
(70,710,l),
(70,558,l),
(426,558,l),
(32,147,l),
(32,0,l),
(706,0,l),
(706,153,l),
(293,153,l),
(691,568,l),
(691,710,l)
);
}
);
};
layerId = m005;
shapes = (
{
closed = 1;
nodes = (
(701,0,l),
(701,161,l),
(189,161,l),
(218,69,l),
(686,543,l),
(686,710,l),
(65,710,l),
(65,548,l),
(573,548,l),
(493,632,l),
(30,163,l),
(30,0,l)
);
}
);
width = 731;
},
{
anchors = (
{
name = bottom;
pos = (307,0);
},
{
name = center;
pos = (307,355);
},
{
name = top;
pos = (307,710);
}
);
background = {
shapes = (
{
closed = 1;
nodes = (
(70,710,l),
(70,558,l),
(426,558,l),
(32,147,l),
(32,0,l),
(706,0,l),
(706,153,l),
(293,153,l),
(691,568,l),
(691,710,l)
);
}
);
};
layerId = "E9CDC47A-CC1A-45B5-BC95-53360E087AF1";
shapes = (
{
closed = 1;
nodes = (
(585,0,l),
(585,161,l),
(177,161,l),
(202,69,l),
(578,543,l),
(578,710,l),
(52,710,l),
(52,548,l),
(481,548,l),
(393,632,l),
(19,163,l),
(19,0,l)
);
}
);
width = 605;
}
);
unicode = 90;
},
{
glyphname = I.ss01;
kernLeft = I.ss01;
kernRight = I.ss01;
lastChange = "2022-08-03 02:37:12 +0000";
layers = (
{
anchors = (
{
name = bottom;
pos = (214,0);
},
{
name = ogonek;
pos = (330,10);
},
{
name = top;
pos = (214,710);
},
{
name = topleft;
pos = (89,710);
}
);
layerId = m01;
shapes = (
{
closed = 1;
nodes = (
(264,20,l),
(264,693,l),
(164,693,l),
(164,20,l)
);
},
{
closed = 1;
nodes = (
(395,636,l),
(395,710,l),
(33,710,l),
(33,636,l)
);
},
{
closed = 1;
nodes = (
(400,0,l),
(400,74,l),
(28,74,l),
(28,0,l)
);
}
);
width = 428;
},
{
anchors = (
{
name = bottom;
pos = (245,0);
},
{
name = ogonek;
pos = (403,10);
},
{
name = top;
pos = (245,710);
},
{
name = topleft;
pos = (67,710);
}
);
layerId = m002;
shapes = (
{
closed = 1;
nodes = (
(330,0,l),
(330,683,l),
(160,683,l),
(160,0,l)
);
},
{
closed = 1;
nodes = (
(460,601,l),
(460,710,l),
(30,710,l),
(30,601,l)
);
},
{
closed = 1;
nodes = (
(470,0,l),
(470,104,l),
(20,104,l),
(20,0,l)
);
}
);
width = 490;
},
{
anchors = (
{
name = bottom;
pos = (140,0);
},
{
name = ogonek;
pos = (259,10);
},
{
name = top;
pos = (344,710);
},
{
name = topleft;
pos = (219,710);
}
);
layerId = m003;
shapes = (
{
closed = 1;
nodes = (
(196,20,l),
(389,693,l),
(289,693,l),
(96,20,l)
);
},
{
closed = 1;
nodes = (
(504,636,l),
(525,710,l),
(163,710,l),
(142,636,l)
);
},
{
closed = 1;
nodes = (
(326,0,l),
(347,74,l),
(-25,74,l),
(-46,0,l)
);
}
);
width = 429;
},
{
anchors = (
{
name = bottom;
pos = (245,0);
},
{
name = ogonek;
pos = (403,10);
},
{
name = top;
pos = (245,710);
},
{
name = topleft;
pos = (67,710);
}
);
layerId = m004;
shapes = (
{
closed = 1;
nodes = (
(330,0,l),
(330,683,l),
(160,683,l),
(160,0,l)
);
},
{
closed = 1;
nodes = (
(460,601,l),
(460,710,l),
(30,710,l),
(30,601,l)
);
},
{
closed = 1;
nodes = (
(470,0,l),
(470,104,l),
(20,104,l),
(20,0,l)
);
}
);
width = 490;
},
{
anchors = (
{
name = bottom;
pos = (245,0);
},
{
name = ogonek;
pos = (403,10);
},
{
name = top;
pos = (245,710);
},
{
name = topleft;
pos = (67,710);
}
);
layerId = m005;
shapes = (
{
closed = 1;
nodes = (
(330,0,l),
(330,683,l),
(160,683,l),
(160,0,l)
);
},
{
closed = 1;
nodes = (
(460,601,l),
(460,710,l),
(30,710,l),
(30,601,l)
);
},
{
closed = 1;
nodes = (
(470,0,l),
(470,104,l),
(20,104,l),
(20,0,l)
);
}
);
width = 490;
},
{
anchors = (
{
name = bottom;
pos = (202,0);
},
{
name = ogonek;
pos = (389,0);
},
{
name = top;
pos = (202,710);
},
{
name = topleft;
pos = (50,710);
}
);
layerId = "E9CDC47A-CC1A-45B5-BC95-53360E087AF1";
shapes = (
{
closed = 1;
nodes = (
(317,30,l),
(317,683,l),
(88,683,l),
(88,30,l)
);
},
{
closed = 1;
nodes = (
(380,550,l),
(380,710,l),
(24,710,l),
(24,550,l)
);
},
{
closed = 1;
nodes = (
(389,0,l),
(389,160,l),
(15,160,l),
(15,0,l)
);
}
);
width = 404;
}
);
},
{
glyphname = M.ss01;
kernLeft = M.ss01;
kernRight = M.ss01;
lastChange = "2022-08-03 02:37:12 +0000";
layers = (
{
anchors = (
{
name = bottom;
pos = (465,0);
},
{
name = top;
pos = (465,710);
}
);
guides = (
{
angle = 90;
pos = (1180,497);
showMeasurement = 1;
},
{
pos = (-184,201);
showMeasurement = 1;
},
{
pos = (584,571);
}
);
layerId = m01;
shapes = (
{
closed = 1;
nodes = (
(186,0,l),
(186,640,l),
(167,637,l),
(419,0,l),
(504,0,l),
(763,637,l),
(741,640,l),
(741,0,l),
(831,0,l),
(831,710,l),
(703,710,l),
(453,84,l),
(480,84,l),
(235,710,l),
(98,710,l),
(98,0,l)
);
}
);
width = 929;
},
{
anchors = (
{
name = bottom;
pos = (460,0);
},
{
name = top;
pos = (460,710);
}
);
guides = (
{
angle = 90;
pos = (1187,497);
showMeasurement = 1;
},
{
pos = (-177,201);
showMeasurement = 1;
},
{
pos = (632,513);
}
);
layerId = m002;
shapes = (
{
closed = 1;
nodes = (
(229,0,l),
(229,640,l),
(183,637,l),
(393,0,l),
(516,0,l),
(733,637,l),
(686,640,l),
(686,0,l),
(834,0,l),
(834,710,l),
(632,710,l),
(414,84,l),
(512,84,l),
(299,710,l),
(85,710,l),
(85,0,l)
);
}
);
width = 919;
},
{
anchors = (
{
name = bottom;
pos = (391,0);
},
{
name = top;
pos = (595,710);
}
);
guides = (
{
angle = 90;
pos = (1108,497);
showMeasurement = 1;
},
{
pos = (-256,201);
showMeasurement = 1;
},
{
pos = (512,571);
}
);
layerId = m003;
shapes = (
{
closed = 1;
nodes = (
(112,0,l),
(296,640,l),
(276,637,l),
(345,0,l),
(432,0,l),
(874,637,l),
(858,640,l),
(674,0,l),
(765,0,l),
(969,710,l),
(829,710,l),
(399,84,l),
(426,84,l),
(361,710,l),
(227,710,l),
(23,0,l)
);
}
);
width = 938;
},
{
anchors = (
{
name = bottom;
pos = (388,0);
},
{
name = top;
pos = (588,710);
}
);
guides = (
{
angle = 90;
pos = (1115,497);
showMeasurement = 1;
},
{
pos = (-249,201);
showMeasurement = 1;
},
{
pos = (560,513);
}
);
layerId = m004;
shapes = (
{
closed = 1;
nodes = (
(161,0,l),
(341,640,l),
(290,637,l),
(321,0,l),
(444,0,l),
(840,637,l),
(794,640,l),
(614,0,l),
(766,0,l),
(966,710,l),
(750,710,l),
(356,84,l),
(454,84,l),
(417,710,l),
(213,710,l),
(13,0,l)
);
}
);
width = 927;
},
{
anchors = (
{
name = bottom;
pos = (445,0);
},
{
name = top;
pos = (445,710);
}
);
guides = (
{
angle = 90;
pos = (1172,497);
showMeasurement = 1;
},
{
pos = (-192,201);
showMeasurement = 1;
},
{
pos = (600,428);
}
);
layerId = m005;
shapes = (
{
closed = 1;
nodes = (
(254,0,l),
(254,640,l),
(188,637,l),
(388,0,l),
(531,0,l),
(740,637,l),
(671,640,l),
(671,0,l),
(879,0,l),
(879,710,l),
(597,710,l),
(424,186,l),
(532,186,l),
(364,710,l),
(70,710,l),
(70,0,l)
);
}
);
width = 949;
},
{
anchors = (
{
name = bottom;
pos = (387,0);
},
{
name = top;
pos = (387,710);
}
);
guides = (
{
angle = 90;
pos = (1172,497);
showMeasurement = 1;
},
{
pos = (-192,201);
showMeasurement = 1;
},
{
pos = (600,428);
}
);
layerId = "E9CDC47A-CC1A-45B5-BC95-53360E087AF1";
shapes = (
{
closed = 1;
nodes = (
(225,0,l),
(225,640,l),
(156,637,l),
(303,0,l),
(435,0,l),
(591,637,l),
(519,640,l),
(519,0,l),
(728,0,l),
(728,710,l),
(447,710,l),
(338,186,l),
(442,186,l),
(338,710,l),
(46,710,l),
(46,0,l)
);
}
);
width = 774;
}
);
metricLeft = H;
metricRight = H;
},
{
glyphname = a;
kernLeft = a;
kernRight = n;
lastChange = "2022-10-26 09:53:11 +0000";
layers = (
{
anchors = (
{
name = bottom;
pos = (291,0);
},
{
name = ogonek;
pos = (583,0);
},
{
name = top;
pos = (279,520);
}
);
background = {
shapes = (
{
closed = 0;
nodes = (
(409,130,ls),
(409,58,o),
(420,18,o),
(447,0,c),
(548,0,l),
(520,11,o),
(503,84,o),
(503,145,cs)
);
}
);
};
layerId = m01;
shapes = (
{
closed = 1;
nodes = (
(545,0,l),
(522,14,o),
(502,68,o),
(502,153,cs),
(502,370,ls),
(502,471,o),
(429,532,o),
(277,532,cs),
(151,532,o),
(79,481,o),
(52,402,c),
(150,376,l),
(162,428,o),
(206,450,o),
(277,450,cs),
(363,450,o),
(409,425,o),
(409,360,cs),
(409,130,ls),
(409,50,o),
(427,14,o),
(447,0,c)
);
},
{
closed = 1;
nodes = (
(340,-10,o),
(412,45,o),
(448,150,c),
(416,186,l),
(388,101,o),
(332,70,o),
(264,70,cs),
(185,70,o),
(149,102,o),
(149,156,cs),
(149,203,o),
(171,242,o),
(349,267,cs),
(456,282,l),
(442,344,l),
(337,331,ls),
(107,303,o),
(56,241,o),
(56,153,cs),
(56,43,o),
(142,-10,o),
(240,-10,cs)
);
}
);
width = 574;
},
{
anchors = (
{
name = bottom;
pos = (242,0);
},
{
name = ogonek;
pos = (523,23);
},
{
name = top;
pos = (392,520);
}
);
background = {
anchors = (
{
name = bottom;
pos = (283,0);
},
{
name = ogonek;
pos = (512,10);
},
{
name = top;
pos = (283,520);
}
);
};
layerId = m003;
shapes = (
{
closed = 1;
nodes = (
(487,-4,o),
(525,14,o),
(547,52,c),
(552,70,l),
(537,65,o),
(522,64,o),
(508,64,cs),
(458,64,o),
(433,94,o),
(453,150,cs),
(518,334,ls),
(563,462,o),
(462,532,o),
(335,532,cs),
(226,532,o),
(150,505,o),
(88,462,c),
(170,404,l),
(221,439,o),
(263,450,o),
(324,450,cs),
(401,450,o),
(459,412,o),
(428,334,cs),
(370,186,ls),
(316,48,o),
(386,-4,o),
(444,-4,cs)
);
},
{
closed = 1;
nodes = (
(270,-8,o),
(341,59,o),
(398,183,c),
(381,211,l),
(320,100,o),
(270,70,o),
(209,70,cs),
(163,70,o),
(129,89,o),
(129,136,cs),
(129,191,o),
(162,268,o),
(408,299,cs),
(456,305,l),
(453,373,l),
(397,365,ls),
(96,322,o),
(33,223,o),
(33,129,cs),
(33,43,o),
(104,-8,o),
(178,-8,cs)
);
}
);
width = 587;
},
{
anchors = (
{
name = bottom;
pos = (245,0);
},
{
name = ogonek;
pos = (504,10);
},
{
name = top;
pos = (395,520);
}
);
associatedMasterId = m003;
background = {
shapes = (
{
pos = (7,0);
ref = a.ss01;
}
);
};
layerId = "16D96DBD-DDB7-4F39-B6D8-98D2404E3FD0";
metricLeft = "=d";
metricRight = "=d";
name = "20 Dec 21, 12:05";
shapes = (
{
closed = 1;
nodes = (
(412,-12,o),
(504,216,o),
(504,355,cs),
(504,466,o),
(450,532,o),
(345,532,cs),
(155,532,o),
(43,339,o),
(43,186,cs),
(43,65,o),
(127,-12,o),
(229,-12,cs)
);
},
{
closed = 1;
nodes = (
(191,66,o),
(137,109,o),
(137,195,cs),
(137,291,o),
(208,453,o),
(347,453,cs),
(412,453,o),
(466,416,o),
(466,326,cs),
(466,224,o),
(399,66,o),
(258,66,cs)
);
},
{
closed = 1;
nodes = (
(544,520,l),
(496,386,l),
(440,187,ls),
(418,109,o),
(418,65,o),
(439,0,c),
(541,0,l),
(510,72,o),
(513,112,o),
(530,173,cs),
(627,520,l)
);
}
);
width = 640;
},
{
anchors = (
{
name = bottom;
pos = (239,0);
},
{
name = ogonek;
pos = (516,20);
},
{
name = top;
pos = (371,530);
}
);
layerId = m004;
shapes = (
{
closed = 1;
nodes = (
(484,-5,o),
(535,23,o),
(580,74,c),
(587,105,l),
(572,102,o),
(559,100,o),
(540,100,cs),
(486,100,o),
(471,122,o),
(510,236,cs),
(548,348,ls),
(592,478,o),
(477,542,o),
(343,542,cs),
(225,542,o),
(146,511,o),
(95,465,c),
(206,374,l),
(242,413,o),
(287,434,o),
(339,434,cs),
(395,434,o),
(415,409,o),
(399,362,cs),
(344,198,ls),
(299,65,o),
(345,-5,o),
(426,-5,cs)
);
},
{
closed = 1;
nodes = (
(246,-9,o),
(315,48,o),
(380,180,c),
(358,220,l),
(309,136,o),
(261,106,o),
(228,106,cs),
(197,106,o),
(175,122,o),
(175,156,cs),
(175,198,o),
(216,248,o),
(434,280,cs),
(489,288,l),
(495,366,l),
(429,360,ls),
(131,333,o),
(19,242,o),
(19,123,cs),
(19,50,o),
(79,-9,o),
(165,-9,cs)
);
}
);
width = 630;
},
{
anchors = (
{
name = bottom;
pos = (290,0);
},
{
name = ogonek;
pos = (550,0);
},
{
name = top;
pos = (280,530);
}
);
layerId = m002;
name = Bold;
shapes = (
{
closed = 1;
nodes = (
(530,0,l),
(514,66,o),
(512,118,o),
(512,330,cs),
(512,391,ls),
(512,485,o),
(434,542,o),
(280,542,cs),
(116,542,o),
(50,486,o),
(34,435,c),
(197,388,l),
(203,418,o),
(230,432,o),
(277,432,cs),
(328,432,o),
(360,415,o),
(360,375,cs),
(360,323,ls),
(360,97,o),
(363,51,o),
(378,0,c)
);
},
{
closed = 1;
nodes = (
(280,-10,o),
(331,28,o),
(381,103,c),
(369,151,l),
(343,113,o),
(313,99,o),
(275,99,cs),
(221,99,o),
(192,126,o),
(192,168,cs),
(192,206,o),
(208,231,o),
(258,243,cs),
(457,289,l),
(441,365,l),
(209,324,ls),
(89,303,o),
(36,249,o),
(36,159,cs),
(36,47,o),
(115,-10,o),
(202,-10,cs)
);
}
);
width = 567;
},
{
anchors = (
{
name = bottom;
pos = (323,0);
},
{
name = ogonek;
pos = (636,0);
},
{
name = top;
pos = (327,530);
}
);
layerId = m005;
name = Bold;
shapes = (
{
closed = 1;
nodes = (
(636,0,l),
(605,62,o),
(598,93,o),
(598,176,cs),
(598,376,ls),
(598,491,o),
(531,542,o),
(323,542,cs),
(136,542,o),
(62,498,o),
(38,427,c),
(241,380,l),
(251,409,o),
(276,423,o),
(320,423,cs),
(365,423,o),
(393,411,o),
(393,370,cs),
(393,132,ls),
(393,85,o),
(406,42,o),
(435,0,c)
);
},
{
closed = 1;
nodes = (
(336,-10,o),
(390,29,o),
(435,104,c),
(401,161,l),
(371,129,o),
(343,117,o),
(307,117,cs),
(268,117,o),
(248,138,o),
(248,169,cs),
(248,203,o),
(262,223,o),
(301,236,cs),
(490,301,l),
(474,382,l),
(222,324,ls),
(98,295,o),
(42,249,o),
(42,150,cs),
(42,49,o),
(113,-10,o),
(243,-10,cs)
);
}
);
width = 668;
},
{
anchors = (
{
name = bottom;
pos = (276,0);
},
{
name = ogonek;
pos = (549,0);
},
{
name = top;
pos = (287,530);
}
);
layerId = "E9CDC47A-CC1A-45B5-BC95-53360E087AF1";
name = Bold;
shapes = (
{
closed = 1;
nodes = (
(544,0,l),
(530,62,o),
(526,95,o),
(526,176,cs),
(526,376,ls),
(526,491,o),
(477,542,o),
(282,542,cs),
(112,542,o),
(48,498,o),
(28,427,c),
(223,380,l),
(231,409,o),
(248,423,o),
(279,423,cs),
(305,423,o),
(323,411,o),
(323,370,cs),
(323,132,ls),
(323,85,o),
(337,42,o),
(366,0,c)
);
},
{
closed = 1;
nodes = (
(282,-10,o),
(324,29,o),
(361,104,c),
(329,161,l),
(304,129,o),
(286,117,o),
(267,117,cs),
(246,117,o),
(236,135,o),
(236,169,cs),
(236,203,o),
(243,225,o),
(267,236,cs),
(410,301,l),
(397,382,l),
(218,333,ls),
(77,294,o),
(32,247,o),
(32,150,cs),
(32,49,o),
(81,-10,o),
(202,-10,cs)
);
}
);
width = 566;
},
{
anchors = (
{
name = bottom;
pos = (291,0);
},
{
name = ogonek;
pos = (583,0);
},
{
name = top;
pos = (279,520);
}
);
associatedMasterId = m01;
layerId = "40AB9A7A-8DB7-4C2B-A4FE-F45D294960B2";
name = "26 Oct 22, 18:06";
shapes = (
{
closed = 1;
nodes = (
(555,0,l),
(510,78,o),
(502,109,o),
(502,292,cs),
(502,370,ls),
(502,471,o),
(429,532,o),
(277,532,cs),
(154,532,o),
(83,484,o),
(57,410,c),
(155,384,l),
(167,430,o),
(209,450,o),
(277,450,cs),
(363,450,o),
(409,425,o),
(409,360,cs),
(409,280,ls),
(409,86,o),
(423,54,o),
(450,0,c)
);
},
{
closed = 1;
nodes = (
(340,-10,o),
(412,45,o),
(448,150,c),
(416,186,l),
(388,101,o),
(332,70,o),
(264,70,cs),
(185,70,o),
(149,106,o),
(149,160,cs),
(149,204,o),
(172,234,o),
(241,248,cs),
(456,292,l),
(440,354,l),
(222,313,ls),
(107,291,o),
(56,241,o),
(56,157,cs),
(56,46,o),
(142,-10,o),
(240,-10,cs)
);
}
);
width = 579;
},
{
anchors = (
{
name = bottom;
pos = (291,0);
},
{
name = ogonek;
pos = (583,0);
},
{
name = top;
pos = (279,520);
}
);
associatedMasterId = m01;
layerId = "F957BD59-494B-4A44-84EC-F1A4E3F661EE";
name = "26 Oct 22, 20:52";
shapes = (
{
closed = 1;
nodes = (
(555,0,l),
(516,45,o),
(502,90,o),
(502,126,cs),
(502,370,ls),
(502,471,o),
(429,532,o),
(277,532,cs),
(151,532,o),
(79,481,o),
(52,402,c),
(150,376,l),
(162,428,o),
(206,450,o),
(277,450,cs),
(363,450,o),
(409,425,o),
(409,360,cs),
(409,111,ls),
(409,65,o),
(425,30,o),
(445,0,c)
);
},
{
closed = 1;
nodes = (
(340,-10,o),
(412,45,o),
(448,150,c),
(416,186,l),
(388,101,o),
(332,70,o),
(264,70,cs),
(185,70,o),
(149,102,o),
(149,156,cs),
(149,203,o),
(171,242,o),
(349,267,cs),
(456,282,l),
(442,344,l),
(337,331,ls),
(107,302,o),
(56,241,o),
(56,153,cs),
(56,43,o),
(142,-10,o),
(240,-10,cs)
);
}
);
width = 574;
}
);
unicode = 97;
},
{
glyphname = b;
kernLeft = h;
kernRight = o;
lastChange = "2022-10-26 10:02:51 +0000";
layers = (
{
anchors = (
{
name = bottom;
pos = (321,0);
},
{
name = center;
pos = (195,629);
},
{
name = top;
pos = (131,736);
}
);
background = {
shapes = (
{
pos = (23,0);
ref = o;
}
);
};
layerId = m01;
shapes = (
{
closed = 1;
nodes = (
(173,0,l),
(180,133,l),
(182,133,l),
(182,736,l),
(88,736,l),
(88,0,l)
);
},
{
closed = 1;
nodes = (
(487,-12,o),
(586,90,o),
(586,259,cs),
(586,432,o),
(487,532,o),
(357,532,cs),
(228,532,o),
(148,430,o),
(148,260,cs),
(148,90,o),
(228,-12,o),
(357,-12,cs)
);
},
{
closed = 1;
nodes = (
(249,64,o),
(182,123,o),
(182,259,cs),
(182,393,o),
(249,450,o),
(337,450,cs),
(425,450,o),
(492,393,o),
(492,259,cs),
(492,123,o),
(425,64,o),
(337,64,cs)
);
}
);
width = 646;
},
{
anchors = (
{
name = bottom;
pos = (322,0);
},
{
name = center;
pos = (204,642);
},
{
name = top;
pos = (152,736);
}
);
background = {
shapes = (
{
pos = (18,0);
ref = o;
}
);
};
layerId = m002;
shapes = (
{
closed = 1;
nodes = (
(211,0,l),
(229,166,l),
(229,736,l),
(75,736,l),
(75,0,l)
);
},
{
closed = 1;
nodes = (
(507,-12,o),
(601,95,o),
(601,264,cs),
(601,437,o),
(507,542,o),
(378,542,cs),
(255,542,o),
(195,435,o),
(195,264,cs),
(195,95,o),
(255,-12,o),
(378,-12,cs)
);
},
{
closed = 1;
nodes = (
(275,98,o),
(229,142,o),
(229,264,cs),
(229,383,o),
(275,426,o),
(336,426,cs),
(397,426,o),
(443,383,o),
(443,264,cs),
(443,143,o),
(397,98,o),
(336,98,cs)
);
}
);
width = 643;
},
{
anchors = (
{
name = bottom;
pos = (255,4);
},
{
name = center;
pos = (299,631);
},
{
name = top;
pos = (275,736);
}
);
background = {
shapes = (
{
pos = (35,0);
ref = o;
}
);
};
layerId = m003;
shapes = (
{
closed = 1;
nodes = (
(78,0,l),
(151,134,l),
(324,736,l),
(230,736,l),
(18,0,l)
);
},
{
closed = 1;
nodes = (
(484,-12,o),
(603,187,o),
(603,340,cs),
(603,466,o),
(510,532,o),
(420,532,cs),
(235,532,o),
(142,305,o),
(142,165,cs),
(142,54,o),
(197,-12,o),
(305,-12,cs)
);
},
{
closed = 1;
nodes = (
(226,66,o),
(180,109,o),
(180,191,cs),
(180,293,o),
(250,453,o),
(386,453,cs),
(454,453,o),
(508,414,o),
(508,330,cs),
(508,233,o),
(427,66,o),
(299,66,cs)
);
}
);
width = 652;
},
{
anchors = (
{
name = bottom;
pos = (358,0);
},
{
name = center;
pos = (240,642);
},
{
name = top;
pos = (188,736);
}
);
layerId = m004;
shapes = (
{
closed = 1;
nodes = (
(95,0,l),
(196,133,l),
(368,736,l),
(210,736,l),
(4,0,l)
);
},
{
closed = 1;
nodes = (
(244,-11,o),
(341,-11,cs),
(524,-11,o),
(624,202,o),
(624,344,cs),
(624,484,o),
(527,542,o),
(440,542,cs),
(272,542,o),
(190,288,o),
(190,155,cs),
(190,49,o)
);
},
{
closed = 1;
nodes = (
(230,138,o),
(230,201,cs),
(230,279,o),
(277,432,o),
(376,432,cs),
(428,432,o),
(465,405,o),
(465,338,cs),
(465,261,o),
(418,105,o),
(317,105,cs),
(265,105,o)
);
}
);
width = 658;
},
{
anchors = (
{
name = bottom;
pos = (359,0);
},
{
name = center;
pos = (241,642);
},
{
name = top;
pos = (189,736);
}
);
background = {
shapes = (
{
closed = 1;
nodes = (
(59,0,l),
(249,0,l),
(249,78,l),
(276,45,o),
(299,23,o),
(322,10,c),
(351,-5,o),
(384,-12,o),
(420,-12,c),
(461,-12,o),
(499,-1,o),
(533,21,c),
(567,42,o),
(593,75,o),
(613,120,c),
(632,164,o),
(642,215,o),
(642,272,c),
(642,359,o),
(621,425,o),
(579,472,c),
(536,518,o),
(483,542,o),
(419,542,c),
(387,542,o),
(358,537,o),
(333,525,c),
(307,515,o),
(284,499,o),
(264,477,c),
(264,731,l),
(59,731,l)
);
},
{
closed = 1;
nodes = (
(306,379,o),
(329,389,o),
(356,389,c),
(379,389,o),
(398,380,o),
(414,361,c),
(431,340,o),
(439,310,o),
(439,268,c),
(439,221,o),
(431,187,o),
(414,167,c),
(398,146,o),
(378,136,o),
(353,136,c),
(327,136,o),
(305,146,o),
(288,167,c),
(270,187,o),
(262,221,o),
(262,266,c),
(262,308,o),
(271,338,o),
(289,359,c)
);
}
);
};
layerId = m005;
shapes = (
{
closed = 1;
nodes = (
(242,0,l),
(242,123,l),
(266,133,l),
(266,710,l),
(60,710,l),
(60,0,l)
);
},
{
closed = 1;
nodes = (
(540,-12,o),
(641,95,o),
(641,264,cs),
(641,437,o),
(540,542,o),
(405,542,cs),
(269,542,o),
(202,435,o),
(202,264,cs),
(202,95,o),
(269,-12,o),
(405,-12,cs)
);
},
{
closed = 1;
nodes = (
(303,131,o),
(266,164,o),
(266,261,cs),
(266,360,o),
(303,393,o),
(348,393,cs),
(393,393,o),
(430,360,o),
(430,261,cs),
(430,164,o),
(393,131,o),
(348,131,cs)
);
}
);
width = 681;
},
{
anchors = (
{
name = bottom;
pos = (282,0);
},
{
name = center;
pos = (199,624);
},
{
name = top;
pos = (136,710);
}
);
background = {
shapes = (
{
pos = (-3,0);
ref = o;
}
);
};
layerId = "E9CDC47A-CC1A-45B5-BC95-53360E087AF1";
shapes = (
{
closed = 1;
nodes = (
(452,-12,o),
(536,95,o),
(536,264,cs),
(536,437,o),
(452,542,o),
(342,542,cs),
(227,542,o),
(173,435,o),
(173,264,cs),
(173,95,o),
(227,-12,o),
(342,-12,cs)
);
},
{
closed = 1;
nodes = (
(167,0,l),
(224,123,l),
(240,133,l),
(240,710,l),
(37,710,l),
(37,0,l)
);
},
{
closed = 1;
nodes = (
(255,131,o),
(240,158,o),
(240,261,cs),
(240,364,o),
(255,393,o),
(284,393,cs),
(313,393,o),
(328,364,o),
(328,261,cs),
(328,158,o),
(313,131,o),
(284,131,cs)
);
}
);
width = 564;
}
);
metricLeft = n;
metricRight = o;
unicode = 98;
},
{
glyphname = c;
kernLeft = o;
kernRight = c;
lastChange = "2022-10-26 07:22:04 +0000";
layers = (
{
anchors = (
{
name = bottom;
pos = (300,0);
},
{
name = top;
pos = (300,520);
}
);
background = {
shapes = (
{
ref = o;
}
);
};
layerId = m01;
shapes = (
{
closed = 1;
nodes = (
(428,-12,o),
(500,42,o),
(528,139,c),
(436,170,l),
(416,99,o),
(377,68,o),
(309,68,cs),
(212,68,o),
(156,125,o),
(156,258,cs),
(156,393,o),
(211,451,o),
(305,451,cs),
(369,451,o),
(418,422,o),
(435,355,c),
(526,383,l),
(493,481,o),
(425,532,o),
(305,532,cs),
(160,532,o),
(60,429,o),
(60,258,cs),
(60,89,o),
(161,-12,o),
(309,-12,cs)
);
}
);
width = 559;
},
{
anchors = (
{
name = bottom;
pos = (304,0);
},
{
name = top;
pos = (304,530);
}
);
background = {
anchors = (
{
name = bottom;
pos = (304,0);
},
{
name = top;
pos = (304,530);
}
);
};
layerId = m002;
shapes = (
{
closed = 1;
nodes = (
(463,-12,o),
(543,81,o),
(550,143,c),
(403,195,l),
(400,158,o),
(376,113,o),
(314,113,cs),
(250,113,o),
(200,153,o),
(200,263,cs),
(200,378,o),
(250,420,o),
(311,420,cs),
(362,420,o),
(392,393,o),
(399,349,c),
(546,397,l),
(539,460,o),
(451,542,o),
(311,542,cs),
(157,542,o),
(42,434,o),
(42,263,cs),
(42,94,o),
(154,-12,o),
(314,-12,cs)
);
}
);
width = 563;
},
{
anchors = (
{
name = bottom;
pos = (227,0);
},
{
name = top;
pos = (373,518);
}
);
background = {
shapes = (
{
ref = o;
}
);
};
layerId = m003;
shapes = (
{
closed = 1;
nodes = (
(379,-14,o),
(451,33,o),
(489,135,c),
(407,177,l),
(379,100,o),
(331,66,o),
(270,66,cs),
(202,66,o),
(145,97,o),
(145,184,cs),
(145,271,o),
(198,450,o),
(348,450,cs),
(417,450,o),
(450,425,o),
(454,370,c),
(550,390,l),
(545,487,o),
(462,531,o),
(361,531,cs),
(155,531,o),
(50,328,o),
(50,184,cs),
(50,55,o),
(139,-14,o),
(268,-14,cs)
);
}
);
width = 560;
},
{
anchors = (
{
name = bottom;
pos = (264,0);
},
{
name = top;
pos = (362,530);
}
);
background = {
shapes = (
{
pos = (4,0);
ref = o;
}
);
};
layerId = m004;
shapes = (
{
closed = 1;
nodes = (
(392,-12,o),
(461,41,o),
(512,140,c),
(386,196,l),
(358,139,o),
(327,116,o),
(287,116,cs),
(233,116,o),
(195,143,o),
(195,208,cs),
(195,281,o),
(243,420,o),
(338,420,cs),
(400,420,o),
(415,385,o),
(412,344,c),
(565,372,l),
(564,485,o),
(468,542,o),
(344,542,cs),
(152,542,o),
(39,360,o),
(39,210,cs),
(39,63,o),
(154,-12,o),
(289,-12,cs)
);
}
);
width = 571;
},
{
anchors = (
{
name = bottom;
pos = (302,0);
},
{
name = top;
pos = (302,530);
}
);
background = {
anchors = (
{
name = bottom;
pos = (302,0);
},
{
name = top;
pos = (302,530);
}
);
shapes = (
{
closed = 1;
nodes = (
(411,131,o),
(389,124,o),
(362,124,c),
(330,124,o),
(303,135,o),
(283,158,c),
(263,181,o),
(252,214,o),
(252,257,c),
(252,306,o),
(263,343,o),
(284,367,c),
(304,391,o),
(331,403,o),
(365,403,c),
(392,403,o),
(413,397,o),
(429,386,c),
(445,374,o),
(456,357,o),
(462,334,c),
(652,360,l),
(635,419,o),
(603,464,o),
(557,496,c),
(511,527,o),
(446,542,o),
(359,542,c),
(297,542,o),
(246,534,o),
(207,518,c),
(182,507,o),
(157,492,o),
(134,470,c),
(111,449,o),
(92,425,o),
(78,399,c),
(59,363,o),
(50,317,o),
(50,262,c),
(50,211,o),
(58,169,o),
(73,137,c),
(88,105,o),
(110,78,o),
(136,55,c),
(163,31,o),
(195,14,o),
(233,4,c),
(271,-7,o),
(317,-12,o),
(373,-12,c),
(432,-12,o),
(479,-4,o),
(517,13,c),
(555,29,o),
(586,52,o),
(611,81,c),
(635,110,o),
(652,145,o),
(662,186,c),
(469,208,l),
(461,179,o),
(448,158,o),
(429,145,c)
);
}
);
};
layerId = m005;
shapes = (
{
closed = 1;
nodes = (
(534,-12,o),
(619,53,o),
(655,170,c),
(454,202,l),
(448,158,o),
(412,133,o),
(366,133,cs),
(299,133,o),
(257,168,o),
(257,263,cs),
(257,363,o),
(300,400,o),
(363,400,cs),
(415,400,o),
(446,379,o),
(454,338,c),
(652,375,l),
(620,480,o),
(536,542,o),
(356,542,cs),
(159,542,o),
(40,434,o),
(40,263,cs),
(40,94,o),
(156,-12,o),
(365,-12,cs)
);
}
);
width = 680;
},
{
anchors = (
{
name = bottom;
pos = (286,0);
},
{
name = top;
pos = (286,530);
}
);
background = {
anchors = (
{
name = bottom;
pos = (302,0);
},
{
name = top;
pos = (302,530);
}
);
};
layerId = "E9CDC47A-CC1A-45B5-BC95-53360E087AF1";
shapes = (
{
closed = 1;
nodes = (
(431,-12,o),
(513,56,o),
(525,196,c),
(329,218,l),
(327,150,o),
(314,133,o),
(291,133,cs),
(260,133,o),
(241,168,o),
(241,263,cs),
(241,363,o),
(260,400,o),
(289,400,cs),
(315,400,o),
(327,380,o),
(329,318,c),
(521,345,l),
(511,466,o),
(434,542,o),
(283,542,cs),
(118,542,o),
(28,434,o),
(28,263,cs),
(28,94,o),
(116,-12,o),
(291,-12,cs)
);
}
);
width = 540;
}
);
metricLeft = o;
unicode = 99;
},
{
glyphname = d;
kernLeft = o;
kernRight = l;
lastChange = "2022-10-26 10:03:00 +0000";
layers = (
{
anchors = (
{
name = bottom;
pos = (326,0);
},
{
name = center;
pos = (483,635);
},
{
name = top;
pos = (511,736);
},
{
name = topright;
pos = (558,736);
}
);
background = {
anchors = (
{
name = bottom;
pos = (347,0);
},
{
name = ogonek;
pos = (639,0);
},
{
name = top;
pos = (335,520);
}
);
shapes = (
{
closed = 1;
nodes = (
(611,0,l),
(572,45,o),
(558,90,o),
(558,126,cs),
(558,370,ls),
(558,471,o),
(485,532,o),
(333,532,cs),
(207,532,o),
(135,481,o),
(108,402,c),
(206,376,l),
(218,428,o),
(262,450,o),
(333,450,cs),
(419,450,o),
(465,425,o),
(465,360,cs),
(465,111,ls),
(465,65,o),
(481,30,o),
(501,0,c)
);
},
{
closed = 1;
nodes = (
(396,-10,o),
(468,45,o),
(504,150,c),
(472,186,l),
(444,101,o),
(388,70,o),
(320,70,cs),
(241,70,o),
(205,102,o),
(205,156,cs),
(205,203,o),
(227,242,o),
(405,267,cs),
(512,282,l),
(498,344,l),
(393,331,ls),
(163,302,o),
(112,241,o),
(112,153,cs),
(112,43,o),
(198,-10,o),
(296,-10,cs)
);
}
);
};
layerId = m01;
shapes = (
{
closed = 1;
nodes = (
(418,-12,o),
(498,90,o),
(498,260,cs),
(498,430,o),
(418,532,o),
(289,532,cs),
(159,532,o),
(60,432,o),
(60,259,cs),
(60,90,o),
(159,-12,o),
(289,-12,cs)
);
},
{
closed = 1;
nodes = (
(221,68,o),
(154,126,o),
(154,259,cs),
(154,396,o),
(221,454,o),
(309,454,cs),
(397,454,o),
(464,396,o),
(464,259,cs),
(464,126,o),
(397,68,o),
(309,68,cs)
);
},
{
closed = 1;
nodes = (
(558,0,l),
(558,736,l),
(464,736,l),
(464,111,l),
(468,0,l)
);
}
);
width = 646;
},
{
anchors = (
{
name = bottom;
pos = (322,0);
},
{
name = center;
pos = (476,651);
},
{
name = top;
pos = (491,736);
},
{
name = topright;
pos = (568,736);
}
);
background = {
shapes = (
{
pos = (56,0);
ref = a;
}
);
};
layerId = m002;
shapes = (
{
closed = 1;
nodes = (
(388,-12,o),
(448,95,o),
(448,264,cs),
(448,435,o),
(388,542,o),
(265,542,cs),
(136,542,o),
(42,437,o),
(42,264,cs),
(42,95,o),
(136,-12,o),
(265,-12,cs)
);
},
{
closed = 1;
nodes = (
(246,104,o),
(200,149,o),
(200,270,cs),
(200,389,o),
(246,432,o),
(307,432,cs),
(368,432,o),
(414,389,o),
(414,270,cs),
(414,148,o),
(368,104,o),
(307,104,cs)
);
},
{
closed = 1;
nodes = (
(586,0,l),
(575,15,o),
(568,38,o),
(568,74,cs),
(568,736,l),
(414,736,l),
(414,74,ls),
(414,36,o),
(420,17,o),
(433,0,c)
);
}
);
width = 631;
},
{
anchors = (
{
name = bottom;
pos = (229,3);
},
{
name = center;
pos = (589,635);
},
{
name = top;
pos = (644,736);
},
{
name = topright;
pos = (696,736);
}
);
background = {
shapes = (
{
pos = (1,0);
ref = o;
}
);
};
layerId = m003;
shapes = (
{
closed = 1;
nodes = (
(420,-12,o),
(512,216,o),
(512,355,cs),
(512,466,o),
(458,532,o),
(353,532,cs),
(163,532,o),
(51,339,o),
(51,186,cs),
(51,65,o),
(135,-12,o),
(237,-12,cs)
);
},
{
closed = 1;
nodes = (
(199,66,o),
(145,109,o),
(145,195,cs),
(145,291,o),
(216,453,o),
(355,453,cs),
(420,453,o),
(474,416,o),
(474,326,cs),
(474,224,o),
(407,66,o),
(266,66,cs)
);
},
{
closed = 1;
nodes = (
(541,0,l),
(521,77,o),
(521,109,o),
(578,314,cs),
(696,736,l),
(602,736,l),
(486,321,ls),
(428,114,o),
(428,70,o),
(441,0,c)
);
}
);
width = 656;
},
{
anchors = (
{
name = bottom;
pos = (325,0);
},
{
name = center;
pos = (479,651);
},
{
name = top;
pos = (625,736);
},
{
name = topright;
pos = (711,736);
}
);
background = {
shapes = (
{
closed = 1;
nodes = (
(561,736,l),
(407,736,l),
(407,133,l),
(415,0,l),
(561,0,l)
);
},
{
closed = 1;
nodes = (
(381,-12,o),
(441,95,o),
(441,264,cs),
(441,435,o),
(381,542,o),
(258,542,cs),
(129,542,o),
(35,437,o),
(35,264,cs),
(35,95,o),
(129,-12,o),
(258,-12,cs)
);
},
{
closed = 1;
nodes = (
(239,104,o),
(193,149,o),
(193,270,cs),
(193,389,o),
(239,432,o),
(300,432,cs),
(361,432,o),
(407,389,o),
(407,270,cs),
(407,148,o),
(361,104,o),
(300,104,cs)
);
}
);
};
layerId = m004;
shapes = (
{
closed = 1;
nodes = (
(35,51,o),
(127,-11,o),
(217,-11,cs),
(387,-11,o),
(467,247,o),
(467,377,cs),
(467,483,o),
(413,542,o),
(315,542,cs),
(133,542,o),
(35,331,o),
(35,189,cs)
);
},
{
closed = 1;
nodes = (
(228,99,o),
(192,127,o),
(192,194,cs),
(192,272,o),
(239,426,o),
(340,426,cs),
(393,426,o),
(427,392,o),
(427,331,cs),
(427,257,o),
(381,99,o),
(280,99,cs)
);
},
{
closed = 1;
nodes = (
(545,0,l),
(537,86,o),
(540,130,o),
(593,317,cs),
(711,736,l),
(553,736,l),
(437,325,ls),
(379,121,o),
(377,81,o),
(380,0,c)
);
}
);
width = 649;
},
{
anchors = (
{
name = bottom;
pos = (306,0);
},
{
name = center;
pos = (512,631);
},
{
name = top;
pos = (306,710);
},
{
name = topright;
pos = (621,710);
}
);
background = {
anchors = (
{
name = bottom;
pos = (322,0);
},
{
name = center;
pos = (440,642);
},
{
name = top;
pos = (492,736);
}
);
};
layerId = m005;
shapes = (
{
closed = 1;
nodes = (
(621,710,l),
(415,710,l),
(415,133,l),
(418,117,l),
(440,0,l),
(621,0,l)
);
},
{
closed = 1;
nodes = (
(409,-12,o),
(474,95,o),
(474,264,cs),
(474,435,o),
(409,542,o),
(276,542,cs),
(141,542,o),
(40,437,o),
(40,264,cs),
(40,95,o),
(141,-12,o),
(276,-12,cs)
);
},
{
closed = 1;
nodes = (
(288,141,o),
(251,174,o),
(251,271,cs),
(251,370,o),
(288,403,o),
(333,403,cs),
(378,403,o),
(415,370,o),
(415,271,cs),
(415,174,o),
(378,141,o),
(333,141,cs)
);
}
);
width = 681;
},
{
anchors = (
{
name = bottom;
pos = (215,0);
},
{
name = center;
pos = (421,631);
},
{
name = top;
pos = (215,710);
},
{
name = topright;
pos = (530,710);
}
);
background = {
anchors = (
{
name = bottom;
pos = (231,0);
},
{
name = center;
pos = (349,642);
},
{
name = top;
pos = (401,736);
}
);
};
layerId = "E9CDC47A-CC1A-45B5-BC95-53360E087AF1";
shapes = (
{
closed = 1;
nodes = (
(337,-12,o),
(391,95,o),
(391,264,cs),
(391,435,o),
(337,542,o),
(222,542,cs),
(112,542,o),
(28,437,o),
(28,264,cs),
(28,95,o),
(112,-12,o),
(222,-12,cs)
);
},
{
closed = 1;
nodes = (
(251,131,o),
(236,158,o),
(236,261,cs),
(236,364,o),
(251,393,o),
(280,393,cs),
(309,393,o),
(324,364,o),
(324,261,cs),
(324,158,o),
(309,131,o),
(280,131,cs)
);
},
{
closed = 1;
nodes = (
(530,0,l),
(530,710,l),
(324,710,l),
(324,133,l),
(357,117,l),
(389,0,l)
);
}
);
width = 567;
}
);
metricLeft = o;
unicode = 100;
},
{
glyphname = e;
kernLeft = o;
kernRight = e;
lastChange = "2022-10-26 07:22:21 +0000";
layers = (
{
anchors = (
{
name = bottom;
pos = (306,0);
},
{
name = ogonek;
pos = (497,49);
},
{
name = top;
pos = (306,520);
}
);
layerId = m01;
shapes = (
{
closed = 1;
nodes = (
(436,-12,o),
(506,45,o),
(531,122,c),
(442,152,l),
(423,93,o),
(387,67,o),
(313,67,cs),
(216,67,o),
(152,125,o),
(152,262,cs),
(152,388,o),
(216,453,o),
(304,453,cs),
(390,453,o),
(444,400,o),
(444,296,cs),
(444,290,o),
(444,285,o),
(444,279,c),
(483,307,l),
(128,307,l),
(128,235,l),
(534,235,l),
(536,256,o),
(536,273,o),
(536,294,cs),
(536,440,o),
(435,532,o),
(304,532,cs),
(170,532,o),
(60,430,o),
(60,262,cs),
(60,92,o),
(163,-12,o),
(315,-12,cs)
);
}
);
width = 593;
},
{
anchors = (
{
name = bottom;
pos = (302,0);
},
{
name = ogonek;
pos = (483,40);
},
{
name = top;
pos = (305,530);
}
);
layerId = m002;
shapes = (
{
closed = 1;
nodes = (
(438,-12,o),
(520,31,o),
(553,117,c),
(403,147,l),
(394,113,o),
(365,98,o),
(310,98,cs),
(241,98,o),
(192,140,o),
(192,258,cs),
(192,388,o),
(242,435,o),
(307,435,cs),
(371,435,o),
(413,383,o),
(413,283,cs),
(413,274,o),
(413,262,o),
(413,253,c),
(443,313,l),
(136,313,l),
(136,221,l),
(559,221,l),
(560,235,o),
(560,250,o),
(560,265,cs),
(560,434,o),
(461,542,o),
(307,542,cs),
(151,542,o),
(42,432,o),
(42,258,cs),
(42,92,o),
(144,-12,o),
(310,-12,cs)
);
}
);
width = 595;
},
{
anchors = (
{
name = bottom;
pos = (226,1);
},
{
name = ogonek;
pos = (445,42);
},
{
name = top;
pos = (362,518);
}
);
background = {
shapes = (
{
ref = o;
},
{
ref = c;
}
);
};
layerId = m003;
shapes = (
{
closed = 1;
nodes = (
(369,-12,o),
(444,25,o),
(492,90,c),
(414,145,l),
(381,92,o),
(338,68,o),
(269,68,cs),
(203,68,o),
(143,107,o),
(143,197,cs),
(143,286,o),
(207,453,o),
(340,453,cs),
(406,453,o),
(444,419,o),
(444,359,cs),
(444,332,o),
(438,302,o),
(425,267,c),
(463,292,l),
(136,292,l),
(115,221,l),
(510,221,l),
(525,269,o),
(534,318,o),
(534,361,cs),
(534,464,o),
(461,532,o),
(350,532,cs),
(163,532,o),
(52,335,o),
(52,193,cs),
(52,57,o),
(145,-12,o),
(266,-12,cs)
);
}
);
width = 586;
},
{
anchors = (
{
name = bottom;
pos = (306,0);
},
{
name = ogonek;
pos = (437,28);
},
{
name = top;
pos = (354,530);
}
);
background = {
shapes = (
{
closed = 1;
nodes = (
(367,-12,o),
(452,40,o),
(501,125,c),
(379,160,l),
(351,116,o),
(313,98,o),
(266,98,cs),
(198,98,o),
(161,139,o),
(193,256,cs),
(231,388,o),
(289,435,o),
(351,435,cs),
(411,435,o),
(431,399,o),
(403,301,cs),
(399,287,o),
(394,270,o),
(390,256,c),
(449,316,l),
(154,316,l),
(127,218,l),
(535,218,l),
(540,234,o),
(545,251,o),
(550,269,cs),
(597,436,o),
(534,542,o),
(384,542,cs),
(231,542,o),
(93,431,o),
(43,256,cs),
(-3,91,o),
(78,-12,o),
(235,-12,cs)
);
}
);
};
layerId = m004;
shapes = (
{
closed = 1;
nodes = (
(148,-12,o),
(290,-12,cs),
(387,-12,o),
(453,26,o),
(507,88,c),
(393,155,l),
(357,115,o),
(325,100,o),
(286,100,cs),
(226,100,o),
(185,128,o),
(185,197,cs),
(185,273,o),
(236,435,o),
(337,435,cs),
(375,435,o),
(413,417,o),
(413,360,cs),
(413,333,o),
(399,284,o),
(382,237,c),
(443,309,l),
(148,309,l),
(121,211,l),
(529,211,l),
(544,248,o),
(559,292,o),
(559,342,cs),
(559,478,o),
(458,542,o),
(343,542,cs),
(148,542,o),
(38,349,o),
(38,206,cs),
(38,62,o)
);
}
);
width = 597;
},
{
anchors = (
{
name = bottom;
pos = (337,0);
},
{
name = ogonek;
pos = (571,42);
},
{
name = top;
pos = (348,530);
}
);
background = {
shapes = (
{
closed = 1;
nodes = (
(648,238,l),
(648,308,o),
(636,364,o),
(613,408,c),
(590,451,o),
(557,485,o),
(513,508,c),
(469,530,o),
(410,542,o),
(334,542,c),
(241,542,o),
(167,516,o),
(114,465,c),
(61,414,o),
(35,347,o),
(35,264,c),
(35,206,o),
(48,156,o),
(75,113,c),
(101,70,o),
(134,38,o),
(174,19,c),
(215,-1,o),
(270,-11,o),
(340,-11,c),
(421,-11,o),
(483,1,o),
(526,24,c),
(569,47,o),
(606,85,o),
(636,138,c),
(436,156,l),
(424,140,o),
(412,129,o),
(401,123,c),
(383,113,o),
(364,108,o),
(344,108,c),
(313,108,o),
(287,120,o),
(268,142,c),
(254,158,o),
(245,183,o),
(241,215,c),
(648,215,l)
);
},
{
closed = 1;
nodes = (
(242,312,l),
(245,344,o),
(253,368,o),
(265,384,c),
(284,409,o),
(310,422,o),
(342,422,c),
(370,422,o),
(393,413,o),
(410,396,c),
(427,380,o),
(437,351,o),
(441,312,c)
);
},
{
pos = (-5,0);
ref = o;
}
);
};
layerId = m005;
shapes = (
{
closed = 1;
nodes = (
(530,-12,o),
(602,42,o),
(631,127,c),
(437,164,l),
(423,132,o),
(393,119,o),
(350,119,cs),
(292,119,o),
(250,156,o),
(250,258,cs),
(250,380,o),
(291,423,o),
(346,423,cs),
(401,423,o),
(433,389,o),
(433,294,cs),
(433,283,o),
(433,269,o),
(433,258,c),
(488,316,l),
(174,316,l),
(174,223,l),
(645,223,l),
(646,237,o),
(646,253,o),
(646,269,cs),
(646,436,o),
(532,542,o),
(349,542,cs),
(167,542,o),
(40,431,o),
(40,256,cs),
(40,91,o),
(168,-12,o),
(352,-12,cs)
);
}
);
width = 678;
},
{
anchors = (
{
name = bottom;
pos = (292,0);
},
{
name = ogonek;
pos = (494,63);
},
{
name = top;
pos = (290,530);
}
);
background = {
shapes = (
{
ref = o;
}
);
};
layerId = "E9CDC47A-CC1A-45B5-BC95-53360E087AF1";
shapes = (
{
closed = 1;
nodes = (
(431,-12,o),
(503,47,o),
(525,127,c),
(341,164,l),
(335,133,o),
(316,119,o),
(290,119,cs),
(256,119,o),
(238,150,o),
(238,258,cs),
(238,385,o),
(255,423,o),
(287,423,cs),
(320,423,o),
(333,394,o),
(333,300,cs),
(333,299,o),
(333,275,o),
(333,264,c),
(384,322,l),
(161,322,l),
(161,229,l),
(538,229,l),
(538,242,o),
(538,256,o),
(538,271,cs),
(538,437,o),
(444,542,o),
(290,542,cs),
(134,542,o),
(28,431,o),
(28,256,cs),
(28,91,o),
(139,-12,o),
(294,-12,cs)
);
}
);
width = 563;
}
);
metricLeft = o;
unicode = 101;
},
{
glyphname = f;
kernLeft = f;
kernRight = f;
lastChange = "2022-08-03 02:37:12 +0000";
layers = (
{
anchors = (
{
name = bottom;
pos = (158,0);
},
{
name = top;
pos = (158,736);
}
);
layerId = m01;
shapes = (
{
closed = 1;
nodes = (
(198,0,l),
(198,612,ls),
(198,651,o),
(216,662,o),
(268,662,cs),
(286,662,o),
(299,662,o),
(317,657,c),
(317,742,l),
(294,747,o),
(268,748,o),
(238,748,cs),
(134,748,o),
(106,715,o),
(106,659,cs),
(106,0,l)
);
},
{
closed = 1;
nodes = (
(297,443,l),
(297,520,l),
(18,520,l),
(18,443,l)
);
}
);
width = 316;
},
{
anchors = (
{
name = bottom;
pos = (175,0);
},
{
name = top;
pos = (175,736);
}
);
layerId = m002;
shapes = (
{
closed = 1;
nodes = (
(250,0,l),
(250,595,ls),
(250,629,o),
(255,641,o),
(307,641,cs),
(342,641,o),
(354,638,o),
(364,629,c),
(364,741,l),
(349,746,o),
(323,748,o),
(239,748,cs),
(124,748,o),
(96,723,o),
(96,648,cs),
(96,0,l)
);
},
{
closed = 1;
nodes = (
(351,423,l),
(351,530,l),
(6,530,l),
(6,423,l)
);
}
);
width = 364;
},
{
anchors = (
{
name = bottom;
pos = (84,0);
},
{
name = top;
pos = (295,736);
}
);
layerId = m003;
shapes = (
{
closed = 1;
nodes = (
(94,-113,l),
(272,516,l),
(272,617,o),
(319,665,o),
(378,665,cs),
(410,665,o),
(440,651,o),
(459,626,c),
(513,697,l),
(486,731,o),
(439,748,o),
(378,748,cs),
(264,748,o),
(179,657,o),
(179,515,c),
(0,-113,l)
);
},
{
closed = 1;
nodes = (
(360,443,l),
(382,520,l),
(93,520,l),
(71,443,l)
);
}
);
width = 330;
},
{
anchors = (
{
name = bottom;
pos = (56,-116);
},
{
name = top;
pos = (375,736);
}
);
layerId = m004;
shapes = (
{
closed = 1;
nodes = (
(118,-200,l),
(324,531,l),
(318,618,o),
(359,642,o),
(406,642,cs),
(431,642,o),
(456,633,o),
(475,614,c),
(539,721,l),
(507,739,o),
(465,748,o),
(412,748,cs),
(262,748,o),
(166,674,o),
(166,532,c),
(-40,-200,l)
);
},
{
closed = 1;
nodes = (
(375,423,l),
(405,530,l),
(86,530,l),
(56,423,l)
);
}
);
width = 380;
},
{
anchors = (
{
name = bottom;
pos = (185,0);
},
{
name = top;
pos = (185,736);
}
);
background = {
shapes = (
{
closed = 1;
nodes = (
(295,589,o),
(301,599,o),
(309,605,c),
(317,612,o),
(330,615,o),
(348,615,c),
(363,615,o),
(383,613,o),
(407,609,c),
(430,731,l),
(362,740,o),
(310,744,o),
(274,744,c),
(230,744,o),
(196,739,o),
(173,729,c),
(150,718,o),
(132,705,o),
(119,689,c),
(106,672,o),
(97,651,o),
(93,625,c),
(88,599,o),
(86,575,o),
(86,554,c),
(86,530,l),
(10,530,l),
(10,381,l),
(86,381,l),
(86,0,l),
(289,0,l),
(289,381,l),
(386,381,l),
(386,530,l),
(289,530,l),
(289,553,o),
(290,569,o),
(292,576,c)
);
},
{
closed = 1;
nodes = (
(496,477,l),
(456,434,o),
(436,371,o),
(436,288,c),
(436,216,o),
(451,158,o),
(482,114,c)
);
}
);
};
layerId = m005;
shapes = (
{
closed = 1;
nodes = (
(304,0,l),
(304,568,ls),
(304,598,o),
(316,607,o),
(363,607,cs),
(382,607,o),
(397,605,o),
(408,601,c),
(408,736,l),
(382,743,o),
(330,748,o),
(269,748,cs),
(120,748,o),
(90,694,o),
(90,613,cs),
(90,0,l)
);
},
{
closed = 1;
nodes = (
(385,383,l),
(385,530,l),
(10,530,l),
(10,383,l)
);
}
);
width = 396;
},
{
anchors = (
{
name = bottom;
pos = (157,0);
},
{
name = top;
pos = (217,736);
}
);
background = {
shapes = (
{
closed = 1;
nodes = (
(295,589,o),
(301,599,o),
(309,605,c),
(317,612,o),
(330,615,o),
(348,615,c),
(363,615,o),
(383,613,o),
(407,609,c),
(430,731,l),
(362,740,o),
(310,744,o),
(274,744,c),
(230,744,o),
(196,739,o),
(173,729,c),
(150,718,o),
(132,705,o),
(119,689,c),
(106,672,o),
(97,651,o),
(93,625,c),
(88,599,o),
(86,575,o),
(86,554,c),
(86,530,l),
(10,530,l),
(10,381,l),
(86,381,l),
(86,0,l),
(289,0,l),
(289,381,l),
(386,381,l),
(386,530,l),
(289,530,l),
(289,553,o),
(290,569,o),
(292,576,c)
);
},
{
closed = 1;
nodes = (
(496,477,l),
(456,434,o),
(436,371,o),
(436,288,c),
(436,216,o),
(451,158,o),
(482,114,c)
);
}
);
};
layerId = "E9CDC47A-CC1A-45B5-BC95-53360E087AF1";
shapes = (
{
closed = 1;
nodes = (
(284,0,l),
(284,568,ls),
(284,598,o),
(293,607,o),
(335,607,cs),
(346,607,o),
(358,605,o),
(364,601,c),
(364,736,l),
(341,743,o),
(288,748,o),
(234,748,cs),
(95,748,o),
(70,694,o),
(70,613,cs),
(70,0,l)
);
},
{
closed = 1;
nodes = (
(346,383,l),
(346,530,l),
(7,530,l),
(7,383,l)
);
}
);
width = 347;
}
);
unicode = 102;
},
{
glyphname = g;
kernLeft = g;
kernRight = g;
lastChange = "2022-10-27 01:26:37 +0000";
layers = (
{
anchors = (
{
name = bottom;
pos = (315,-200);
},
{
name = top;
pos = (315,520);
}
);
layerId = m01;
shapes = (
{
closed = 1;
nodes = (
(456,-200,o),
(542,-121,o),
(542,-6,cs),
(542,520,l),
(452,520,l),
(450,387,l),
(448,387,l),
(448,0,ls),
(448,-80,o),
(405,-122,o),
(297,-122,cs),
(215,-122,o),
(171,-103,o),
(171,-54,c),
(65,-47,l),
(65,-153,o),
(167,-200,o),
(299,-200,cs)
);
},
{
closed = 1;
nodes = (
(406,10,o),
(485,108,o),
(485,271,cs),
(485,434,o),
(406,532,o),
(279,532,cs),
(152,532,o),
(56,436,o),
(56,270,cs),
(56,108,o),
(152,10,o),
(279,10,cs)
);
},
{
closed = 1;
nodes = (
(214,88,o),
(150,143,o),
(150,270,cs),
(150,399,o),
(214,454,o),
(299,454,cs),
(384,454,o),
(448,399,o),
(448,270,cs),
(448,143,o),
(384,88,o),
(299,88,cs)
);
}
);
width = 630;
},
{
anchors = (
{
name = bottom;
pos = (317,-200);
},
{
name = top;
pos = (317,530);
}
);
layerId = m002;
metricLeft = "=o";
shapes = (
{
closed = 1;
nodes = (
(464,-200,o),
(558,-123,o),
(558,5,cs),
(558,530,l),
(412,530,l),
(404,397,l),
(404,15,ls),
(404,-56,o),
(372,-91,o),
(296,-91,cs),
(245,-91,o),
(220,-80,o),
(220,-53,cs),
(220,-50,o),
(220,-48,o),
(222,-45,c),
(52,-36,l),
(56,-156,o),
(170,-200,o),
(300,-200,cs)
);
},
{
closed = 1;
nodes = (
(380,12,o),
(438,116,o),
(438,276,cs),
(438,435,o),
(380,542,o),
(260,542,cs),
(134,542,o),
(42,435,o),
(42,276,cs),
(42,116,o),
(134,12,o),
(260,12,cs)
);
},
{
closed = 1;
nodes = (
(244,129,o),
(200,171,o),
(200,282,cs),
(200,393,o),
(244,430,o),
(302,430,cs),
(360,430,o),
(404,394,o),
(404,282,cs),
(404,170,o),
(360,129,o),
(302,129,cs)
);
}
);
width = 633;
},
{
anchors = (
{
name = bottom;
pos = (188,-200);
},
{
name = top;
pos = (395,520);
}
);
layerId = m003;
shapes = (
{
closed = 1;
nodes = (
(335,-200,o),
(438,-124,o),
(476,11,cs),
(619,520,l),
(540,520,l),
(482,370,l),
(387,31,ls),
(359,-70,o),
(292,-118,o),
(198,-118,cs),
(120,-118,o),
(81,-93,o),
(76,-42,c),
(-42,-71,l),
(-17,-149,o),
(55,-200,o),
(188,-200,cs)
);
},
{
closed = 1;
nodes = (
(408,11,o),
(502,224,o),
(502,361,cs),
(502,469,o),
(447,532,o),
(342,532,cs),
(157,532,o),
(52,334,o),
(52,196,cs),
(52,83,o),
(122,11,o),
(227,11,cs)
);
},
{
closed = 1;
nodes = (
(195,86,o),
(146,125,o),
(146,204,cs),
(146,295,o),
(212,452,o),
(346,452,cs),
(414,452,o),
(461,414,o),
(461,335,cs),
(461,243,o),
(400,86,o),
(261,86,cs)
);
}
);
width = 640;
},
{
anchors = (
{
name = bottom;
pos = (295,-200);
},
{
name = top;
pos = (295,530);
}
);
background = {
shapes = (
{
closed = 1;
nodes = (
(343,-200,o),
(452,-134,o),
(483,-25,cs),
(639,530,l),
(493,530,l),
(447,397,l),
(334,-5,ls),
(318,-61,o),
(282,-89,o),
(213,-89,cs),
(155,-89,o),
(129,-79,o),
(137,-53,cs),
(138,-49,o),
(139,-45,o),
(143,-39,c),
(-7,-16,l),
(-13,-28,o),
(-18,-41,o),
(-21,-51,cs),
(-50,-154,o),
(42,-200,o),
(185,-200,cs)
);
}
);
};
layerId = m004;
metricLeft = "=o";
shapes = (
{
closed = 1;
nodes = (
(350,-203,o),
(452,-151,o),
(504,34,cs),
(643,530,l),
(493,530,l),
(442,380,l),
(351,53,ls),
(317,-66,o),
(274,-89,o),
(213,-89,cs),
(164,-89,o),
(121,-76,o),
(121,-34,c),
(-45,-68,l),
(-23,-170,o),
(107,-203,o),
(214,-203,cs)
);
},
{
closed = 1;
nodes = (
(381,21,o),
(459,254,o),
(459,382,cs),
(459,480,o),
(412,542,o),
(310,542,cs),
(141,542,o),
(41,354,o),
(41,215,cs),
(41,82,o),
(131,21,o),
(221,21,cs)
);
},
{
closed = 1;
nodes = (
(233,131,o),
(198,158,o),
(198,221,cs),
(198,292,o),
(238,426,o),
(333,426,cs),
(383,426,o),
(420,402,o),
(420,339,cs),
(420,272,o),
(378,131,o),
(283,131,cs)
);
}
);
width = 645;
},
{
anchors = (
{
name = bottom;
pos = (310,-200);
},
{
name = top;
pos = (310,530);
}
);
background = {
shapes = (
{
closed = 1;
nodes = (
(430,455,l),
(406,486,o),
(382,509,o),
(356,523,c),
(330,536,o),
(298,543,o),
(257,543,c),
(194,543,o),
(144,521,o),
(106,479,c),
(67,439,o),
(48,377,o),
(48,297,c),
(48,227,o),
(63,171,o),
(92,129,c),
(135,69,o),
(190,39,o),
(258,39,c),
(294,39,o),
(326,47,o),
(357,62,c),
(377,73,o),
(396,89,o),
(415,112,c),
(415,35,l),
(415,-3,o),
(408,-29,o),
(394,-45,c),
(381,-60,o),
(359,-67,o),
(330,-67,c),
(309,-67,o),
(291,-63,o),
(276,-52,c),
(266,-45,o),
(258,-33,o),
(254,-15,c),
(63,6,l),
(63,-4,o),
(61,-14,o),
(61,-19,c),
(61,-72,o),
(80,-113,o),
(120,-144,c),
(158,-176,o),
(228,-191,o),
(332,-191,c),
(377,-191,o),
(417,-187,o),
(453,-178,c),
(487,-170,o),
(517,-158,o),
(538,-139,c),
(561,-121,o),
(579,-98,o),
(593,-68,c),
(608,-40,o),
(614,-9,o),
(614,24,c),
(613,46,l),
(613,531,l),
(430,531,l)
);
},
{
closed = 1;
nodes = (
(281,391,o),
(302,401,o),
(326,401,c),
(352,401,o),
(372,390,o),
(390,371,c),
(408,350,o),
(416,322,o),
(416,285,c),
(416,247,o),
(408,220,o),
(391,201,c),
(375,182,o),
(355,172,o),
(330,172,c),
(304,172,o),
(283,182,o),
(268,199,c),
(251,217,o),
(243,246,o),
(243,282,c),
(243,324,o),
(251,354,o),
(266,373,c)
);
}
);
};
layerId = m005;
metricLeft = "=o";
shapes = (
{
closed = 1;
nodes = (
(624,530,l),
(438,530,l),
(427,413,l),
(413,397,l),
(413,0,ls),
(413,-40,o),
(390,-60,o),
(334,-60,cs),
(285,-60,o),
(254,-50,o),
(254,-15,c),
(48,6,l),
(31,-131,o),
(148,-196,o),
(334,-196,cs),
(522,-196,o),
(624,-122,o),
(624,0,cs)
);
},
{
closed = 1;
nodes = (
(400,40,o),
(462,139,o),
(462,295,cs),
(462,447,o),
(400,542,o),
(274,542,cs),
(140,542,o),
(40,447,o),
(40,290,cs),
(40,137,o),
(140,40,o),
(274,40,cs)
);
},
{
closed = 1;
nodes = (
(282,172,o),
(249,206,o),
(249,286,cs),
(249,367,o),
(282,403,o),
(331,403,cs),
(380,403,o),
(413,367,o),
(413,286,cs),
(413,206,o),
(380,172,o),
(331,172,cs)
);
}
);
width = 684;
},
{
anchors = (
{
name = bottom;
pos = (289,-185);
},
{
name = top;
pos = (310,530);
}
);
background = {
shapes = (
{
closed = 1;
nodes = (
(529,530,l),
(373,530,l),
(364,413,l),
(352,397,l),
(352,0,ls),
(352,-40,o),
(333,-60,o),
(286,-60,cs),
(245,-60,o),
(218,-50,o),
(218,-15,c),
(45,6,l),
(31,-131,o),
(129,-196,o),
(286,-196,cs),
(444,-196,o),
(529,-122,o),
(529,0,cs)
);
},
{
closed = 1;
nodes = (
(341,40,o),
(393,139,o),
(393,295,cs),
(393,447,o),
(341,542,o),
(235,542,cs),
(123,542,o),
(39,447,o),
(39,290,cs),
(39,137,o),
(123,40,o),
(235,40,cs)
);
},
{
closed = 1;
nodes = (
(242,172,o),
(214,206,o),
(214,286,cs),
(214,367,o),
(242,403,o),
(283,403,cs),
(324,403,o),
(352,367,o),
(352,286,cs),
(352,206,o),
(324,172,o),
(283,172,cs)
);
}
);
};
layerId = "E9CDC47A-CC1A-45B5-BC95-53360E087AF1";
metricLeft = "=o";
shapes = (
{
closed = 1;
nodes = (
(337,20,o),
(391,121,o),
(391,280,cs),
(391,441,o),
(337,542,o),
(222,542,cs),
(112,542,o),
(28,443,o),
(28,280,cs),
(28,121,o),
(112,20,o),
(222,20,cs)
);
},
{
closed = 1;
nodes = (
(251,163,o),
(236,187,o),
(236,277,cs),
(236,367,o),
(251,393,o),
(280,393,cs),
(309,393,o),
(324,367,o),
(324,277,cs),
(324,187,o),
(309,163,o),
(280,163,cs)
);
},
{
closed = 1;
nodes = (
(530,530,l),
(373,530,l),
(358,407,l),
(324,397,l),
(324,86,l),
(338,72,l),
(338,-6,ls),
(338,-42,o),
(318,-60,o),
(280,-60,cs),
(243,-60,o),
(218,-54,o),
(218,-35,c),
(45,-27,l),
(31,-142,o),
(129,-196,o),
(286,-196,cs),
(445,-196,o),
(530,-128,o),
(530,-16,cs)
);
}
);
width = 567;
}
);
metricRight = "=|n";
unicode = 103;
},
{
glyphname = h;
kernLeft = h;
kernRight = n;
lastChange = "2022-10-26 10:03:06 +0000";
layers = (
{
anchors = (
{
name = bottom;
pos = (320,0);
},
{
name = center;
pos = (179,621);
},
{
name = top;
pos = (320,736);
}
);
layerId = m01;
shapes = (
{
closed = 1;
nodes = (
(557,0,l),
(557,336,ls),
(557,468,o),
(473,532,o),
(355,532,cs),
(253,532,o),
(181,474,o),
(169,345,c),
(180,300,l),
(196,405,o),
(263,446,o),
(338,446,cs),
(420,446,o),
(463,410,o),
(463,326,cs),
(463,0,l)
);
},
{
closed = 1;
nodes = (
(182,0,l),
(182,736,l),
(88,736,l),
(88,0,l)
);
}
);
width = 641;
},
{
anchors = (
{
name = bottom;
pos = (317,0);
},
{
name = center;
pos = (176,629);
},
{
name = top;
pos = (317,736);
}
);
layerId = m002;
shapes = (
{
closed = 1;
nodes = (
(564,0,l),
(564,366,ls),
(564,481,o),
(484,542,o),
(391,542,cs),
(285,542,o),
(224,481,o),
(206,345,c),
(227,296,l),
(238,386,o),
(283,421,o),
(334,421,cs),
(384,421,o),
(410,391,o),
(410,331,cs),
(410,0,l)
);
},
{
closed = 1;
nodes = (
(229,0,l),
(229,736,l),
(75,736,l),
(75,0,l)
);
}
);
width = 634;
},
{
anchors = (
{
name = bottom;
pos = (250,0);
},
{
name = center;
pos = (292,629);
},
{
name = top;
pos = (280,736);
}
);
layerId = m003;
shapes = (
{
closed = 1;
nodes = (
(491,0,l),
(590,350,ls),
(621,458,o),
(550,527,o),
(447,527,cs),
(324,527,o),
(227,456,o),
(165,282,c),
(172,235,l),
(230,389,o),
(334,445,o),
(416,445,cs),
(476,445,o),
(511,408,o),
(493,344,cs),
(397,0,l)
);
},
{
closed = 1;
nodes = (
(112,0,l),
(324,736,l),
(230,736,l),
(18,0,l)
);
}
);
width = 654;
},
{
anchors = (
{
name = bottom;
pos = (208,0);
},
{
name = center;
pos = (248,629);
},
{
name = top;
pos = (420,736);
}
);
layerId = m004;
shapes = (
{
closed = 1;
nodes = (
(157,0,l),
(369,736,l),
(211,736,l),
(-1,0,l)
);
},
{
closed = 1;
nodes = (
(494,0,l),
(591,344,ls),
(625,465,o),
(559,538,o),
(467,538,cs),
(370,538,o),
(290,469,o),
(220,308,c),
(227,258,l),
(281,380,o),
(333,424,o),
(387,424,cs),
(427,424,o),
(446,388,o),
(431,334,cs),
(336,0,l)
);
}
);
width = 640;
},
{
anchors = (
{
name = bottom;
pos = (317,0);
},
{
name = center;
pos = (176,629);
},
{
name = top;
pos = (317,736);
}
);
layerId = m005;
shapes = (
{
closed = 1;
nodes = (
(629,0,l),
(629,376,ls),
(629,484,o),
(544,542,o),
(446,542,cs),
(329,542,o),
(261,481,o),
(241,345,c),
(272,296,l),
(281,357,o),
(318,381,o),
(359,381,cs),
(396,381,o),
(415,361,o),
(415,321,cs),
(415,0,l)
);
},
{
closed = 1;
nodes = (
(274,0,l),
(274,385,l),
(266,392,l),
(266,710,l),
(60,710,l),
(60,0,l)
);
}
);
width = 684;
},
{
anchors = (
{
name = bottom;
pos = (317,0);
},
{
name = center;
pos = (198,629);
},
{
name = top;
pos = (145,710);
}
);
layerId = "E9CDC47A-CC1A-45B5-BC95-53360E087AF1";
shapes = (
{
closed = 1;
nodes = (
(539,0,l),
(539,376,ls),
(539,484,o),
(466,542,o),
(390,542,cs),
(292,542,o),
(235,481,o),
(219,345,c),
(249,296,l),
(254,354,o),
(274,381,o),
(298,381,cs),
(316,381,o),
(325,360,o),
(325,321,cs),
(325,0,l)
);
},
{
closed = 1;
nodes = (
(251,0,l),
(251,380,l),
(246,399,l),
(246,710,l),
(37,710,l),
(37,0,l)
);
}
);
width = 572;
}
);
metricLeft = l;
metricRight = n;
unicode = 104;
},
{
glyphname = idotless;
kernLeft = i;
kernRight = i;
lastChange = "2022-08-03 02:37:12 +0000";
layers = (
{
anchors = (
{
name = bottom;
pos = (131,0);
},
{
name = ogonek;
pos = (178,0);
},
{
name = top;
pos = (131,520);
}
);
layerId = m01;
shapes = (
{
closed = 1;
nodes = (
(178,0,l),
(178,520,l),
(84,520,l),
(84,0,l)
);
}
);
width = 262;
},
{
anchors = (
{
name = bottom;
pos = (152,0);
},
{
name = ogonek;
pos = (229,0);
},
{
name = top;
pos = (152,530);
}
);
layerId = m002;
shapes = (
{
closed = 1;
nodes = (
(229,0,l),
(229,530,l),
(75,530,l),
(75,0,l)
);
}
);
width = 304;
},
{
anchors = (
{
name = bottom;
pos = (56,0);
},
{
name = ogonek;
pos = (103,0);
},
{
name = top;
pos = (206,520);
}
);
layerId = m003;
shapes = (
{
closed = 1;
nodes = (
(104,0,l),
(254,520,l),
(159,520,l),
(9,0,l)
);
}
);
width = 263;
},
{
anchors = (
{
name = bottom;
pos = (76,0);
},
{
name = ogonek;
pos = (153,0);
},
{
name = top;
pos = (228,530);
}
);
layerId = m004;
shapes = (
{
closed = 1;
nodes = (
(153,0,l),
(305,530,l),
(151,530,l),
(-1,0,l)
);
}
);
width = 304;
},
{
anchors = (
{
name = bottom;
pos = (167,0);
},
{
name = ogonek;
pos = (274,0);
},
{
name = top;
pos = (167,530);
}
);
layerId = m005;
shapes = (
{
closed = 1;
nodes = (
(274,0,l),
(274,530,l),
(60,530,l),
(60,0,l)
);
}
);
width = 334;
},
{
anchors = (
{
name = bottom;
pos = (144,0);
},
{
name = ogonek;
pos = (251,0);
},
{
name = top;
pos = (144,530);
}
);
layerId = "E9CDC47A-CC1A-45B5-BC95-53360E087AF1";
shapes = (
{
closed = 1;
nodes = (
(251,0,l),
(251,530,l),
(37,530,l),
(37,0,l)
);
}
);
width = 288;
}
);
metricLeft = n;
metricRight = "=|n";
unicode = 305;
},
{
glyphname = jdotless;
kernLeft = j;
kernRight = j;
lastChange = "2022-10-26 10:07:43 +0000";
layers = (
{
anchors = (
{
name = bottom;
pos = (131,-200);
},
{
name = top;
pos = (131,520);
}
);
layerId = m01;
metricRight = "=idotless";
shapes = (
{
closed = 1;
nodes = (
(151,-200,o),
(178,-169,o),
(178,-90,cs),
(178,520,l),
(84,520,l),
(84,-81,ls),
(84,-106,o),
(74,-116,o),
(47,-116,cs),
(28,-116,o),
(20,-116,o),
(9,-114,c),
(9,-193,l),
(22,-198,o),
(38,-200,o),
(84,-200,cs)
);
}
);
width = 262;
},
{
anchors = (
{
name = bottom;
pos = (152,-200);
},
{
name = top;
pos = (152,530);
}
);
background = {
shapes = (
{
ref = i;
}
);
};
layerId = m002;
metricRight = "=idotless";
shapes = (
{
closed = 1;
nodes = (
(216,-200,o),
(229,-177,o),
(229,-108,cs),
(229,530,l),
(75,530,l),
(75,-45,ls),
(75,-70,o),
(62,-79,o),
(27,-79,cs),
(10,-79,o),
(-1,-78,o),
(-11,-67,c),
(-11,-189,l),
(6,-198,o),
(41,-200,o),
(84,-200,cs)
);
}
);
width = 304;
},
{
anchors = (
{
name = bottom;
pos = (8,-200);
},
{
name = top;
pos = (204,520);
}
);
layerId = m003;
shapes = (
{
closed = 1;
nodes = (
(58,-200,o),
(131,-119,o),
(99,-17,c),
(253,520,l),
(158,520,l),
(15,18,l),
(44,-76,o),
(14,-122,o),
(-45,-122,cs),
(-71,-122,o),
(-93,-112,o),
(-108,-90,c),
(-192,-139,l),
(-151,-182,o),
(-95,-200,o),
(-48,-200,cs)
);
}
);
width = 263;
},
{
anchors = (
{
name = bottom;
pos = (19,-200);
},
{
name = top;
pos = (228,530);
}
);
background = {
shapes = (
{
ref = i;
}
);
};
layerId = m004;
metricRight = "=idotless";
shapes = (
{
closed = 1;
nodes = (
(81,-200,o),
(176,-135,o),
(155,-11,c),
(309,530,l),
(151,530,l),
(-3,-9,l),
(11,-62,o),
(-15,-88,o),
(-44,-88,cs),
(-71,-88,o),
(-90,-81,o),
(-108,-65,c),
(-210,-165,l),
(-163,-190,o),
(-113,-200,o),
(-53,-200,cs)
);
}
);
width = 304;
},
{
anchors = (
{
name = bottom;
pos = (152,-200);
},
{
name = top;
pos = (142,530);
}
);
background = {
shapes = (
{
ref = i;
}
);
};
layerId = m005;
metricRight = "=idotless";
shapes = (
{
closed = 1;
nodes = (
(217,-197,o),
(249,-164,o),
(249,-98,cs),
(249,530,l),
(35,530,l),
(35,-21,ls),
(35,-46,o),
(27,-56,o),
(2,-56,cs),
(-11,-56,o),
(-22,-55,o),
(-31,-51,c),
(-31,-191,l),
(-4,-196,o),
(43,-197,o),
(97,-197,cs)
);
}
);
width = 304;
},
{
anchors = (
{
name = bottom;
pos = (157,-200);
},
{
name = top;
pos = (144,530);
}
);
background = {
shapes = (
{
pos = (32,0);
ref = i;
}
);
};
layerId = "E9CDC47A-CC1A-45B5-BC95-53360E087AF1";
metricRight = "=idotless";
shapes = (
{
closed = 1;
nodes = (
(227,-197,o),
(251,-164,o),
(251,-98,cs),
(251,530,l),
(37,530,l),
(37,-21,ls),
(37,-46,o),
(33,-56,o),
(17,-56,cs),
(9,-56,o),
(2,-55,o),
(-2,-51,c),
(-1,-191,l),
(24,-196,o),
(72,-197,o),
(125,-197,cs)
);
}
);
width = 288;
},
{
anchors = (
{
name = bottom;
pos = (131,-200);
},
{
name = top;
pos = (131,520);
}
);
associatedMasterId = m01;
layerId = "5C31EFB8-2E2B-44D9-9BF7-831AE261CBB2";
metricRight = "=idotless";
name = "26 Oct 22, 21:07";
shapes = (
{
closed = 1;
nodes = (
(135,-200,o),
(178,-156,o),
(178,-88,cs),
(178,520,l),
(84,520,l),
(84,-81,ls),
(84,-106,o),
(68,-116,o),
(37,-116,cs),
(19,-116,o),
(2,-115,o),
(-19,-111,c),
(-24,-194,l),
(1,-198,o),
(25,-200,o),
(49,-200,cs)
);
}
);
width = 262;
}
);
metricRight = idotless;
unicode = 567;
},
{
glyphname = k;
kernLeft = h;
kernRight = k;
lastChange = "2022-10-26 10:03:09 +0000";
layers = (
{
anchors = (
{
name = bottom;
pos = (274,0);
},
{
name = top;
pos = (137,736);
}
);
layerId = m01;
shapes = (
{
closed = 1;
nodes = (
(523,520,l),
(400,520,l),
(132,244,l),
(132,138,l)
);
},
{
closed = 1;
nodes = (
(182,0,l),
(182,736,l),
(88,736,l),
(88,0,l)
);
},
{
closed = 1;
nodes = (
(550,0,l),
(284,373,l),
(226,302,l),
(435,0,l)
);
}
);
width = 553;
},
{
anchors = (
{
name = bottom;
pos = (297,0);
},
{
name = top;
pos = (150,736);
}
);
layerId = m002;
shapes = (
{
closed = 1;
nodes = (
(591,530,l),
(396,530,l),
(139,284,l),
(196,178,l)
);
},
{
closed = 1;
nodes = (
(229,0,l),
(229,736,l),
(75,736,l),
(75,0,l)
);
},
{
closed = 1;
nodes = (
(592,0,l),
(369,393,l),
(245,322,l),
(411,0,l)
);
}
);
width = 594;
},
{
anchors = (
{
name = bottom;
pos = (204,0);
},
{
name = top;
pos = (276,736);
}
);
layerId = m003;
shapes = (
{
closed = 1;
nodes = (
(613,520,l),
(480,520,l),
(132,244,l),
(112,138,l)
);
},
{
closed = 1;
nodes = (
(112,0,l),
(324,736,l),
(230,736,l),
(18,0,l)
);
},
{
closed = 1;
nodes = (
(480,0,l),
(321,373,l),
(253,302,l),
(375,0,l)
);
}
);
width = 558;
},
{
anchors = (
{
name = bottom;
pos = (230,0);
},
{
name = top;
pos = (289,736);
}
);
layerId = m004;
shapes = (
{
closed = 1;
nodes = (
(678,530,l),
(471,530,l),
(147,284,l),
(180,173,l)
);
},
{
closed = 1;
nodes = (
(162,0,l),
(368,736,l),
(210,736,l),
(4,0,l)
);
},
{
closed = 1;
nodes = (
(525,0,l),
(412,393,l),
(280,322,l),
(356,0,l)
);
}
);
width = 604;
},
{
anchors = (
{
name = bottom;
pos = (278,0);
},
{
name = top;
pos = (131,736);
}
);
background = {
shapes = (
{
closed = 1;
nodes = (
(61,732,l),
(61,0,l),
(269,0,l),
(269,138,l),
(345,212,l),
(452,0,l),
(681,0,l),
(480,344,l),
(670,530,l),
(420,530,l),
(269,354,l),
(269,732,l)
);
}
);
};
layerId = m005;
shapes = (
{
closed = 1;
nodes = (
(665,530,l),
(417,530,l),
(175,244,l),
(209,85,l)
);
},
{
closed = 1;
nodes = (
(270,0,l),
(270,710,l),
(60,710,l),
(60,0,l)
);
},
{
closed = 1;
nodes = (
(681,0,l),
(451,393,l),
(276,322,l),
(442,0,l)
);
}
);
width = 681;
},
{
anchors = (
{
name = bottom;
pos = (293,0);
},
{
name = top;
pos = (137,710);
}
);
background = {
shapes = (
{
closed = 1;
nodes = (
(61,732,l),
(61,0,l),
(269,0,l),
(269,138,l),
(345,212,l),
(452,0,l),
(681,0,l),
(480,344,l),
(670,530,l),
(420,530,l),
(269,354,l),
(269,732,l)
);
}
);
};
layerId = "E9CDC47A-CC1A-45B5-BC95-53360E087AF1";
shapes = (
{
closed = 1;
nodes = (
(583,530,l),
(343,530,l),
(160,244,l),
(185,85,l)
);
},
{
closed = 1;
nodes = (
(246,0,l),
(246,710,l),
(37,710,l),
(37,0,l)
);
},
{
closed = 1;
nodes = (
(599,0,l),
(419,393,l),
(240,322,l),
(365,0,l)
);
}
);
width = 598;
}
);
metricLeft = l;
unicode = 107;
},
{
glyphname = l;
kernLeft = h;
kernRight = l;
lastChange = "2022-10-26 10:02:43 +0000";
layers = (
{
anchors = (
{
name = bottom;
pos = (135,0);
},
{
name = center;
pos = (135,368);
},
{
name = top;
pos = (135,736);
},
{
name = topright;
pos = (182,736);
}
);
layerId = m01;
shapes = (
{
closed = 1;
nodes = (
(182,0,l),
(182,736,l),
(88,736,l),
(88,0,l)
);
}
);
width = 270;
},
{
anchors = (
{
name = bottom;
pos = (152,0);
},
{
name = center;
pos = (152,368);
},
{
name = top;
pos = (152,736);
},
{
name = topright;
pos = (229,736);
}
);
layerId = m002;
shapes = (
{
closed = 1;
nodes = (
(229,0,l),
(229,736,l),
(75,736,l),
(75,0,l)
);
}
);
width = 304;
},
{
anchors = (
{
name = bottom;
pos = (65,0);
},
{
name = center;
pos = (171,368);
},
{
name = top;
pos = (277,736);
},
{
name = topright;
pos = (324,736);
}
);
layerId = m003;
shapes = (
{
closed = 1;
nodes = (
(112,0,l),
(324,736,l),
(230,736,l),
(18,0,l)
);
}
);
width = 281;
},
{
anchors = (
{
name = bottom;
pos = (76,0);
},
{
name = center;
pos = (182,368);
},
{
name = top;
pos = (288,736);
},
{
name = topright;
pos = (365,736);
}
);
layerId = m004;
shapes = (
{
closed = 1;
nodes = (
(153,0,l),
(365,736,l),
(211,736,l),
(-1,0,l)
);
}
);
width = 305;
},
{
anchors = (
{
name = bottom;
pos = (197,0);
},
{
name = center;
pos = (197,368);
},
{
name = top;
pos = (197,736);
},
{
name = topright;
pos = (274,736);
}
);
layerId = m005;
shapes = (
{
closed = 1;
nodes = (
(274,0,l),
(274,710,l),
(60,710,l),
(60,0,l)
);
}
);
width = 334;
},
{
anchors = (
{
name = bottom;
pos = (144,0);
},
{
name = center;
pos = (144,355);
},
{
name = top;
pos = (144,710);
},
{
name = topright;
pos = (251,710);
}
);
layerId = "E9CDC47A-CC1A-45B5-BC95-53360E087AF1";
shapes = (
{
closed = 1;
nodes = (
(251,0,l),
(251,710,l),
(37,710,l),
(37,0,l)
);
}
);
width = 288;
}
);
metricLeft = n;
metricRight = "=|n";
unicode = 108;
},
{
glyphname = m;
kernLeft = n;
kernRight = n;
lastChange = "2022-10-26 10:04:42 +0000";
layers = (
{
anchors = (
{
name = bottom;
pos = (476,0);
},
{
name = top;
pos = (484,520);
}
);
background = {
anchors = (
{
name = bottom;
pos = (320,0);
},
{
name = top;
pos = (320,520);
}
);
};
guides = (
{
pos = (74,221);
showMeasurement = 1;
}
);
layerId = m01;
shapes = (
{
closed = 1;
nodes = (
(182,0,l),
(182,379,l),
(178,379,l),
(177,520,l),
(88,520,l),
(88,0,l)
);
},
{
closed = 1;
nodes = (
(525,0,l),
(525,356,ls),
(525,473,o),
(453,532,o),
(346,532,cs),
(247,532,o),
(179,476,o),
(159,353,c),
(180,308,l),
(195,410,o),
(260,450,o),
(331,450,cs),
(397,450,o),
(431,421,o),
(431,350,cs),
(431,0,l)
);
},
{
closed = 1;
nodes = (
(868,0,l),
(868,356,ls),
(868,473,o),
(796,532,o),
(689,532,cs),
(590,532,o),
(522,476,o),
(502,353,c),
(523,308,l),
(538,410,o),
(603,450,o),
(674,450,cs),
(740,450,o),
(774,421,o),
(774,350,cs),
(774,0,l)
);
}
);
width = 952;
},
{
anchors = (
{
name = bottom;
pos = (455,0);
},
{
name = top;
pos = (455,530);
}
);
guides = (
{
pos = (150,221);
showMeasurement = 1;
}
);
layerId = m002;
shapes = (
{
closed = 1;
nodes = (
(839,0,l),
(839,376,ls),
(839,484,o),
(767,542,o),
(679,542,cs),
(581,542,o),
(526,485,o),
(509,357,c),
(530,312,l),
(540,393,o),
(578,425,o),
(622,425,cs),
(666,425,o),
(689,398,o),
(689,345,cs),
(689,0,l)
);
},
{
closed = 1;
nodes = (
(225,0,l),
(225,389,l),
(217,530,l),
(75,530,l),
(75,0,l)
);
},
{
closed = 1;
nodes = (
(532,0,l),
(532,376,ls),
(532,484,o),
(460,542,o),
(372,542,cs),
(274,542,o),
(218,485,o),
(202,357,c),
(223,312,l),
(233,393,o),
(272,425,o),
(315,425,cs),
(359,425,o),
(382,398,o),
(382,345,cs),
(382,0,l)
);
}
);
width = 909;
},
{
anchors = (
{
name = bottom;
pos = (481,0);
},
{
name = top;
pos = (481,520);
}
);
guides = (
{
pos = (-21,221);
showMeasurement = 1;
}
);
layerId = m003;
shapes = (
{
closed = 1;
nodes = (
(452,0,l),
(555,363,ls),
(582,457,o),
(519,527,o),
(421,527,cs),
(318,527,o),
(232,459,o),
(175,292,c),
(182,245,l),
(236,394,o),
(318,448,o),
(395,448,cs),
(446,448,o),
(474,418,o),
(459,363,cs),
(358,0,l)
);
},
{
closed = 1;
nodes = (
(117,0,l),
(223,379,l),
(250,520,l),
(168,520,l),
(22,0,l)
);
},
{
closed = 1;
nodes = (
(788,0,l),
(891,363,ls),
(918,457,o),
(855,527,o),
(757,527,cs),
(653,527,o),
(566,460,o),
(505,298,c),
(518,245,l),
(572,394,o),
(654,448,o),
(731,448,cs),
(782,448,o),
(810,418,o),
(795,363,cs),
(694,0,l)
);
}
);
width = 951;
},
{
anchors = (
{
name = bottom;
pos = (457,0);
},
{
name = top;
pos = (457,530);
}
);
background = {
shapes = (
{
closed = 1;
nodes = (
(765,0,l),
(871,376,ls),
(901,484,o),
(845,542,o),
(757,542,cs),
(659,542,o),
(588,485,o),
(535,357,c),
(544,312,l),
(576,393,o),
(623,425,o),
(667,425,cs),
(711,425,o),
(727,398,o),
(712,345,cs),
(615,0,l)
);
},
{
closed = 1;
nodes = (
(151,0,l),
(260,389,l),
(292,530,l),
(150,530,l),
(1,0,l)
);
},
{
closed = 1;
nodes = (
(458,0,l),
(564,376,ls),
(594,484,o),
(538,542,o),
(450,542,cs),
(352,542,o),
(280,485,o),
(228,357,c),
(237,312,l),
(269,393,o),
(317,425,o),
(360,425,cs),
(404,425,o),
(420,398,o),
(405,345,cs),
(308,0,l)
);
}
);
};
guides = (
{
pos = (152,221);
showMeasurement = 1;
}
);
layerId = m004;
shapes = (
{
closed = 1;
nodes = (
(768,0,l),
(867,352,ls),
(894,449,o),
(853,541,o),
(746,541,cs),
(649,541,o),
(581,482,o),
(517,313,c),
(533,263,l),
(576,394,o),
(619,432,o),
(667,432,cs),
(717,432,o),
(726,388,o),
(713,342,cs),
(617,0,l)
);
},
{
closed = 1;
nodes = (
(153,0,l),
(262,389,l),
(293,530,l),
(151,530,l),
(3,0,l)
);
},
{
closed = 1;
nodes = (
(461,0,l),
(560,352,ls),
(587,449,o),
(546,541,o),
(439,541,cs),
(345,541,o),
(279,481,o),
(219,311,c),
(226,263,l),
(269,394,o),
(313,432,o),
(361,432,cs),
(409,432,o),
(419,389,o),
(406,342,cs),
(310,0,l)
);
}
);
width = 914;
},
{
anchors = (
{
name = bottom;
pos = (455,0);
},
{
name = top;
pos = (455,530);
}
);
guides = (
{
pos = (150,221);
showMeasurement = 1;
}
);
layerId = m005;
shapes = (
{
closed = 1;
nodes = (
(600,0,l),
(600,376,ls),
(600,484,o),
(529,542,o),
(431,542,cs),
(314,542,o),
(251,481,o),
(231,345,c),
(262,296,l),
(271,357,o),
(303,381,o),
(344,381,cs),
(381,381,o),
(396,361,o),
(396,321,cs),
(396,0,l)
);
},
{
closed = 1;
nodes = (
(264,0,l),
(264,389,l),
(256,530,l),
(60,530,l),
(60,0,l)
);
},
{
closed = 1;
nodes = (
(936,0,l),
(936,376,ls),
(936,484,o),
(865,542,o),
(767,542,cs),
(650,542,o),
(587,481,o),
(567,345,c),
(598,296,l),
(607,357,o),
(639,381,o),
(680,381,cs),
(717,381,o),
(732,361,o),
(732,321,cs),
(732,0,l)
);
}
);
width = 991;
},
{
anchors = (
{
name = bottom;
pos = (414,0);
},
{
name = top;
pos = (414,530);
}
);
guides = (
{
pos = (150,221);
showMeasurement = 1;
}
);
layerId = "E9CDC47A-CC1A-45B5-BC95-53360E087AF1";
shapes = (
{
closed = 1;
nodes = (
(795,0,l),
(795,376,ls),
(795,484,o),
(739,542,o),
(660,542,cs),
(556,542,o),
(502,481,o),
(485,345,c),
(515,296,l),
(521,357,o),
(540,381,o),
(567,381,cs),
(588,381,o),
(593,360,o),
(593,321,cs),
(593,0,l)
);
},
{
closed = 1;
nodes = (
(239,0,l),
(239,389,l),
(234,530,l),
(37,530,l),
(37,0,l)
);
},
{
closed = 1;
nodes = (
(517,0,l),
(517,376,ls),
(517,483,o),
(462,542,o),
(382,542,cs),
(277,542,o),
(225,481,o),
(207,345,c),
(237,296,l),
(243,357,o),
(262,381,o),
(289,381,cs),
(310,381,o),
(315,360,o),
(315,321,cs),
(315,0,l)
);
}
);
width = 828;
},
{
anchors = (
{
name = bottom;
pos = (476,0);
},
{
name = top;
pos = (476,520);
}
);
associatedMasterId = m01;
background = {
anchors = (
{
name = bottom;
pos = (320,0);
},
{
name = top;
pos = (320,520);
}
);
};
guides = (
{
pos = (74,221);
showMeasurement = 1;
}
);
layerId = "11559C04-EEA3-4AEB-A5EA-629800E35DBF";
name = "26 Oct 22, 21:04";
shapes = (
{
closed = 1;
nodes = (
(868,0,l),
(868,367,ls),
(868,475,o),
(790,532,o),
(679,532,cs),
(587,532,o),
(522,477,o),
(502,356,c),
(523,311,l),
(537,411,o),
(598,450,o),
(665,450,cs),
(736,450,o),
(774,420,o),
(774,357,cs),
(774,0,l)
);
},
{
closed = 1;
nodes = (
(182,0,l),
(182,379,l),
(178,379,l),
(177,520,l),
(88,520,l),
(88,0,l)
);
},
{
closed = 1;
nodes = (
(525,0,l),
(525,367,ls),
(525,475,o),
(447,532,o),
(336,532,cs),
(244,532,o),
(179,477,o),
(159,356,c),
(180,311,l),
(194,411,o),
(255,450,o),
(322,450,cs),
(393,450,o),
(431,420,o),
(431,357,cs),
(431,0,l)
);
}
);
width = 952;
}
);
metricLeft = n;
metricRight = n;
unicode = 109;
},
{
glyphname = n;
kernLeft = n;
kernRight = n;
lastChange = "2022-10-26 10:03:37 +0000";
layers = (
{
anchors = (
{
name = bottom;
pos = (320,0);
},
{
name = top;
pos = (320,520);
}
);
layerId = m01;
shapes = (
{
closed = 1;
nodes = (
(557,0,l),
(557,348,ls),
(557,470,o),
(479,532,o),
(362,532,cs),
(255,532,o),
(181,474,o),
(159,345,c),
(180,300,l),
(197,408,o),
(268,450,o),
(347,450,cs),
(423,450,o),
(463,419,o),
(463,342,cs),
(463,0,l)
);
},
{
closed = 1;
nodes = (
(182,0,l),
(182,379,l),
(179,379,l),
(178,520,l),
(88,520,l),
(88,0,l)
);
}
);
width = 641;
},
{
anchors = (
{
name = bottom;
pos = (317,0);
},
{
name = top;
pos = (317,530);
}
);
layerId = m002;
shapes = (
{
closed = 1;
nodes = (
(564,0,l),
(564,366,ls),
(564,481,o),
(484,542,o),
(391,542,cs),
(285,542,o),
(224,481,o),
(206,345,c),
(227,296,l),
(238,386,o),
(283,421,o),
(334,421,cs),
(384,421,o),
(410,391,o),
(410,331,cs),
(410,0,l)
);
},
{
closed = 1;
nodes = (
(229,0,l),
(229,389,l),
(221,530,l),
(75,530,l),
(75,0,l)
);
}
);
width = 634;
},
{
anchors = (
{
name = bottom;
pos = (257,3);
},
{
name = top;
pos = (402,518);
}
);
layerId = m003;
shapes = (
{
closed = 1;
nodes = (
(495,0,l),
(594,350,ls),
(625,458,o),
(564,527,o),
(451,527,cs),
(328,527,o),
(231,456,o),
(169,282,c),
(176,235,l),
(234,389,o),
(338,445,o),
(420,445,cs),
(480,445,o),
(515,408,o),
(497,344,cs),
(401,0,l)
);
},
{
closed = 1;
nodes = (
(117,0,l),
(223,379,l),
(240,520,l),
(168,520,l),
(22,0,l)
);
}
);
width = 658;
},
{
anchors = (
{
name = bottom;
pos = (250,2);
},
{
name = top;
pos = (399,529);
}
);
layerId = m004;
shapes = (
{
closed = 1;
nodes = (
(497,0,l),
(594,344,ls),
(628,465,o),
(562,538,o),
(470,538,cs),
(373,538,o),
(293,469,o),
(223,308,c),
(230,258,l),
(284,380,o),
(336,424,o),
(390,424,cs),
(430,424,o),
(449,388,o),
(434,334,cs),
(339,0,l)
);
},
{
closed = 1;
nodes = (
(160,0,l),
(269,380,l),
(295,530,l),
(151,530,l),
(2,0,l)
);
}
);
width = 643;
},
{
anchors = (
{
name = bottom;
pos = (347,0);
},
{
name = top;
pos = (347,530);
}
);
background = {
shapes = (
{
closed = 1;
nodes = (
(68,0,l),
(272,0,l),
(272,256,l),
(272,305,o),
(280,338,o),
(296,357,c),
(311,376,o),
(331,385,o),
(356,385,c),
(378,385,o),
(396,378,o),
(408,364,c),
(420,350,o),
(427,327,o),
(427,293,c),
(427,0,l),
(632,0,l),
(632,339,l),
(632,409,o),
(616,461,o),
(584,495,c),
(552,529,o),
(508,545,o),
(453,545,c),
(415,545,o),
(383,539,o),
(355,527,c),
(328,514,o),
(300,494,o),
(272,465,c),
(272,736,l),
(68,736,l)
);
}
);
};
layerId = m005;
shapes = (
{
closed = 1;
nodes = (
(629,0,l),
(629,376,ls),
(629,484,o),
(544,542,o),
(446,542,cs),
(329,542,o),
(261,481,o),
(241,345,c),
(272,296,l),
(281,357,o),
(318,381,o),
(359,381,cs),
(396,381,o),
(415,361,o),
(415,321,cs),
(415,0,l)
);
},
{
closed = 1;
nodes = (
(274,0,l),
(274,389,l),
(266,530,l),
(60,530,l),
(60,0,l)
);
}
);
width = 684;
},
{
anchors = (
{
name = bottom;
pos = (292,0);
},
{
name = top;
pos = (292,530);
}
);
background = {
shapes = (
{
closed = 1;
nodes = (
(68,0,l),
(272,0,l),
(272,256,l),
(272,305,o),
(280,338,o),
(296,357,c),
(311,376,o),
(331,385,o),
(356,385,c),
(378,385,o),
(396,378,o),
(408,364,c),
(420,350,o),
(427,327,o),
(427,293,c),
(427,0,l),
(632,0,l),
(632,339,l),
(632,409,o),
(616,461,o),
(584,495,c),
(552,529,o),
(508,545,o),
(453,545,c),
(415,545,o),
(383,539,o),
(355,527,c),
(328,514,o),
(300,494,o),
(272,465,c),
(272,736,l),
(68,736,l)
);
}
);
};
layerId = "E9CDC47A-CC1A-45B5-BC95-53360E087AF1";
shapes = (
{
closed = 1;
nodes = (
(539,0,l),
(539,376,ls),
(539,484,o),
(466,542,o),
(390,542,cs),
(292,542,o),
(235,481,o),
(219,345,c),
(249,296,l),
(254,354,o),
(274,381,o),
(298,381,cs),
(316,381,o),
(325,360,o),
(325,321,cs),
(325,0,l)
);
},
{
closed = 1;
nodes = (
(251,0,l),
(251,389,l),
(246,530,l),
(37,530,l),
(37,0,l)
);
}
);
width = 572;
}
);
unicode = 110;
},
{
glyphname = eng;
kernLeft = n;
kernRight = j;
lastChange = "2022-08-03 02:37:12 +0000";
layers = (
{
anchors = (
{
name = bottom;
pos = (325,0);
},
{
name = top;
pos = (325,520);
}
);
layerId = m01;
shapes = (
{
closed = 1;
nodes = (
(519,-200,o),
(562,-156,o),
(562,-88,cs),
(562,366,ls),
(562,481,o),
(492,532,o),
(369,532,cs),
(262,532,o),
(187,474,o),
(164,345,c),
(185,300,l),
(202,408,o),
(273,450,o),
(352,450,cs),
(428,450,o),
(468,426,o),
(468,356,cs),
(468,-81,ls),
(468,-106,o),
(452,-116,o),
(421,-116,cs),
(403,-116,o),
(386,-115,o),
(365,-111,c),
(360,-194,l),
(385,-198,o),
(409,-200,o),
(433,-200,cs)
);
},
{
closed = 1;
nodes = (
(187,0,l),
(187,379,l),
(173,520,l),
(93,520,l),
(93,0,l)
);
}
);
width = 650;
},
{
anchors = (
{
name = bottom;
pos = (317,0);
},
{
name = top;
pos = (317,530);
}
);
layerId = m002;
shapes = (
{
closed = 1;
nodes = (
(532,-200,o),
(564,-169,o),
(564,-108,cs),
(564,366,ls),
(564,481,o),
(484,542,o),
(391,542,cs),
(285,542,o),
(224,481,o),
(206,345,c),
(227,296,l),
(238,386,o),
(283,421,o),
(334,421,cs),
(384,421,o),
(410,391,o),
(410,331,cs),
(410,-41,ls),
(410,-66,o),
(399,-76,o),
(367,-76,cs),
(350,-76,o),
(336,-75,o),
(324,-71,c),
(324,-191,l),
(341,-199,o),
(375,-200,o),
(412,-200,cs)
);
},
{
closed = 1;
nodes = (
(229,0,l),
(229,389,l),
(221,530,l),
(75,530,l),
(75,0,l)
);
}
);
width = 634;
},
{
anchors = (
{
name = bottom;
pos = (252,0);
},
{
name = top;
pos = (402,520);
}
);
layerId = m003;
metricRight = "=j";
shapes = (
{
closed = 1;
nodes = (
(449,-200,o),
(522,-119,o),
(490,-17,c),
(594,350,ls),
(625,458,o),
(564,527,o),
(451,527,cs),
(328,527,o),
(231,456,o),
(169,282,c),
(176,235,l),
(234,389,o),
(338,445,o),
(420,445,cs),
(480,445,o),
(515,408,o),
(497,344,cs),
(406,18,l),
(435,-76,o),
(405,-122,o),
(346,-122,cs),
(320,-122,o),
(298,-112,o),
(283,-90,c),
(199,-139,l),
(240,-182,o),
(296,-200,o),
(343,-200,cs)
);
},
{
closed = 1;
nodes = (
(117,0,l),
(223,379,l),
(240,520,l),
(168,520,l),
(22,0,l)
);
}
);
width = 654;
},
{
anchors = (
{
name = bottom;
pos = (246,0);
},
{
name = top;
pos = (398,530);
}
);
layerId = m004;
metricRight = "=j";
shapes = (
{
closed = 1;
nodes = (
(420,-200,o),
(515,-135,o),
(494,-11,c),
(594,344,ls),
(628,465,o),
(562,538,o),
(470,538,cs),
(373,538,o),
(293,469,o),
(223,308,c),
(230,258,l),
(284,380,o),
(336,424,o),
(390,424,cs),
(430,424,o),
(449,388,o),
(434,334,cs),
(337,-8,l),
(351,-61,o),
(324,-88,o),
(295,-88,cs),
(268,-88,o),
(249,-81,o),
(231,-65,c),
(129,-165,l),
(176,-190,o),
(226,-200,o),
(286,-200,cs)
);
},
{
closed = 1;
nodes = (
(160,0,l),
(269,380,l),
(295,530,l),
(151,530,l),
(2,0,l)
);
}
);
width = 643;
},
{
anchors = (
{
name = bottom;
pos = (342,0);
},
{
name = top;
pos = (342,530);
}
);
layerId = m005;
shapes = (
{
closed = 1;
nodes = (
(597,-197,o),
(629,-164,o),
(629,-98,cs),
(629,376,ls),
(629,484,o),
(544,542,o),
(446,542,cs),
(329,542,o),
(261,481,o),
(241,345,c),
(272,296,l),
(281,357,o),
(318,381,o),
(359,381,cs),
(396,381,o),
(415,361,o),
(415,321,cs),
(415,-21,ls),
(415,-46,o),
(407,-56,o),
(382,-56,cs),
(369,-56,o),
(358,-55,o),
(349,-51,c),
(349,-191,l),
(376,-196,o),
(423,-197,o),
(477,-197,cs)
);
},
{
closed = 1;
nodes = (
(274,0,l),
(274,389,l),
(266,530,l),
(60,530,l),
(60,0,l)
);
}
);
width = 684;
},
{
anchors = (
{
name = bottom;
pos = (286,0);
},
{
name = top;
pos = (286,530);
}
);
layerId = "E9CDC47A-CC1A-45B5-BC95-53360E087AF1";
shapes = (
{
closed = 1;
nodes = (
(515,-197,o),
(539,-164,o),
(539,-98,cs),
(539,376,ls),
(539,484,o),
(466,542,o),
(390,542,cs),
(292,542,o),
(235,481,o),
(219,345,c),
(249,296,l),
(254,354,o),
(274,381,o),
(298,381,cs),
(316,381,o),
(325,360,o),
(325,321,cs),
(325,-21,ls),
(325,-45,o),
(321,-56,o),
(304,-56,cs),
(296,-56,o),
(286,-55,o),
(281,-52,c),
(282,-191,l),
(309,-196,o),
(356,-197,o),
(413,-197,cs)
);
},
{
closed = 1;
nodes = (
(251,0,l),
(251,389,l),
(246,530,l),
(37,530,l),
(37,0,l)
);
}
);
width = 572;
}
);
metricLeft = n;
metricRight = n;
unicode = 331;
},
{
glyphname = o;
kernLeft = o;
kernRight = o;
lastChange = "2022-08-03 02:37:12 +0000";
layers = (
{
anchors = (
{
name = bottom;
pos = (314,0);
},
{
name = center;
pos = (314,260);
},
{
name = ogonek;
pos = (492,55);
},
{
name = top;
pos = (314,520);
},
{
name = topright;
pos = (450,520);
}
);
layerId = m01;
shapes = (
{
closed = 1;
nodes = (
(463,-12,o),
(568,89,o),
(568,258,cs),
(568,429,o),
(463,532,o),
(314,532,cs),
(165,532,o),
(60,429,o),
(60,258,cs),
(60,89,o),
(165,-12,o),
(314,-12,cs)
);
},
{
closed = 1;
nodes = (
(215,66,o),
(156,124,o),
(156,258,cs),
(156,394,o),
(215,452,o),
(314,452,cs),
(413,452,o),
(472,394,o),
(472,258,cs),
(472,124,o),
(413,66,o),
(314,66,cs)
);
}
);
width = 628;
},
{
anchors = (
{
name = bottom;
pos = (316,0);
},
{
name = center;
pos = (316,265);
},
{
name = ogonek;
pos = (507,57);
},
{
name = top;
pos = (316,530);
},
{
name = topright;
pos = (462,530);
}
);
layerId = m002;
shapes = (
{
closed = 1;
nodes = (
(477,-12,o),
(590,94,o),
(590,263,cs),
(590,434,o),
(477,542,o),
(316,542,cs),
(155,542,o),
(42,434,o),
(42,263,cs),
(42,94,o),
(155,-12,o),
(316,-12,cs)
);
},
{
closed = 1;
nodes = (
(245,101,o),
(200,144,o),
(200,263,cs),
(200,384,o),
(245,427,o),
(316,427,cs),
(387,427,o),
(432,384,o),
(432,263,cs),
(432,144,o),
(387,101,o),
(316,101,cs)
);
}
);
width = 632;
},
{
anchors = (
{
name = bottom;
pos = (240,0);
},
{
name = center;
pos = (315,260);
},
{
name = ogonek;
pos = (451,52);
},
{
name = top;
pos = (380,520);
},
{
name = topright;
pos = (547,520);
}
);
layerId = m003;
shapes = (
{
closed = 1;
nodes = (
(469,-12,o),
(577,177,o),
(577,328,cs),
(577,460,o),
(478,532,o),
(356,532,cs),
(163,532,o),
(52,341,o),
(52,190,cs),
(52,58,o),
(154,-12,o),
(274,-12,cs)
);
},
{
closed = 1;
nodes = (
(202,67,o),
(146,108,o),
(146,190,cs),
(146,283,o),
(205,451,o),
(349,451,cs),
(427,451,o),
(483,410,o),
(483,328,cs),
(483,234,o),
(425,67,o),
(281,67,cs)
);
}
);
width = 630;
},
{
anchors = (
{
name = bottom;
pos = (244,1);
},
{
name = center;
pos = (318,265);
},
{
name = ogonek;
pos = (446,38);
},
{
name = top;
pos = (392,529);
},
{
name = topright;
pos = (535,513);
}
);
layerId = m004;
shapes = (
{
closed = 1;
nodes = (
(143,-12,o),
(277,-12,cs),
(484,-12,o),
(599,173,o),
(599,327,cs),
(599,469,o),
(494,542,o),
(360,542,cs),
(150,542,o),
(37,350,o),
(37,201,cs),
(37,59,o)
);
},
{
closed = 1;
nodes = (
(231,101,o),
(192,128,o),
(192,197,cs),
(192,274,o),
(238,427,o),
(348,427,cs),
(405,427,o),
(444,399,o),
(444,331,cs),
(444,257,o),
(398,101,o),
(287,101,cs)
);
}
);
width = 637;
},
{
anchors = (
{
name = bottom;
pos = (346,0);
},
{
name = center;
pos = (346,265);
},
{
name = ogonek;
pos = (537,57);
},
{
name = top;
pos = (346,530);
},
{
name = topright;
pos = (492,530);
}
);
background = {
shapes = (
{
closed = 1;
nodes = (
(190,10,o),
(258,-11,o),
(344,-11,c),
(439,-11,o),
(514,14,o),
(568,66,c),
(622,118,o),
(649,185,o),
(649,266,c),
(649,339,o),
(627,400,o),
(583,449,c),
(529,510,o),
(449,541,o),
(343,541,c),
(250,541,o),
(177,515,o),
(123,463,c),
(69,410,o),
(41,344,o),
(41,263,c),
(41,176,o),
(74,107,o),
(138,53,c)
);
},
{
closed = 1;
nodes = (
(292,391,o),
(317,402,o),
(346,402,c),
(374,402,o),
(397,391,o),
(417,368,c),
(435,346,o),
(445,312,o),
(445,266,c),
(445,217,o),
(435,182,o),
(417,159,c),
(398,137,o),
(374,125,o),
(345,125,c),
(316,125,o),
(292,137,o),
(273,159,c),
(253,182,o),
(244,217,o),
(244,264,c),
(244,310,o),
(253,345,o),
(273,367,c)
);
}
);
};
layerId = m005;
shapes = (
{
closed = 1;
nodes = (
(525,-12,o),
(652,94,o),
(652,263,cs),
(652,434,o),
(525,542,o),
(346,542,cs),
(167,542,o),
(40,434,o),
(40,263,cs),
(40,94,o),
(167,-12,o),
(346,-12,cs)
);
},
{
closed = 1;
nodes = (
(297,133,o),
(257,166,o),
(257,263,cs),
(257,362,o),
(297,395,o),
(346,395,cs),
(395,395,o),
(435,362,o),
(435,263,cs),
(435,166,o),
(395,133,o),
(346,133,cs)
);
}
);
width = 692;
},
{
anchors = (
{
name = bottom;
pos = (293,0);
},
{
name = center;
pos = (293,265);
},
{
name = ogonek;
pos = (449,57);
},
{
name = top;
pos = (293,530);
},
{
name = topright;
pos = (412,530);
}
);
background = {
shapes = (
{
closed = 1;
nodes = (
(190,10,o),
(258,-11,o),
(344,-11,c),
(439,-11,o),
(514,14,o),
(568,66,c),
(622,118,o),
(649,185,o),
(649,266,c),
(649,339,o),
(627,400,o),
(583,449,c),
(529,510,o),
(449,541,o),
(343,541,c),
(250,541,o),
(177,515,o),
(123,463,c),
(69,410,o),
(41,344,o),
(41,263,c),
(41,176,o),
(74,107,o),
(138,53,c)
);
},
{
closed = 1;
nodes = (
(292,391,o),
(317,402,o),
(346,402,c),
(374,402,o),
(397,391,o),
(417,368,c),
(435,346,o),
(445,312,o),
(445,266,c),
(445,217,o),
(435,182,o),
(417,159,c),
(398,137,o),
(374,125,o),
(345,125,c),
(316,125,o),
(292,137,o),
(273,159,c),
(253,182,o),
(244,217,o),
(244,264,c),
(244,310,o),
(253,345,o),
(273,367,c)
);
}
);
};
layerId = "E9CDC47A-CC1A-45B5-BC95-53360E087AF1";
shapes = (
{
closed = 1;
nodes = (
(448,-12,o),
(559,94,o),
(559,263,cs),
(559,434,o),
(448,542,o),
(293,542,cs),
(139,542,o),
(28,434,o),
(28,263,cs),
(28,94,o),
(139,-12,o),
(293,-12,cs)
);
},
{
closed = 1;
nodes = (
(265,133,o),
(244,152,o),
(244,263,cs),
(244,374,o),
(265,395,o),
(293,395,cs),
(321,395,o),
(343,374,o),
(343,263,cs),
(343,152,o),
(321,133,o),
(293,133,cs)
);
}
);
width = 587;
}
);
unicode = 111;
},
{
glyphname = p;
kernLeft = p;
kernRight = o;
lastChange = "2022-10-27 01:05:32 +0000";
layers = (
{
anchors = (
{
name = bottom;
pos = (326,0);
},
{
name = top;
pos = (326,520);
}
);
layerId = m01;
shapes = (
{
closed = 1;
nodes = (
(492,-2,o),
(591,96,o),
(591,264,cs),
(591,432,o),
(492,532,o),
(362,532,cs),
(233,532,o),
(153,430,o),
(153,265,cs),
(153,100,o),
(233,-2,o),
(362,-2,cs)
);
},
{
closed = 1;
nodes = (
(187,-200,l),
(187,387,l),
(183,388,l),
(181,520,l),
(93,520,l),
(93,-200,l)
);
},
{
closed = 1;
nodes = (
(254,74,o),
(187,135,o),
(187,264,cs),
(187,393,o),
(254,450,o),
(342,450,cs),
(430,450,o),
(497,393,o),
(497,264,cs),
(497,135,o),
(430,74,o),
(342,74,cs)
);
}
);
width = 651;
},
{
anchors = (
{
name = bottom;
pos = (322,0);
},
{
name = top;
pos = (322,530);
}
);
layerId = m002;
shapes = (
{
closed = 1;
nodes = (
(507,-2,o),
(601,102,o),
(601,269,cs),
(601,436,o),
(507,542,o),
(378,542,cs),
(255,542,o),
(195,436,o),
(195,269,cs),
(195,102,o),
(255,-2,o),
(378,-2,cs)
);
},
{
closed = 1;
nodes = (
(229,-200,l),
(229,389,l),
(221,530,l),
(75,530,l),
(75,-200,l)
);
},
{
closed = 1;
nodes = (
(275,108,o),
(229,149,o),
(229,269,cs),
(229,389,o),
(275,426,o),
(336,426,cs),
(397,426,o),
(443,388,o),
(443,269,cs),
(443,150,o),
(397,108,o),
(336,108,cs)
);
}
);
width = 643;
},
{
anchors = (
{
name = bottom;
pos = (252,0);
},
{
name = top;
pos = (402,520);
}
);
layerId = m003;
shapes = (
{
closed = 1;
nodes = (
(485,-2,o),
(603,191,o),
(603,340,cs),
(603,466,o),
(510,532,o),
(420,532,cs),
(236,532,o),
(144,311,o),
(144,175,cs),
(144,64,o),
(199,-2,o),
(307,-2,cs)
);
},
{
closed = 1;
nodes = (
(56,-200,l),
(224,387,l),
(239,520,l),
(168,520,l),
(-39,-200,l)
);
},
{
closed = 1;
nodes = (
(228,76,o),
(182,119,o),
(182,201,cs),
(182,299,o),
(251,453,o),
(386,453,cs),
(454,453,o),
(508,414,o),
(508,330,cs),
(508,237,o),
(428,76,o),
(301,76,cs)
);
}
);
width = 651;
},
{
anchors = (
{
name = bottom;
pos = (328,0);
},
{
name = top;
pos = (328,530);
}
);
layerId = m004;
shapes = (
{
closed = 1;
nodes = (
(243,-1,o),
(340,-1,cs),
(520,-1,o),
(616,204,o),
(616,343,cs),
(616,479,o),
(526,542,o),
(433,542,cs),
(269,542,o),
(185,305,o),
(185,173,cs),
(185,59,o)
);
},
{
closed = 1;
nodes = (
(99,-200,l),
(265,389,l),
(297,530,l),
(151,530,l),
(-55,-200,l)
);
},
{
closed = 1;
nodes = (
(226,140,o),
(226,209,cs),
(226,283,o),
(269,432,o),
(368,432,cs),
(421,432,o),
(460,408,o),
(460,341,cs),
(460,268,o),
(415,115,o),
(314,115,cs),
(266,115,o)
);
}
);
width = 650;
},
{
anchors = (
{
name = bottom;
pos = (332,0);
},
{
name = top;
pos = (332,530);
}
);
background = {
shapes = (
{
closed = 1;
nodes = (
(264,-187,l),
(264,61,l),
(283,40,o),
(306,26,o),
(332,15,c),
(356,4,o),
(385,-1,o),
(416,-1,c),
(478,-1,o),
(531,22,o),
(573,68,c),
(613,112,o),
(635,178,o),
(635,265,c),
(635,343,o),
(616,408,o),
(578,462,c),
(539,515,o),
(486,542,o),
(416,542,c),
(381,542,o),
(350,534,o),
(320,519,c),
(298,507,o),
(275,485,o),
(250,453,c),
(250,530,l),
(63,530,l),
(63,-187,l)
);
},
{
closed = 1;
nodes = (
(305,385,o),
(327,396,o),
(351,396,c),
(375,396,o),
(394,385,o),
(411,366,c),
(427,346,o),
(435,315,o),
(435,273,c),
(435,227,o),
(428,196,o),
(412,176,c),
(397,157,o),
(377,147,o),
(354,147,c),
(328,147,o),
(305,158,o),
(289,177,c),
(271,197,o),
(263,228,o),
(263,269,c),
(263,314,o),
(271,346,o),
(287,366,c)
);
}
);
};
layerId = m005;
shapes = (
{
closed = 1;
nodes = (
(60,-185,l),
(266,-185,l),
(266,397,l),
(252,407,l),
(242,530,l),
(60,530,l)
);
},
{
closed = 1;
nodes = (
(540,0,o),
(641,104,o),
(641,270,cs),
(641,440,o),
(540,542,o),
(405,542,cs),
(276,542,o),
(212,438,o),
(212,270,cs),
(212,104,o),
(276,0,o),
(405,0,cs)
);
},
{
closed = 1;
nodes = (
(303,143,o),
(266,174,o),
(266,267,cs),
(266,362,o),
(303,393,o),
(348,393,cs),
(393,393,o),
(430,362,o),
(430,267,cs),
(430,174,o),
(393,143,o),
(348,143,cs)
);
}
);
width = 681;
},
{
anchors = (
{
name = bottom;
pos = (284,0);
},
{
name = top;
pos = (284,530);
}
);
background = {
shapes = (
{
closed = 1;
nodes = (
(241,-187,l),
(241,61,l),
(260,40,o),
(283,26,o),
(309,15,c),
(333,4,o),
(362,-1,o),
(393,-1,c),
(455,-1,o),
(508,22,o),
(550,68,c),
(590,112,o),
(612,178,o),
(612,265,c),
(612,343,o),
(593,408,o),
(555,462,c),
(516,515,o),
(463,542,o),
(393,542,c),
(358,542,o),
(327,534,o),
(297,519,c),
(275,507,o),
(252,485,o),
(227,453,c),
(227,530,l),
(40,530,l),
(40,-187,l)
);
},
{
closed = 1;
nodes = (
(282,385,o),
(304,396,o),
(328,396,c),
(352,396,o),
(371,385,o),
(388,366,c),
(404,346,o),
(412,315,o),
(412,273,c),
(412,227,o),
(405,196,o),
(389,176,c),
(374,157,o),
(354,147,o),
(331,147,c),
(305,147,o),
(282,158,o),
(266,177,c),
(248,197,o),
(240,228,o),
(240,269,c),
(240,314,o),
(248,346,o),
(264,366,c)
);
}
);
};
layerId = "E9CDC47A-CC1A-45B5-BC95-53360E087AF1";
shapes = (
{
closed = 1;
nodes = (
(455,0,o),
(539,105,o),
(539,270,cs),
(539,439,o),
(455,542,o),
(345,542,cs),
(230,542,o),
(176,437,o),
(176,270,cs),
(176,105,o),
(230,0,o),
(345,0,cs)
);
},
{
closed = 1;
nodes = (
(243,-185,l),
(243,397,l),
(209,407,l),
(189,530,l),
(37,530,l),
(37,-185,l)
);
},
{
closed = 1;
nodes = (
(258,143,o),
(243,169,o),
(243,267,cs),
(243,365,o),
(258,393,o),
(287,393,cs),
(316,393,o),
(331,365,o),
(331,267,cs),
(331,169,o),
(316,143,o),
(287,143,cs)
);
}
);
width = 567;
}
);
metricLeft = n;
metricRight = o;
unicode = 112;
},
{
glyphname = q;
kernLeft = o;
kernRight = q;
lastChange = "2022-10-27 01:05:50 +0000";
layers = (
{
anchors = (
{
name = bottom;
pos = (326,0);
},
{
name = top;
pos = (326,520);
}
);
layerId = m01;
shapes = (
{
closed = 1;
nodes = (
(418,-2,o),
(498,100,o),
(498,265,cs),
(498,430,o),
(418,532,o),
(289,532,cs),
(159,532,o),
(60,432,o),
(60,264,cs),
(60,100,o),
(159,-2,o),
(289,-2,cs)
);
},
{
closed = 1;
nodes = (
(221,78,o),
(154,136,o),
(154,264,cs),
(154,396,o),
(221,454,o),
(309,454,cs),
(397,454,o),
(464,396,o),
(464,264,cs),
(464,136,o),
(397,78,o),
(309,78,cs)
);
},
{
closed = 1;
nodes = (
(558,-200,l),
(558,520,l),
(469,520,l),
(467,387,l),
(464,387,l),
(464,-200,l)
);
}
);
width = 651;
},
{
anchors = (
{
name = bottom;
pos = (322,0);
},
{
name = top;
pos = (322,530);
}
);
layerId = m002;
shapes = (
{
closed = 1;
nodes = (
(388,-12,o),
(448,95,o),
(448,264,cs),
(448,435,o),
(388,542,o),
(265,542,cs),
(136,542,o),
(42,437,o),
(42,264,cs),
(42,95,o),
(136,-12,o),
(265,-12,cs)
);
},
{
closed = 1;
nodes = (
(246,104,o),
(200,149,o),
(200,270,cs),
(200,389,o),
(246,432,o),
(307,432,cs),
(368,432,o),
(414,389,o),
(414,270,cs),
(414,148,o),
(368,104,o),
(307,104,cs)
);
},
{
closed = 1;
nodes = (
(568,-200,l),
(568,530,l),
(422,530,l),
(414,397,l),
(414,-200,l)
);
}
);
width = 643;
},
{
anchors = (
{
name = bottom;
pos = (276,0);
},
{
name = top;
pos = (426,520);
}
);
layerId = m003;
metricRight = "=u-5";
shapes = (
{
closed = 1;
nodes = (
(419,-2,o),
(510,220,o),
(510,355,cs),
(510,466,o),
(456,532,o),
(351,532,cs),
(164,532,o),
(53,345,o),
(53,196,cs),
(53,75,o),
(137,-2,o),
(239,-2,cs)
);
},
{
closed = 1;
nodes = (
(201,76,o),
(147,119,o),
(147,205,cs),
(147,297,o),
(217,453,o),
(353,453,cs),
(418,453,o),
(472,416,o),
(472,326,cs),
(472,228,o),
(406,76,o),
(268,76,cs)
);
},
{
closed = 1;
nodes = (
(467,-200,l),
(456,-128,o),
(468,-58,o),
(538,185,cs),
(635,520,l),
(554,520,l),
(501,387,l),
(447,199,ls),
(372,-61,o),
(364,-135,o),
(365,-200,c)
);
}
);
width = 645;
},
{
anchors = (
{
name = bottom;
pos = (325,0);
},
{
name = top;
pos = (325,530);
}
);
layerId = m004;
shapes = (
{
closed = 1;
nodes = (
(127,-11,o),
(217,-11,cs),
(387,-11,o),
(467,247,o),
(467,377,cs),
(467,483,o),
(413,542,o),
(315,542,cs),
(133,542,o),
(35,331,o),
(35,189,cs),
(35,51,o)
);
},
{
closed = 1;
nodes = (
(228,99,o),
(192,127,o),
(192,194,cs),
(192,272,o),
(239,426,o),
(340,426,cs),
(393,426,o),
(427,392,o),
(427,331,cs),
(427,257,o),
(381,99,o),
(280,99,cs)
);
},
{
closed = 1;
nodes = (
(443,-200,l),
(649,530,l),
(503,530,l),
(457,397,l),
(289,-200,l)
);
}
);
width = 651;
},
{
anchors = (
{
name = bottom;
pos = (322,0);
},
{
name = top;
pos = (322,530);
}
);
layerId = m005;
shapes = (
{
closed = 1;
nodes = (
(440,530,l),
(418,413,l),
(415,397,l),
(415,-185,l),
(621,-185,l),
(621,530,l)
);
},
{
closed = 1;
nodes = (
(402,0,o),
(464,107,o),
(464,275,cs),
(464,439,o),
(402,542,o),
(276,542,cs),
(141,542,o),
(40,439,o),
(40,270,cs),
(40,105,o),
(141,0,o),
(276,0,cs)
);
},
{
closed = 1;
nodes = (
(288,153,o),
(251,184,o),
(251,277,cs),
(251,372,o),
(288,403,o),
(333,403,cs),
(378,403,o),
(415,372,o),
(415,277,cs),
(415,184,o),
(378,153,o),
(333,153,cs)
);
}
);
width = 681;
},
{
anchors = (
{
name = bottom;
pos = (313,0);
},
{
name = top;
pos = (313,530);
}
);
layerId = "E9CDC47A-CC1A-45B5-BC95-53360E087AF1";
shapes = (
{
closed = 1;
nodes = (
(337,0,o),
(391,105,o),
(391,270,cs),
(391,437,o),
(337,542,o),
(222,542,cs),
(112,542,o),
(28,439,o),
(28,270,cs),
(28,105,o),
(112,0,o),
(222,0,cs)
);
},
{
closed = 1;
nodes = (
(251,143,o),
(236,169,o),
(236,267,cs),
(236,365,o),
(251,393,o),
(280,393,cs),
(309,393,o),
(324,365,o),
(324,267,cs),
(324,169,o),
(309,143,o),
(280,143,cs)
);
},
{
closed = 1;
nodes = (
(530,-185,l),
(530,530,l),
(378,530,l),
(358,407,l),
(324,397,l),
(324,-185,l)
);
}
);
width = 567;
}
);
metricLeft = o;
metricRight = "=|p";
unicode = 113;
},
{
glyphname = r;
kernLeft = n;
kernRight = r;
lastChange = "2022-10-26 10:03:42 +0000";
layers = (
{
anchors = (
{
name = bottom;
pos = (139,0);
},
{
name = top;
pos = (198,520);
}
);
layerId = m01;
shapes = (
{
closed = 1;
nodes = (
(187,0,l),
(187,366,l),
(183,366,l),
(182,520,l),
(93,520,l),
(93,0,l)
);
},
{
closed = 1;
nodes = (
(204,409,o),
(302,458,o),
(398,439,c),
(404,531,l),
(272,546,o),
(186,466,o),
(171,321,c),
(185,271,l)
);
}
);
width = 428;
},
{
anchors = (
{
name = bottom;
pos = (216,0);
},
{
name = top;
pos = (216,530);
}
);
background = {
shapes = (
{
ref = n;
}
);
};
layerId = m002;
shapes = (
{
closed = 1;
nodes = (
(229,0,l),
(229,343,l),
(216,530,l),
(75,530,l),
(75,0,l)
);
},
{
closed = 1;
nodes = (
(241,369,o),
(283,397,o),
(347,397,cs),
(378,397,o),
(395,395,o),
(404,386,c),
(421,537,l),
(416,540,o),
(404,542,o),
(378,542,cs),
(289,542,o),
(230,488,o),
(211,325,c),
(227,266,l)
);
}
);
width = 428;
},
{
anchors = (
{
name = bottom;
pos = (70,0);
},
{
name = top;
pos = (275,524);
}
);
background = {
shapes = (
{
pos = (6,0);
ref = n;
}
);
};
layerId = m003;
shapes = (
{
closed = 1;
nodes = (
(117,0,l),
(205,312,l),
(239,520,l),
(168,520,l),
(22,0,l)
);
},
{
closed = 1;
nodes = (
(253,406,o),
(314,439,o),
(368,439,cs),
(395,439,o),
(416,424,o),
(425,393,c),
(501,484,l),
(475,514,o),
(439,529,o),
(397,529,cs),
(319,529,o),
(249,474,o),
(162,216,c),
(162,165,l)
);
}
);
width = 450;
},
{
anchors = (
{
name = bottom;
pos = (93,0);
},
{
name = top;
pos = (312,530);
}
);
background = {
shapes = (
{
pos = (6,0);
ref = n;
},
{
closed = 1;
nodes = (
(159,0,l),
(268,389,l),
(300,530,l),
(154,530,l),
(5,0,l)
);
},
{
closed = 1;
nodes = (
(273,364,o),
(326,391,o),
(384,391,cs),
(407,391,o),
(426,387,o),
(438,378,c),
(509,532,l),
(485,538,o),
(466,542,o),
(445,542,cs),
(367,542,o),
(300,488,o),
(237,325,c),
(232,266,l)
);
}
);
};
layerId = m004;
shapes = (
{
closed = 1;
nodes = (
(161,0,l),
(250,318,l),
(290,530,l),
(151,530,l),
(3,0,l)
);
},
{
closed = 1;
nodes = (
(260,351,o),
(309,395,o),
(364,395,cs),
(385,395,o),
(415,384,o),
(426,351,c),
(532,504,l),
(506,533,o),
(472,542,o),
(442,542,cs),
(361,542,o),
(289,470,o),
(197,191,c),
(196,128,l)
);
}
);
width = 471;
},
{
anchors = (
{
name = bottom;
pos = (159,0);
},
{
name = top;
pos = (243,530);
}
);
background = {
shapes = (
{
pos = (-15,0);
ref = n;
}
);
};
layerId = m005;
shapes = (
{
closed = 1;
nodes = (
(274,0,l),
(274,389,l),
(266,530,l),
(60,530,l),
(60,0,l)
);
},
{
closed = 1;
nodes = (
(287,332,o),
(335,361,o),
(398,361,cs),
(422,361,o),
(442,355,o),
(458,342,c),
(468,530,l),
(450,538,o),
(427,542,o),
(408,542,cs),
(332,542,o),
(282,485,o),
(257,320,c),
(268,204,l)
);
}
);
width = 480;
},
{
anchors = (
{
name = bottom;
pos = (143,0);
},
{
name = top;
pos = (212,530);
}
);
background = {
shapes = (
{
pos = (-15,0);
ref = n;
}
);
};
layerId = "E9CDC47A-CC1A-45B5-BC95-53360E087AF1";
shapes = (
{
closed = 1;
nodes = (
(251,0,l),
(251,371,l),
(241,530,l),
(37,530,l),
(37,0,l)
);
},
{
closed = 1;
nodes = (
(263,291,o),
(315,318,o),
(357,318,cs),
(374,318,o),
(389,317,o),
(401,309,c),
(400,531,l),
(389,535,o),
(373,537,o),
(362,537,cs),
(305,537,o),
(259,481,o),
(236,320,c),
(244,204,l)
);
}
);
width = 416;
},
{
anchors = (
{
name = bottom;
pos = (139,0);
},
{
name = top;
pos = (198,520);
}
);
associatedMasterId = m01;
background = {
shapes = (
{
ref = n;
}
);
};
layerId = "F6B8EF74-31FB-4189-BAE3-8179A7772E2C";
name = "26 Oct 22, 18:35";
shapes = (
{
closed = 1;
nodes = (
(187,0,l),
(187,382,l),
(173,520,l),
(93,520,l),
(93,0,l)
);
},
{
closed = 1;
nodes = (
(201,409,o),
(255,440,o),
(309,440,cs),
(329,440,o),
(345,437,o),
(358,430,c),
(383,525,l),
(367,530,o),
(349,532,o),
(329,532,cs),
(238,532,o),
(185,475,o),
(171,320,c),
(185,270,l)
);
}
);
visible = 1;
width = 398;
},
{
anchors = (
{
name = bottom;
pos = (139,0);
},
{
name = top;
pos = (198,520);
}
);
associatedMasterId = m01;
layerId = "51BF2FF6-571D-4E2A-B7A8-A228C07403D4";
name = "26 Oct 22, 18:36";
shapes = (
{
closed = 1;
nodes = (
(187,0,l),
(187,382,l),
(173,520,l),
(93,520,l),
(93,0,l)
);
},
{
closed = 1;
nodes = (
(201,409,o),
(255,440,o),
(309,440,cs),
(342,440,o),
(369,428,o),
(390,401,c),
(448,486,l),
(416,519,o),
(380,532,o),
(336,532,cs),
(246,532,o),
(182,466,o),
(171,320,c),
(185,270,l)
);
}
);
width = 428;
}
);
metricLeft = n;
unicode = 114;
},
{
glyphname = s;
kernLeft = s;
kernRight = s;
lastChange = "2022-10-27 01:27:33 +0000";
layers = (
{
anchors = (
{
name = bottom;
pos = (263,0);
},
{
name = top;
pos = (263,520);
}
);
layerId = m01;
shapes = (
{
closed = 1;
nodes = (
(389,-12,o),
(483,52,o),
(483,161,cs),
(483,249,o),
(421,288,o),
(324,305,cs),
(234,321,ls),
(173,332,o),
(146,350,o),
(146,389,cs),
(146,431,o),
(190,456,o),
(260,456,cs),
(313,456,o),
(366,435,o),
(378,382,c),
(474,402,l),
(448,489,o),
(371,532,o),
(262,532,cs),
(126,532,o),
(54,462,o),
(54,379,cs),
(54,310,o),
(104,260,o),
(202,243,cs),
(305,225,ls),
(365,215,o),
(391,196,o),
(391,152,cs),
(391,99,o),
(342,66,o),
(268,66,cs),
(195,66,o),
(141,97,o),
(130,166,c),
(32,138,l),
(57,42,o),
(150,-12,o),
(267,-12,cs)
);
}
);
width = 527;
},
{
anchors = (
{
name = bottom;
pos = (281,0);
},
{
name = top;
pos = (281,530);
}
);
layerId = m002;
shapes = (
{
closed = 1;
nodes = (
(427,-12,o),
(515,58,o),
(515,175,cs),
(515,273,o),
(449,315,o),
(340,332,cs),
(243,347,ls),
(202,353,o),
(187,367,o),
(187,392,cs),
(187,419,o),
(213,440,o),
(274,440,cs),
(330,440,o),
(358,423,o),
(365,385,c),
(494,418,l),
(474,498,o),
(399,542,o),
(274,542,cs),
(121,542,o),
(44,463,o),
(44,375,cs),
(44,295,o),
(100,243,o),
(210,224,cs),
(308,207,ls),
(354,199,o),
(373,183,o),
(373,150,cs),
(373,113,o),
(335,96,o),
(277,96,cs),
(211,96,o),
(181,118,o),
(176,158,c),
(31,132,l),
(50,40,o),
(117,-12,o),
(277,-12,cs)
);
}
);
width = 547;
},
{
anchors = (
{
name = bottom;
pos = (196,0);
},
{
name = top;
pos = (314,520);
}
);
layerId = m003;
shapes = (
{
closed = 1;
nodes = (
(339,-12,o),
(440,61,o),
(440,175,cs),
(440,236,o),
(389,276,o),
(320,299,cs),
(243,325,ls),
(197,340,o),
(177,359,o),
(177,385,cs),
(177,427,o),
(220,456,o),
(275,456,cs),
(326,456,o),
(375,441,o),
(387,387,c),
(481,421,l),
(450,506,o),
(370,532,o),
(281,532,cs),
(171,532,o),
(83,462,o),
(83,374,cs),
(83,322,o),
(121,278,o),
(199,251,cs),
(281,223,ls),
(325,208,o),
(345,190,o),
(345,162,cs),
(345,108,o),
(290,67,o),
(224,67,cs),
(152,67,o),
(99,100,o),
(95,161,c),
(-6,141,l),
(3,46,o),
(99,-12,o),
(214,-12,cs)
);
}
);
width = 500;
},
{
anchors = (
{
name = bottom;
pos = (246,0);
},
{
name = top;
pos = (274,530);
}
);
layerId = m004;
shapes = (
{
closed = 1;
nodes = (
(140,-12,o),
(246,-12,cs),
(404,-12,o),
(485,74,o),
(485,182,cs),
(485,261,o),
(429,300,o),
(354,329,cs),
(284,356,ls),
(251,369,o),
(235,380,o),
(235,398,cs),
(235,426,o),
(261,439,o),
(293,439,cs),
(344,439,o),
(384,423,o),
(394,379,c),
(529,419,l),
(506,519,o),
(388,542,o),
(307,542,cs),
(183,542,o),
(82,474,o),
(82,372,cs),
(82,310,o),
(125,269,o),
(206,237,cs),
(281,207,ls),
(315,193,o),
(330,178,o),
(330,156,cs),
(330,121,o),
(297,99,o),
(252,99,cs),
(201,99,o),
(161,117,o),
(152,178,c),
(8,141,l),
(15,25,o)
);
}
);
width = 541;
},
{
anchors = (
{
name = bottom;
pos = (305,0);
},
{
name = top;
pos = (305,530);
}
);
background = {
shapes = (
{
closed = 1;
nodes = (
(161,0,o),
(230,-14,o),
(327,-14,c),
(396,-14,o),
(451,-5,o),
(491,12,c),
(531,29,o),
(560,52,o),
(578,81,c),
(597,110,o),
(606,140,o),
(606,171,c),
(606,201,o),
(597,229,o),
(580,255,c),
(562,280,o),
(537,299,o),
(504,313,c),
(471,327,o),
(420,338,o),
(352,345,c),
(308,351,o),
(279,357,o),
(265,363,c),
(252,370,o),
(245,380,o),
(245,393,c),
(245,404,o),
(250,414,o),
(261,423,c),
(271,431,o),
(288,435,o),
(311,435,c),
(334,435,o),
(353,429,o),
(369,419,c),
(381,411,o),
(390,398,o),
(395,381,c),
(588,400,l),
(575,435,o),
(558,463,o),
(538,483,c),
(517,503,o),
(492,518,o),
(462,528,c),
(432,538,o),
(385,543,o),
(321,543,c),
(261,543,o),
(213,536,o),
(177,524,c),
(142,511,o),
(114,492,o),
(93,467,c),
(73,442,o),
(63,411,o),
(63,376,c),
(63,344,o),
(72,316,o),
(91,291,c),
(110,266,o),
(133,248,o),
(161,237,c),
(188,227,o),
(237,215,o),
(308,203,c),
(356,195,o),
(385,188,o),
(396,182,c),
(411,174,o),
(419,163,o),
(419,148,c),
(419,135,o),
(413,124,o),
(402,115,c),
(387,104,o),
(365,98,o),
(338,98,c),
(313,98,o),
(293,103,o),
(278,113,c),
(263,124,o),
(251,141,o),
(243,165,c),
(40,146,l),
(52,95,o),
(78,55,o),
(119,28,c)
);
}
);
};
layerId = m005;
shapes = (
{
closed = 1;
nodes = (
(504,-12,o),
(606,59,o),
(606,179,cs),
(606,277,o),
(527,327,o),
(403,344,cs),
(333,353,ls),
(283,360,o),
(261,374,o),
(261,394,cs),
(261,417,o),
(278,435,o),
(320,435,cs),
(367,435,o),
(395,416,o),
(404,378,c),
(592,413,l),
(555,507,o),
(472,542,o),
(329,542,cs),
(152,542,o),
(62,480,o),
(62,378,cs),
(62,303,o),
(108,239,o),
(256,213,cs),
(336,199,ls),
(383,191,o),
(405,177,o),
(405,154,cs),
(405,125,o),
(380,104,o),
(339,104,cs),
(289,104,o),
(255,131,o),
(249,171,c),
(35,134,l),
(71,27,o),
(148,-12,o),
(335,-12,cs)
);
}
);
width = 641;
},
{
anchors = (
{
name = bottom;
pos = (271,0);
},
{
name = top;
pos = (265,530);
}
);
background = {
shapes = (
{
closed = 1;
nodes = (
(135,0,o),
(204,-14,o),
(301,-14,c),
(370,-14,o),
(425,-5,o),
(465,12,c),
(505,29,o),
(534,52,o),
(552,81,c),
(571,110,o),
(580,140,o),
(580,171,c),
(580,201,o),
(571,229,o),
(554,255,c),
(536,280,o),
(511,299,o),
(478,313,c),
(445,327,o),
(394,338,o),
(326,345,c),
(282,351,o),
(253,357,o),
(239,363,c),
(226,370,o),
(219,380,o),
(219,393,c),
(219,404,o),
(224,414,o),
(235,423,c),
(245,431,o),
(262,435,o),
(285,435,c),
(308,435,o),
(327,429,o),
(343,419,c),
(355,411,o),
(364,398,o),
(369,381,c),
(562,400,l),
(549,435,o),
(532,463,o),
(512,483,c),
(491,503,o),
(466,518,o),
(436,528,c),
(406,538,o),
(359,543,o),
(295,543,c),
(235,543,o),
(187,536,o),
(151,524,c),
(116,511,o),
(88,492,o),
(67,467,c),
(47,442,o),
(37,411,o),
(37,376,c),
(37,344,o),
(46,316,o),
(65,291,c),
(84,266,o),
(107,248,o),
(135,237,c),
(162,227,o),
(211,215,o),
(282,203,c),
(330,195,o),
(359,188,o),
(370,182,c),
(385,174,o),
(393,163,o),
(393,148,c),
(393,135,o),
(387,124,o),
(376,115,c),
(361,104,o),
(339,98,o),
(312,98,c),
(287,98,o),
(267,103,o),
(252,113,c),
(237,124,o),
(225,141,o),
(217,165,c),
(14,146,l),
(26,95,o),
(52,55,o),
(93,28,c)
);
}
);
};
layerId = "E9CDC47A-CC1A-45B5-BC95-53360E087AF1";
shapes = (
{
closed = 1;
nodes = (
(428,-12,o),
(509,59,o),
(509,179,cs),
(509,277,o),
(446,319,o),
(339,345,cs),
(298,355,ls),
(254,366,o),
(238,379,o),
(238,402,cs),
(238,420,o),
(248,435,o),
(276,435,cs),
(303,435,o),
(317,419,o),
(321,388,c),
(497,423,l),
(469,505,o),
(396,542,o),
(278,542,cs),
(121,542,o),
(42,477,o),
(42,369,cs),
(42,299,o),
(75,249,o),
(204,212,cs),
(256,197,ls),
(294,186,o),
(310,173,o),
(310,150,cs),
(310,123,o),
(295,105,o),
(270,105,cs),
(244,105,o),
(226,128,o),
(224,161,c),
(26,134,l),
(51,33,o),
(130,-12,o),
(271,-12,cs)
);
}
);
width = 535;
},
{
anchors = (
{
name = bottom;
pos = (261,0);
},
{
name = top;
pos = (261,520);
}
);
associatedMasterId = m01;
layerId = "3584B7E1-179F-45D1-AA72-ECC64D9B19E5";
name = "26 Oct 22, 20:22";
shapes = (
{
closed = 1;
nodes = (
(387,-12,o),
(481,53,o),
(481,165,cs),
(481,252,o),
(412,288,o),
(322,307,cs),
(238,325,ls),
(179,338,o),
(152,352,o),
(152,390,cs),
(152,431,o),
(188,456,o),
(258,456,cs),
(311,456,o),
(352,440,o),
(364,387,c),
(467,407,l),
(441,494,o),
(369,532,o),
(260,532,cs),
(124,532,o),
(60,463,o),
(60,381,cs),
(60,313,o),
(113,268,o),
(214,246,cs),
(303,227,ls),
(363,214,o),
(389,199,o),
(389,154,cs),
(389,100,o),
(341,66,o),
(268,66,cs),
(194,66,o),
(146,95,o),
(134,165,c),
(30,143,l),
(59,31,o),
(148,-12,o),
(265,-12,cs)
);
}
);
width = 523;
}
);
unicode = 115;
},
{
glyphname = germandbls;
kernLeft = h;
kernRight = germandbls;
lastChange = "2022-08-03 02:37:12 +0000";
layers = (
{
background = {
shapes = (
{
pos = (129,0);
ref = s;
}
);
};
layerId = m01;
shapes = (
{
closed = 1;
nodes = (
(517,-12,o),
(601,57,o),
(601,168,cs),
(601,245,o),
(559,285,o),
(470,318,cs),
(421,336,ls),
(384,350,o),
(370,363,o),
(370,392,cs),
(370,414,o),
(382,429,o),
(408,445,cs),
(430,458,ls),
(505,502,o),
(537,538,o),
(537,592,cs),
(537,679,o),
(462,748,o),
(311,748,cs),
(161,748,o),
(93,668,o),
(93,576,cs),
(93,-3,l),
(187,-3,l),
(187,566,ls),
(187,626,o),
(220,666,o),
(309,666,cs),
(401,666,o),
(446,638,o),
(446,593,cs),
(446,563,o),
(429,537,o),
(392,516,cs),
(369,503,ls),
(315,472,o),
(282,436,o),
(282,388,cs),
(282,328,o),
(309,288,o),
(386,260,cs),
(438,241,ls),
(480,226,o),
(505,199,o),
(505,156,cs),
(505,100,o),
(466,65,o),
(414,65,cs),
(370,65,o),
(335,83,o),
(318,127,c),
(232,86,l),
(257,19,o),
(327,-12,o),
(414,-12,cs)
);
}
);
width = 651;
},
{
background = {
shapes = (
{
pos = (245,0);
ref = s;
}
);
};
layerId = m002;
shapes = (
{
closed = 1;
nodes = (
(598,-12,o),
(689,61,o),
(689,182,cs),
(689,272,o),
(647,305,o),
(572,332,cs),
(523,350,ls),
(498,359,o),
(488,367,o),
(488,386,cs),
(488,405,o),
(498,422,o),
(514,439,cs),
(533,460,ls),
(561,491,o),
(589,529,o),
(589,584,cs),
(589,676,o),
(503,748,o),
(336,748,cs),
(179,748,o),
(75,680,o),
(75,546,cs),
(75,-3,l),
(229,-3,l),
(229,536,ls),
(229,603,o),
(256,633,o),
(341,633,cs),
(406,633,o),
(438,608,o),
(438,568,cs),
(438,540,o),
(422,517,o),
(401,496,cs),
(383,478,ls),
(352,447,o),
(324,410,o),
(324,353,cs),
(324,300,o),
(356,268,o),
(432,238,cs),
(490,215,ls),
(522,202,o),
(536,185,o),
(536,160,cs),
(536,125,o),
(510,99,o),
(458,99,cs),
(418,99,o),
(389,116,o),
(370,146,c),
(270,66,l),
(295,13,o),
(365,-12,o),
(451,-12,cs)
);
}
);
width = 719;
},
{
layerId = m003;
shapes = (
{
closed = 1;
nodes = (
(287,-11,o),
(367,-11,cs),
(490,-11,o),
(575,88,o),
(575,186,cs),
(575,239,o),
(546,276,o),
(484,311,cs),
(440,336,ls),
(413,352,o),
(404,365,o),
(404,388,cs),
(404,415,o),
(420,432,o),
(458,445,cs),
(490,456,ls),
(588,490,o),
(630,537,o),
(630,602,cs),
(630,711,o),
(513,748,o),
(421,748,cs),
(298,748,o),
(216,688,o),
(172,535,cs),
(19,0,l),
(115,0,l),
(261,520,ls),
(293,633,o),
(349,666,o),
(417,666,cs),
(470,666,o),
(540,647,o),
(540,597,cs),
(540,559,o),
(504,534,o),
(457,519,cs),
(429,510,ls),
(345,483,o),
(316,428,o),
(316,371,cs),
(316,329,o),
(336,295,o),
(386,266,cs),
(431,240,ls),
(460,223,o),
(476,200,o),
(476,171,cs),
(476,123,o),
(436,67,o),
(374,67,cs),
(333,67,o),
(287,84,o),
(282,142,c),
(190,115,l),
(197,28,o)
);
}
);
width = 653;
},
{
layerId = m004;
shapes = (
{
closed = 1;
nodes = (
(587,-12,o),
(674,91,o),
(674,194,cs),
(674,248,o),
(644,282,o),
(594,311,cs),
(551,336,ls),
(532,347,o),
(525,355,o),
(525,369,cs),
(525,392,o),
(542,410,o),
(567,426,cs),
(592,442,ls),
(653,481,o),
(681,529,o),
(681,577,cs),
(681,700,o),
(547,748,o),
(453,748,cs),
(313,748,o),
(198,695,o),
(153,536,cs),
(2,0,l),
(160,0,l),
(302,505,ls),
(328,598,o),
(368,631,o),
(442,631,cs),
(479,631,o),
(527,617,o),
(527,574,cs),
(527,541,o),
(501,514,o),
(473,497,cs),
(450,483,ls),
(383,442,o),
(354,393,o),
(354,349,cs),
(354,305,o),
(378,277,o),
(432,244,cs),
(482,214,ls),
(504,201,o),
(514,185,o),
(514,168,cs),
(514,128,o),
(478,100,o),
(436,100,cs),
(386,100,o),
(357,122,o),
(346,160,c),
(226,95,l),
(241,8,o),
(371,-12,o),
(433,-12,cs)
);
}
);
width = 732;
},
{
anchors = (
{
name = bottom;
pos = (558,0);
},
{
name = top;
pos = (558,530);
}
);
layerId = m005;
shapes = (
{
closed = 1;
nodes = (
(741,-12,o),
(839,59,o),
(839,189,cs),
(839,283,o),
(768,326,o),
(655,349,cs),
(606,359,ls),
(581,364,o),
(570,372,o),
(570,388,cs),
(570,402,o),
(578,411,o),
(602,422,cs),
(632,436,ls),
(707,471,o),
(750,505,o),
(750,573,cs),
(750,670,o),
(660,722,o),
(411,722,cs),
(200,722,o),
(60,656,o),
(60,526,cs),
(60,-3,l),
(274,-3,l),
(274,466,ls),
(274,543,o),
(305,579,o),
(401,579,cs),
(463,579,o),
(493,562,o),
(493,534,cs),
(493,516,o),
(484,505,o),
(452,488,cs),
(412,466,ls),
(363,439,o),
(334,402,o),
(334,363,cs),
(334,293,o),
(384,240,o),
(540,208,cs),
(579,200,ls),
(626,190,o),
(648,177,o),
(648,154,cs),
(648,125,o),
(623,104,o),
(582,104,cs),
(543,104,o),
(517,123,o),
(512,151,c),
(312,114,l),
(344,22,o),
(412,-12,o),
(578,-12,cs)
);
}
);
width = 869;
},
{
anchors = (
{
name = bottom;
pos = (336,0);
},
{
name = top;
pos = (336,710);
}
);
layerId = "E9CDC47A-CC1A-45B5-BC95-53360E087AF1";
shapes = (
{
closed = 1;
nodes = (
(556,-12,o),
(651,71,o),
(651,188,cs),
(651,322,o),
(495,352,o),
(495,394,cs),
(495,439,o),
(606,483,o),
(606,562,cs),
(606,653,o),
(529,722,o),
(344,722,cs),
(159,722,o),
(37,656,o),
(37,526,cs),
(37,0,l),
(251,0,l),
(251,493,ls),
(251,552,o),
(267,579,o),
(319,579,cs),
(362,579,o),
(383,562,o),
(383,534,cs),
(383,481,o),
(282,450,o),
(282,370,cs),
(282,295,o),
(428,253,o),
(428,197,cs),
(428,172,o),
(394,154,o),
(342,154,cs),
(325,154,o),
(310,158,o),
(297,166,c),
(292,0,l),
(323,-7,o),
(364,-12,o),
(414,-12,cs)
);
}
);
width = 671;
}
);
metricLeft = l;
unicode = 223;
},
{
glyphname = t;
kernLeft = t;
kernRight = t;
lastChange = "2022-10-26 09:48:24 +0000";
layers = (
{
anchors = (
{
name = bottom;
pos = (192,0);
},
{
name = center;
pos = (162,260);
},
{
name = top;
pos = (172,520);
},
{
name = topright;
pos = (221,776);
}
);
layerId = m01;
shapes = (
{
closed = 1;
nodes = (
(248,-7,o),
(275,-6,o),
(303,1,c),
(303,85,l),
(283,78,o),
(265,77,o),
(240,77,cs),
(208,77,o),
(197,85,o),
(197,112,cs),
(197,710,l),
(109,666,l),
(107,520,l),
(103,493,l),
(103,96,ls),
(103,27,o),
(127,-7,o),
(224,-7,cs)
);
},
{
closed = 1;
nodes = (
(303,442,l),
(303,520,l),
(8,520,l),
(8,442,l)
);
}
);
width = 349;
},
{
anchors = (
{
name = bottom;
pos = (205,0);
},
{
name = center;
pos = (175,265);
},
{
name = top;
pos = (185,530);
},
{
name = topright;
pos = (280,776);
}
);
layerId = m002;
shapes = (
{
closed = 1;
nodes = (
(290,-6,o),
(321,-5,o),
(366,0,c),
(365,123,l),
(353,119,o),
(340,117,o),
(321,117,cs),
(273,117,o),
(252,125,o),
(252,156,cs),
(252,721,l),
(132,664,l),
(108,530,l),
(98,494,l),
(98,84,ls),
(98,20,o),
(126,-6,o),
(252,-6,cs)
);
},
{
closed = 1;
nodes = (
(364,422,l),
(364,530,l),
(20,530,l),
(20,422,l)
);
}
);
width = 395;
},
{
anchors = (
{
name = bottom;
pos = (143,0);
},
{
name = center;
pos = (154,260);
},
{
name = top;
pos = (244,517);
},
{
name = topright;
pos = (369,767);
}
);
layerId = m003;
shapes = (
{
closed = 1;
nodes = (
(201,-7,o),
(229,-1,o),
(268,14,c),
(246,97,l),
(218,82,o),
(201,77,o),
(181,77,cs),
(154,77,o),
(137,94,o),
(148,133,cs),
(321,736,l),
(229,711,l),
(172,504,l),
(157,493,l),
(58,148,ls),
(32,56,o),
(73,-7,o),
(167,-7,cs)
);
},
{
closed = 1;
nodes = (
(363,442,l),
(385,520,l),
(80,510,l),
(58,432,l)
);
}
);
width = 341;
},
{
anchors = (
{
name = bottom;
pos = (132,0);
},
{
name = center;
pos = (176,265);
},
{
name = top;
pos = (261,530);
},
{
name = topright;
pos = (425,776);
}
);
layerId = m004;
shapes = (
{
closed = 1;
nodes = (
(216,-6,o),
(248,-3,o),
(330,12,c),
(316,130,l),
(306,121,o),
(296,117,o),
(283,117,cs),
(245,117,o),
(219,127,o),
(233,176,cs),
(393,746,l),
(251,698,l),
(180,503,l),
(164,494,l),
(69,153,ls),
(37,37,o),
(86,-6,o),
(189,-6,cs)
);
},
{
closed = 1;
nodes = (
(414,422,l),
(444,530,l),
(92,525,l),
(62,417,l)
);
}
);
width = 425;
},
{
anchors = (
{
name = bottom;
pos = (228,0);
},
{
name = center;
pos = (198,265);
},
{
name = top;
pos = (208,530);
},
{
name = topright;
pos = (333,776);
}
);
background = {
shapes = (
{
closed = 1;
nodes = (
(96,627,l),
(96,530,l),
(22,530,l),
(22,381,l),
(96,381,l),
(96,196,l),
(96,137,o),
(102,95,o),
(113,68,c),
(125,42,o),
(143,23,o),
(166,9,c),
(190,-4,o),
(227,-10,o),
(277,-10,c),
(321,-10,o),
(368,-5,o),
(418,6,c),
(403,146,l),
(376,138,o),
(355,133,o),
(341,133,c),
(323,133,o),
(312,139,o),
(306,150,c),
(301,157,o),
(299,172,o),
(299,195,c),
(299,381,l),
(411,381,l),
(411,530,l),
(299,530,l),
(299,731,l)
);
}
);
};
layerId = m005;
shapes = (
{
closed = 1;
nodes = (
(321,-6,o),
(351,-4,o),
(421,5,c),
(417,160,l),
(401,153,o),
(385,149,o),
(367,149,cs),
(327,149,o),
(314,157,o),
(314,196,cs),
(314,720,l),
(117,686,l),
(100,530,l),
(100,494,l),
(100,122,ls),
(100,37,o),
(145,-6,o),
(277,-6,cs)
);
},
{
closed = 1;
nodes = (
(418,382,l),
(418,530,l),
(18,530,l),
(18,382,l)
);
}
);
width = 459;
},
{
anchors = (
{
name = bottom;
pos = (227,0);
},
{
name = center;
pos = (185,265);
},
{
name = top;
pos = (201,530);
},
{
name = topright;
pos = (285,816);
}
);
background = {
shapes = (
{
closed = 1;
nodes = (
(96,627,l),
(96,530,l),
(22,530,l),
(22,381,l),
(96,381,l),
(96,196,l),
(96,137,o),
(102,95,o),
(113,68,c),
(125,42,o),
(143,23,o),
(166,9,c),
(190,-4,o),
(227,-10,o),
(277,-10,c),
(321,-10,o),
(368,-5,o),
(418,6,c),
(403,146,l),
(376,138,o),
(355,133,o),
(341,133,c),
(323,133,o),
(312,139,o),
(306,150,c),
(301,157,o),
(299,172,o),
(299,195,c),
(299,381,l),
(411,381,l),
(411,530,l),
(299,530,l),
(299,731,l)
);
}
);
};
layerId = "E9CDC47A-CC1A-45B5-BC95-53360E087AF1";
shapes = (
{
closed = 1;
nodes = (
(288,-6,o),
(314,-4,o),
(387,5,c),
(383,160,l),
(369,153,o),
(354,149,o),
(338,149,cs),
(304,149,o),
(294,157,o),
(294,196,cs),
(294,720,l),
(104,696,l),
(79,530,l),
(80,494,l),
(80,122,ls),
(80,37,o),
(124,-6,o),
(247,-6,cs)
);
},
{
closed = 1;
nodes = (
(384,382,l),
(384,530,l),
(15,530,l),
(15,382,l)
);
}
);
width = 418;
}
);
unicode = 116;
},
